<svg width="120" height="120" viewBox="0 0 120 120" fill="none" xmlns="http://www.w3.org/2000/svg">
<rect width="120" height="120" rx="23" fill="black"/>
<path d="M97.6169 89.5466L96.9132 87.569C96.7062 86.8214 95.4473 84.4096 95.0524 83.7946C94.0733 82.2717 93.3855 80.5608 93.1509 78.7479C93.132 78.6007 93.1116 78.452 93.0883 78.3048C92.2781 72.9871 90.9886 67.7596 89.2343 62.691L88.0453 59.2532C87.6693 58.169 88.0686 56.9594 89.0288 56.3313C92.6788 53.9427 95.1034 49.7311 95.1034 44.9336C95.1034 37.4895 89.2678 31.4548 82.0682 31.4548H81.4971C80.1055 31.4548 78.9923 30.3282 78.9763 28.9365C78.9763 28.9277 78.9763 28.919 78.9763 28.9103C78.8947 23.4934 74.6531 19.0413 69.4177 18.8795C67.5599 18.8227 65.8143 19.2963 64.3106 20.1663C61.6426 21.7096 58.3554 21.7096 55.6875 20.1663C54.1838 19.2963 52.4382 18.8227 50.5804 18.8795C45.3435 19.0413 41.1019 23.4934 41.0218 28.9103C41.0218 28.919 41.0218 28.9277 41.0218 28.9365C41.0043 30.3282 39.8911 31.4548 38.501 31.4548H37.9298C30.7303 31.4548 24.8946 37.4895 24.8946 44.9336C24.8946 49.7442 27.3324 53.966 30.9999 56.3517C31.9732 56.9842 32.3739 58.2098 31.9849 59.3028L30.8163 62.5817C28.9847 67.7203 27.6791 73.0439 26.9229 78.4651C26.9127 78.5336 26.904 78.6021 26.8952 78.6692C26.6563 80.5243 25.9773 82.2775 24.9879 83.8456C24.6076 84.4475 23.2481 86.8433 23.0456 87.5705L22.3855 89.4242C20.994 93.3313 22.5778 97.7674 26.1696 99.6488C26.6125 99.8805 27.073 100.07 27.5466 100.211C29.9304 100.918 32.3783 100.286 34.1385 98.7438C34.918 98.0603 36.0443 97.9583 36.9623 98.4392C36.9783 98.448 36.9958 98.4567 37.0119 98.4655L37.1736 98.55C39.7731 99.9009 42.6421 100.605 45.5519 100.605H74.6589C77.5556 100.605 80.413 99.9068 83.0037 98.5675L83.0372 98.55C83.0795 98.5281 83.1203 98.5063 83.1625 98.4844C84.0747 98.0006 85.1937 98.104 85.9747 98.7788C87.732 100.296 90.161 100.915 92.5258 100.213C92.9994 100.071 93.4598 99.882 93.8984 99.6503C97.4377 97.7834 98.9924 93.4042 97.6199 89.5495L97.6169 89.5466Z" fill="#44B070"/>
<path d="M39.4657 57.9737L37.7886 64.0143C36.3956 69.0304 35.4033 74.2258 34.8278 79.5173C33.955 87.5385 37.0455 95.4007 42.4994 99.0382L42.6232 99.1198C44.6005 100.439 46.7818 101.125 48.9937 101.125H71.1255C73.3374 101.125 75.5187 100.439 77.496 99.1198C83.0096 95.4415 86.1001 87.4539 85.1414 79.3614C84.525 74.1704 83.5444 69.0683 82.2111 64.1207L80.5996 58.1413C78.7913 51.4318 74.694 48.2723 69.2007 48.7984C68.2973 48.8844 67.4027 49.2268 66.5051 49.6276C64.5016 50.5195 62.3829 50.9931 60.2425 50.9931H59.8461C57.6926 50.9931 55.5594 50.5253 53.5384 49.6451C52.6248 49.2472 51.7126 48.9077 50.799 48.829C45.3232 48.3597 41.3075 51.3414 39.4672 57.9737H39.4657Z" fill="#DDE8B6"/>
<path d="M51.2854 37.032C55.2648 37.032 58.4908 33.8055 58.4908 29.8255C58.4908 25.8455 55.2648 22.619 51.2854 22.619C47.306 22.619 44.0801 25.8455 44.0801 29.8255C44.0801 33.8055 47.306 37.032 51.2854 37.032Z" fill="white"/>
<path d="M68.7066 37.032C72.686 37.032 75.9119 33.8055 75.9119 29.8255C75.9119 25.8455 72.686 22.619 68.7066 22.619C64.7272 22.619 61.5012 25.8455 61.5012 29.8255C61.5012 33.8055 64.7272 37.032 68.7066 37.032Z" fill="white"/>
<path d="M52.4094 34.0531C54.1324 34.0531 55.5291 32.1603 55.5291 29.8254C55.5291 27.4905 54.1324 25.5977 52.4094 25.5977C50.6865 25.5977 49.2898 27.4905 49.2898 29.8254C49.2898 32.1603 50.6865 34.0531 52.4094 34.0531Z" fill="#1C1C1C" stroke="#1D1D1D" stroke-miterlimit="10"/>
<path d="M67.1182 34.0531C68.8411 34.0531 70.2378 32.1603 70.2378 29.8254C70.2378 27.4905 68.8411 25.5977 67.1182 25.5977C65.3952 25.5977 63.9985 27.4905 63.9985 29.8254C63.9985 32.1603 65.3952 34.0531 67.1182 34.0531Z" fill="#1C1C1C" stroke="#1D1D1D" stroke-miterlimit="10"/>
<path d="M36.5371 52.6427C41.4034 52.6427 45.3482 48.6973 45.3482 43.8303C45.3482 38.9633 41.4034 35.0179 36.5371 35.0179C31.6709 35.0179 27.7261 38.9633 27.7261 43.8303C27.7261 48.6973 31.6709 52.6427 36.5371 52.6427Z" fill="#65B97B"/>
<path d="M83.4551 52.7579C88.3213 52.7579 92.2662 48.8124 92.2662 43.9454C92.2662 39.0785 88.3213 35.133 83.4551 35.133C78.5889 35.133 74.644 39.0785 74.644 43.9454C74.644 48.8124 78.5889 52.7579 83.4551 52.7579Z" fill="#65B97B"/>
<g opacity="0.2" style="mix-blend-mode:color-burn">
<path d="M26.7608 89.7171C26.7608 89.516 26.771 89.3178 26.7885 89.121C25.2994 89.9998 24.2998 91.6203 24.2998 93.4741C24.2998 96.2648 26.5612 98.5266 29.3516 98.5266C30.9194 98.5266 32.3197 97.8125 33.2464 96.6918C29.6211 96.431 26.7608 93.4085 26.7608 89.7156V89.7171Z" fill="#492771"/>
<path d="M26.7608 89.7171C26.7608 89.516 26.771 89.3178 26.7885 89.121C25.2994 89.9998 24.2998 91.6203 24.2998 93.4741C24.2998 96.2648 26.5612 98.5266 29.3516 98.5266C30.9194 98.5266 32.3197 97.8125 33.2464 96.6918C29.6211 96.431 26.7608 93.4085 26.7608 89.7156V89.7171Z" stroke="#492770" stroke-miterlimit="10"/>
</g>
<g opacity="0.2" style="mix-blend-mode:color-burn">
<path d="M93.4003 89.7171C93.4003 89.516 93.3901 89.3178 93.3727 89.121C94.8618 89.9998 95.8614 91.6203 95.8614 93.4741C95.8614 96.2648 93.6 98.5266 90.8096 98.5266C89.2418 98.5266 87.8415 97.8125 86.9148 96.6918C90.5401 96.431 93.4003 93.4085 93.4003 89.7156V89.7171Z" fill="#492771"/>
<path d="M93.4003 89.7171C93.4003 89.516 93.3901 89.3178 93.3727 89.121C94.8618 89.9998 95.8614 91.6203 95.8614 93.4741C95.8614 96.2648 93.6 98.5266 90.8096 98.5266C89.2418 98.5266 87.8415 97.8125 86.9148 96.6918C90.5401 96.431 93.4003 93.4085 93.4003 89.7156V89.7171Z" stroke="#492770" stroke-miterlimit="10"/>
</g>
<g opacity="0.2" style="mix-blend-mode:color-burn">
<path d="M55.4001 55.1377C55.4147 57.6268 57.4372 59.6409 59.9288 59.6409C62.4204 59.6409 64.4429 57.6268 64.4575 55.1377H55.4001Z" fill="#00FF62"/>
</g>
<g opacity="0.2" style="mix-blend-mode:color-burn">
<path d="M53.4375 42.5698C53.4594 43.7255 56.3867 44.6611 59.9959 44.6611C63.6051 44.6611 66.5324 43.7255 66.5543 42.5698H53.4375Z" fill="#00FF62"/>
</g>
<g opacity="0.2" style="mix-blend-mode:color-burn">
<path d="M55.4001 62.7581C55.4147 65.2472 57.4372 67.2612 59.9288 67.2612C62.4204 67.2612 64.4429 65.2472 64.4575 62.7581H55.4001Z" fill="#00FF62"/>
</g>
<g opacity="0.2" style="mix-blend-mode:color-burn">
<path d="M56.3435 73.7885C56.3552 75.7588 57.9551 77.3532 59.9294 77.3532C61.9038 77.3532 63.5037 75.7588 63.5153 73.7885H56.345H56.3435Z" fill="#00FF62"/>
</g>
<g opacity="0.2" style="mix-blend-mode:color-burn">
<path d="M41.9426 62.7581C41.9572 65.2472 43.9797 67.2612 46.4713 67.2612C48.9629 67.2612 50.9854 65.2472 50.9999 62.7581H41.9426Z" fill="#00FF62"/>
</g>
<g opacity="0.2" style="mix-blend-mode:color-burn">
<path d="M45.7034 70.8462C45.715 72.8165 47.3149 74.4108 49.2893 74.4108C51.2637 74.4108 52.8635 72.8165 52.8752 70.8462H45.7048H45.7034Z" fill="#00FF62"/>
</g>
<g opacity="0.2" style="mix-blend-mode:color-burn">
<path d="M68.9922 62.7581C69.0068 65.2472 71.0292 67.2612 73.5208 67.2612C76.0125 67.2612 78.0349 65.2472 78.0495 62.7581H68.9922Z" fill="#00FF62"/>
</g>
<g opacity="0.2" style="mix-blend-mode:color-burn">
<path d="M67.1187 70.8462C67.1303 72.8165 68.7302 74.4108 70.7046 74.4108C72.6789 74.4108 74.2788 72.8165 74.2905 70.8462H67.1201H67.1187Z" fill="#00FF62"/>
</g>
<path d="M59.9151 41.9025C59.7781 40.5574 58.6736 39.4818 57.3273 39.3755C56.5288 39.3128 55.7929 39.5809 55.2436 40.0589C55.1591 40.1493 55.0688 40.2382 54.9755 40.3256C53.6539 41.5425 51.6082 42.3251 49.3103 42.3251C48.388 42.3251 47.5064 42.1998 46.6948 41.968C48.2612 44.2648 50.8986 45.7731 53.8885 45.7731C55.1577 45.7731 56.3656 45.5006 57.4526 45.0109C57.9203 44.8011 58.3662 44.5504 58.7858 44.2648C59.5144 43.7678 59.9719 42.9401 59.9297 42.0599C59.9267 42.0074 59.9238 41.9564 59.918 41.9039L59.9151 41.9025Z" fill="#0F6131"/>
<path d="M70.5498 42.3235C68.2519 42.3235 66.2062 41.5409 64.8846 40.324C64.7913 40.238 64.701 40.1477 64.6165 40.0573C64.0672 39.5793 63.3299 39.3112 62.5328 39.3738C61.185 39.4802 60.082 40.5557 59.945 41.9008C59.9392 41.9533 59.9363 42.0058 59.9334 42.0568C59.8911 42.9385 60.3486 43.7648 61.0772 44.2617C61.4968 44.5488 61.9427 44.798 62.4104 45.0079C63.4974 45.4961 64.7054 45.77 65.9745 45.77C68.963 45.77 71.6018 44.2617 73.1682 41.965C72.3566 42.1952 71.475 42.322 70.5527 42.322L70.5498 42.3235Z" fill="#0F6131"/>
</svg>
