<svg width="1139" height="992" viewBox="0 0 1139 992" fill="none" xmlns="http://www.w3.org/2000/svg">
<g clip-path="url(#clip0_22_2865)">
<circle cx="591" cy="502" r="569" fill="#0B0B0B"/>
<circle cx="593" cy="511" r="381" fill="#111111"/>
<path d="M589.55 673.188L586.961 665.031C586.199 661.951 581.578 651.998 580.126 649.464C576.53 643.182 574.004 636.122 573.146 628.645C573.074 628.037 572.997 627.424 572.916 626.817C569.944 604.88 565.203 583.319 558.76 562.407L551.852 539.992C568.616 531.341 580.308 511.835 580.308 489.156C580.308 458.45 558.875 433.558 532.438 433.558C529.734 433.558 527.697 430.962 528.095 428.089C528.464 425.432 528.637 422.698 528.603 419.907C528.272 395.153 511.015 374.802 489.707 374.061C483.591 373.85 477.776 375.23 472.536 377.866C459.172 384.597 443.592 384.597 430.232 377.866C424.993 375.23 419.178 373.85 413.061 374.061C391.753 374.797 374.496 395.148 374.165 419.907C374.127 422.698 374.304 425.432 374.673 428.089C375.071 430.962 373.034 433.558 370.33 433.558C343.893 433.558 322.461 458.45 322.461 489.156C322.461 511.938 334.258 531.511 351.141 540.105L344.21 561.954C337.484 583.149 332.69 605.112 329.91 627.471C329.876 627.754 329.843 628.032 329.809 628.315C328.932 635.967 326.439 643.202 322.806 649.665C321.411 652.147 316.416 662.029 315.673 665.031L313.247 672.678C308.132 688.796 313.952 707.097 327.144 714.857C328.769 715.815 330.461 716.592 332.201 717.174C343.102 720.81 354.372 715.866 360.671 705.784C362.689 707.292 364.784 708.698 366.965 709.97L367.56 710.32C377.109 715.892 387.645 718.796 398.33 718.796H505.229C515.866 718.796 526.36 715.918 535.875 710.392L536 710.32C538.258 709.002 540.42 707.545 542.505 705.979C548.823 715.928 560.021 720.789 570.85 717.179C572.59 716.597 574.277 715.82 575.893 714.862C588.893 707.164 594.603 689.099 589.56 673.193L589.55 673.188Z" fill="#00B7FF"/>
<path d="M368.988 556.769L362.258 579.761C356.668 598.855 352.685 618.634 350.374 638.774C346.87 669.305 359.271 699.234 381.164 713.08L381.658 713.395C389.591 718.415 398.344 721.026 407.222 721.026H496.044C504.922 721.026 513.675 718.41 521.609 713.395C543.737 699.393 556.143 668.986 552.289 638.182C549.82 618.423 545.879 598.999 540.53 580.168L534.063 557.407C526.805 531.866 510.358 519.842 488.317 521.845C484.693 522.175 481.102 523.478 477.498 525.002C469.459 528.395 460.955 530.198 452.364 530.198H450.778C442.135 530.198 433.573 528.421 425.462 525.069C421.795 523.555 418.133 522.262 414.47 521.964C392.496 520.177 376.38 531.526 368.988 556.769Z" fill="#BAE2F5"/>
<path d="M417.576 446.869C433.016 446.869 445.533 433.423 445.533 416.837C445.533 400.251 433.016 386.806 417.576 386.806C402.136 386.806 389.619 400.251 389.619 416.837C389.619 433.423 402.136 446.869 417.576 446.869Z" fill="white"/>
<path d="M486.457 446.869C501.897 446.869 514.413 433.423 514.413 416.837C514.413 400.251 501.897 386.806 486.457 386.806C471.017 386.806 458.5 400.251 458.5 416.837C458.5 433.423 471.017 446.869 486.457 446.869Z" fill="white"/>
<path d="M414.111 440.34C421.055 440.34 426.685 432.146 426.685 422.038C426.685 411.931 421.055 403.737 414.111 403.737C407.167 403.737 401.537 411.931 401.537 422.038C401.537 432.146 407.167 440.34 414.111 440.34Z" fill="#1C1C1C" stroke="#1D1D1D" stroke-miterlimit="10"/>
<path d="M478.25 439.325C485.194 439.325 490.823 431.131 490.823 421.024C490.823 410.917 485.194 402.723 478.25 402.723C471.305 402.723 465.676 410.917 465.676 421.024C465.676 431.131 471.305 439.325 478.25 439.325Z" fill="#1C1C1C" stroke="#1D1D1D" stroke-miterlimit="10"/>
<g opacity="0.2" style="mix-blend-mode:color-burn">
<path d="M413.578 471.937C413.703 479.094 430.577 484.882 451.386 484.882C472.195 484.882 489.069 479.094 489.194 471.937H413.578Z" fill="#314C9B"/>
</g>
<path d="M366.284 518.091C384.591 518.091 399.432 502.149 399.432 482.483C399.432 462.817 384.591 446.874 366.284 446.874C347.977 446.874 333.136 462.817 333.136 482.483C333.136 502.149 347.977 518.091 366.284 518.091Z" fill="#314C9B"/>
<path d="M535.333 520.46C553.64 520.46 568.481 504.517 568.481 484.851C568.481 465.185 553.64 449.243 535.333 449.243C517.026 449.243 502.185 465.185 502.185 484.851C502.185 504.517 517.026 520.46 535.333 520.46Z" fill="#314C9B"/>
<g opacity="0.2" style="mix-blend-mode:color-burn">
<path d="M327.672 671.571C327.672 670.711 327.71 669.861 327.772 669.022C322.173 672.781 318.42 679.712 318.42 687.647C318.42 699.584 326.924 709.265 337.412 709.265C343.304 709.265 348.567 706.211 352.052 701.417C338.424 700.299 327.672 687.369 327.672 671.576V671.571Z" fill="#492771"/>
<path d="M327.672 671.571C327.672 670.711 327.71 669.861 327.772 669.022C322.173 672.781 318.42 679.712 318.42 687.647C318.42 699.584 326.924 709.265 337.412 709.265C343.304 709.265 348.567 706.211 352.052 701.417C338.424 700.299 327.672 687.369 327.672 671.576V671.571Z" stroke="#492770" stroke-miterlimit="10"/>
</g>
<g opacity="0.2" style="mix-blend-mode:color-burn">
<path d="M574.397 675.989C574.397 675.232 574.359 674.48 574.291 673.739C579.991 677.06 583.812 683.178 583.812 690.181C583.812 700.722 575.154 709.265 564.479 709.265C558.482 709.265 553.123 706.566 549.575 702.339C563.448 701.35 574.392 689.939 574.392 675.994L574.397 675.989Z" fill="#492771"/>
<path d="M574.397 675.989C574.397 675.232 574.359 674.48 574.291 673.739C579.991 677.06 583.812 683.178 583.812 690.181C583.812 700.722 575.154 709.265 564.479 709.265C558.482 709.265 553.123 706.566 549.575 702.339C563.448 701.35 574.392 689.939 574.392 675.994L574.397 675.989Z" stroke="#492770" stroke-miterlimit="10"/>
</g>
<g opacity="0.2" style="mix-blend-mode:color-burn">
<path d="M433.29 542.68C433.348 553.046 441.185 561.429 450.844 561.429C460.504 561.429 468.341 553.046 468.399 542.68H433.29Z" fill="#4EB375"/>
</g>
<g opacity="0.2" style="mix-blend-mode:color-burn">
<path d="M433.29 581.12C433.348 591.486 441.185 599.87 450.844 599.87C460.504 599.87 468.341 591.486 468.399 581.12H433.29Z" fill="#4EB375"/>
</g>
<g opacity="0.2" style="mix-blend-mode:color-burn">
<path d="M436.948 620.318C436.991 628.521 443.199 635.159 450.845 635.159C458.491 635.159 464.699 628.521 464.742 620.318H436.948Z" fill="#4EB375"/>
</g>
<g opacity="0.2" style="mix-blend-mode:color-burn">
<path d="M381.131 574.401C381.188 584.766 389.026 593.15 398.685 593.15C408.345 593.15 416.182 584.766 416.24 574.401H381.131Z" fill="#4EB375"/>
</g>
<g opacity="0.2" style="mix-blend-mode:color-burn">
<path d="M395.708 608.073C395.751 616.276 401.959 622.913 409.605 622.913C417.251 622.913 423.459 616.276 423.502 608.073H395.708Z" fill="#4EB375"/>
</g>
<g opacity="0.2" style="mix-blend-mode:color-burn">
<path d="M485.973 574.401C486.03 584.766 493.868 593.15 503.527 593.15C513.186 593.15 521.024 584.766 521.082 574.401H485.973Z" fill="#4EB375"/>
</g>
<g opacity="0.2" style="mix-blend-mode:color-burn">
<path d="M478.711 608.073C478.754 616.276 484.962 622.913 492.608 622.913C500.254 622.913 506.462 616.276 506.505 608.073H478.711Z" fill="#4EB375"/>
</g>
<path d="M377.434 401.904L373.379 402.064C371.619 402.136 371.068 404.649 372.612 405.555L375.43 407.213C376.192 407.661 377.146 407.435 377.659 406.678L378.896 404.86C379.749 403.603 378.877 401.847 377.434 401.904Z" fill="#314C9B"/>
<path d="M385.886 388.155L376.557 385.688C375.047 385.287 373.849 387.063 374.673 388.479L379.697 397.11C380.339 398.217 381.82 398.284 382.549 397.239L386.854 391.075C387.597 390.009 387.089 388.469 385.881 388.15L385.886 388.155Z" fill="#314C9B"/>
<path d="M391.758 371.28C390.459 369.473 388.312 370.873 388.844 373.18L391.413 384.355C391.696 385.585 392.679 386.378 393.604 386.136L398.187 384.921C399.462 384.581 399.86 382.563 398.911 381.244L391.758 371.285V371.28Z" fill="#314C9B"/>
<path d="M410.727 367.264C410.07 365.734 408.014 365.853 407.515 367.449L404.26 377.81C403.882 379.015 404.716 380.266 405.9 380.266H413.594C414.854 380.266 415.693 378.86 415.166 377.63L410.727 367.269V367.264Z" fill="#314C9B"/>
<path d="M422.72 371.63L420.371 375.261C419.575 376.497 420.395 378.181 421.795 378.181H424.144C425.103 378.181 425.874 377.346 425.874 376.322V372.691C425.874 370.868 423.688 370.132 422.72 371.63Z" fill="#314C9B"/>
<path d="M433.08 374.396L430.649 377.923C430.467 378.191 430.477 378.556 430.678 378.809L433.108 381.883C433.506 382.388 434.278 382.084 434.278 381.42V374.818C434.278 374.133 433.463 373.845 433.085 374.396H433.08Z" fill="#314C9B"/>
<path d="M524.188 402.532L528.244 402.692C530.003 402.764 530.554 405.277 529.011 406.183L526.192 407.841C525.43 408.289 524.476 408.063 523.963 407.306L522.726 405.488C521.873 404.232 522.745 402.476 524.188 402.532Z" fill="#314C9B"/>
<path d="M515.737 388.778L525.066 386.312C526.576 385.91 527.774 387.686 526.95 389.103L521.926 397.733C521.283 398.84 519.802 398.907 519.074 397.862L514.769 391.698C514.026 390.632 514.534 389.092 515.742 388.773L515.737 388.778Z" fill="#314C9B"/>
<path d="M509.859 371.908C511.158 370.101 513.306 371.502 512.774 373.809L510.204 384.983C509.921 386.214 508.939 387.007 508.014 386.765L503.431 385.549C502.156 385.21 501.758 383.191 502.707 381.873L509.859 371.914V371.908Z" fill="#314C9B"/>
<path d="M490.89 367.892C491.547 366.363 493.603 366.481 494.102 368.077L497.357 378.438C497.736 379.643 496.901 380.894 495.717 380.894H488.024C486.763 380.894 485.924 379.489 486.451 378.258L490.89 367.897V367.892Z" fill="#314C9B"/>
<path d="M478.901 372.259L481.25 375.889C482.046 377.125 481.226 378.809 479.826 378.809H477.478C476.519 378.809 475.747 377.975 475.747 376.95V373.319C475.747 371.497 477.933 370.76 478.901 372.259Z" fill="#314C9B"/>
<path d="M468.538 375.024L470.969 378.551C471.151 378.819 471.141 379.185 470.94 379.437L468.51 382.511C468.112 383.016 467.34 382.712 467.34 382.048V375.446C467.34 374.761 468.155 374.473 468.533 375.024H468.538Z" fill="#314C9B"/>
<path d="M882.706 676.91L880.391 669.923C879.71 667.281 875.568 658.759 874.269 656.586C871.048 651.204 868.785 645.159 868.013 638.753C867.951 638.233 867.884 637.708 867.807 637.188C865.142 618.397 860.9 599.926 855.128 582.016L851.216 569.869C849.98 566.038 851.293 561.764 854.452 559.544C866.46 551.104 874.437 536.222 874.437 519.27C874.437 492.967 855.238 471.643 831.553 471.643H829.674C825.096 471.643 821.433 467.662 821.381 462.745C821.381 462.714 821.381 462.683 821.381 462.652C821.112 443.511 807.158 427.78 789.934 427.208C783.822 427.007 778.079 428.681 773.132 431.755C764.355 437.209 753.54 437.209 744.763 431.755C739.816 428.681 734.073 427.007 727.961 427.208C710.733 427.78 696.778 443.511 696.515 462.652C696.515 462.683 696.515 462.714 696.515 462.745C696.457 467.662 692.795 471.643 688.222 471.643H686.343C662.657 471.643 643.458 492.967 643.458 519.27C643.458 536.269 651.478 551.187 663.544 559.616C666.746 561.851 668.064 566.182 666.784 570.044L662.94 581.63C656.914 599.787 652.619 618.598 650.131 637.754C650.098 637.996 650.069 638.238 650.04 638.475C649.254 645.03 647.02 651.225 643.765 656.766C642.514 658.893 638.042 667.358 637.375 669.928L635.204 676.478C630.626 690.284 635.836 705.959 647.653 712.606C649.11 713.425 650.625 714.095 652.183 714.594C660.025 717.092 668.079 714.857 673.869 709.409C676.434 706.994 680.14 706.633 683.16 708.332C683.212 708.363 683.27 708.394 683.323 708.425L683.855 708.724C692.407 713.497 701.845 715.985 711.418 715.985H807.177C816.707 715.985 826.107 713.518 834.63 708.786L834.741 708.724C834.88 708.647 835.014 708.569 835.153 708.492C838.154 706.782 841.835 707.148 844.405 709.532C850.186 714.893 858.177 717.081 865.957 714.599C867.515 714.1 869.03 713.43 870.473 712.612C882.116 706.015 887.231 690.541 882.716 676.921L882.706 676.91Z" fill="#44B070"/>
<path d="M691.395 565.348L685.878 586.692C681.295 604.416 678.03 622.774 676.137 641.472C673.265 669.814 683.433 697.596 701.376 710.449L701.783 710.737C708.288 715.397 715.464 717.823 722.741 717.823H795.552C802.829 717.823 810.005 715.397 816.51 710.737C834.649 697.74 844.817 669.516 841.663 640.921C839.635 622.579 836.409 604.55 832.022 587.068L826.721 565.94C820.772 542.232 807.292 531.068 789.22 532.927C786.248 533.23 783.304 534.44 780.351 535.857C773.76 539.008 766.79 540.682 759.748 540.682H758.444C751.359 540.682 744.341 539.029 737.692 535.918C734.687 534.513 731.686 533.313 728.68 533.035C710.666 531.377 697.454 541.912 691.4 565.348H691.395Z" fill="#DDE8B6"/>
<path d="M730.281 491.35C743.373 491.35 753.986 479.949 753.986 465.886C753.986 451.822 743.373 440.422 730.281 440.422C717.189 440.422 706.576 451.822 706.576 465.886C706.576 479.949 717.189 491.35 730.281 491.35Z" fill="white"/>
<path d="M787.594 491.35C800.686 491.35 811.299 479.949 811.299 465.886C811.299 451.822 800.686 440.422 787.594 440.422C774.503 440.422 763.89 451.822 763.89 465.886C763.89 479.949 774.503 491.35 787.594 491.35Z" fill="white"/>
<path d="M733.977 480.824C739.645 480.824 744.24 474.136 744.24 465.886C744.24 457.635 739.645 450.947 733.977 450.947C728.309 450.947 723.714 457.635 723.714 465.886C723.714 474.136 728.309 480.824 733.977 480.824Z" fill="#1C1C1C" stroke="#1D1D1D" stroke-miterlimit="10"/>
<path d="M782.369 480.824C788.037 480.824 792.632 474.136 792.632 465.886C792.632 457.635 788.037 450.947 782.369 450.947C776.7 450.947 772.105 457.635 772.105 465.886C772.105 474.136 776.7 480.824 782.369 480.824Z" fill="#1C1C1C" stroke="#1D1D1D" stroke-miterlimit="10"/>
<path d="M681.759 546.511C697.768 546.511 710.746 532.57 710.746 515.372C710.746 498.175 697.768 484.233 681.759 484.233C665.75 484.233 652.771 498.175 652.771 515.372C652.771 532.57 665.75 546.511 681.759 546.511Z" fill="#65B97B"/>
<path d="M836.116 546.918C852.126 546.918 865.104 532.976 865.104 515.779C865.104 498.581 852.126 484.64 836.116 484.64C820.107 484.64 807.129 498.581 807.129 515.779C807.129 532.976 820.107 546.918 836.116 546.918Z" fill="#65B97B"/>
<g opacity="0.2" style="mix-blend-mode:color-burn">
<path d="M649.599 677.513C649.599 676.802 649.633 676.102 649.691 675.407C644.791 678.512 641.503 684.238 641.503 690.788C641.503 700.649 648.943 708.641 658.123 708.641C663.281 708.641 667.887 706.118 670.936 702.158C659.009 701.236 649.599 690.556 649.599 677.508V677.513Z" fill="#492771"/>
<path d="M649.599 677.513C649.599 676.802 649.633 676.102 649.691 675.407C644.791 678.512 641.503 684.238 641.503 690.788C641.503 700.649 648.943 708.641 658.123 708.641C663.281 708.641 667.887 706.118 670.936 702.158C659.009 701.236 649.599 690.556 649.599 677.508V677.513Z" stroke="#492770" stroke-miterlimit="10"/>
</g>
<g opacity="0.2" style="mix-blend-mode:color-burn">
<path d="M868.833 677.513C868.833 676.802 868.799 676.102 868.742 675.407C873.641 678.512 876.929 684.238 876.929 690.788C876.929 700.649 869.489 708.641 860.31 708.641C855.152 708.641 850.545 706.118 847.496 702.158C859.423 701.236 868.833 690.556 868.833 677.508V677.513Z" fill="#492771"/>
<path d="M868.833 677.513C868.833 676.802 868.799 676.102 868.742 675.407C873.641 678.512 876.929 684.238 876.929 690.788C876.929 700.649 869.489 708.641 860.31 708.641C855.152 708.641 850.545 706.118 847.496 702.158C859.423 701.236 868.833 690.556 868.833 677.508V677.513Z" stroke="#492770" stroke-miterlimit="10"/>
</g>
<g opacity="0.2" style="mix-blend-mode:color-burn">
<path d="M743.818 555.327C743.866 564.122 750.52 571.238 758.717 571.238C766.914 571.238 773.568 564.122 773.616 555.327H743.818Z" fill="#00FF62"/>
</g>
<g opacity="0.2" style="mix-blend-mode:color-burn">
<path d="M737.361 510.918C737.433 515.001 747.064 518.307 758.938 518.307C770.812 518.307 780.442 515.001 780.514 510.918H737.361Z" fill="#00FF62"/>
</g>
<g opacity="0.2" style="mix-blend-mode:color-burn">
<path d="M743.818 582.253C743.866 591.048 750.52 598.165 758.717 598.165C766.914 598.165 773.568 591.048 773.616 582.253H743.818Z" fill="#00FF62"/>
</g>
<g opacity="0.2" style="mix-blend-mode:color-burn">
<path d="M746.92 621.229C746.958 628.191 752.222 633.825 758.717 633.825C765.213 633.825 770.476 628.191 770.514 621.229H746.925H746.92Z" fill="#00FF62"/>
</g>
<g opacity="0.2" style="mix-blend-mode:color-burn">
<path d="M699.544 582.253C699.592 591.048 706.246 598.165 714.443 598.165C722.64 598.165 729.294 591.048 729.341 582.253H699.544Z" fill="#00FF62"/>
</g>
<g opacity="0.2" style="mix-blend-mode:color-burn">
<path d="M711.916 610.833C711.954 617.795 717.218 623.428 723.713 623.428C730.209 623.428 735.472 617.795 735.51 610.833H711.921H711.916Z" fill="#00FF62"/>
</g>
<g opacity="0.2" style="mix-blend-mode:color-burn">
<path d="M788.534 582.253C788.582 591.048 795.236 598.165 803.433 598.165C811.63 598.165 818.284 591.048 818.332 582.253H788.534Z" fill="#00FF62"/>
</g>
<g opacity="0.2" style="mix-blend-mode:color-burn">
<path d="M782.369 610.833C782.407 617.795 787.671 623.428 794.166 623.428C800.662 623.428 805.925 617.795 805.964 610.833H782.374H782.369Z" fill="#00FF62"/>
</g>
<path d="M758.67 508.56C758.219 503.807 754.586 500.006 750.156 499.631C747.529 499.409 745.108 500.357 743.301 502.046C743.023 502.365 742.726 502.679 742.419 502.988C738.071 507.288 731.341 510.053 723.781 510.053C720.747 510.053 717.847 509.61 715.177 508.791C720.33 516.907 729.007 522.237 738.843 522.237C743.018 522.237 746.992 521.274 750.568 519.543C752.107 518.802 753.574 517.916 754.955 516.907C757.352 515.151 758.857 512.226 758.718 509.116C758.708 508.93 758.699 508.75 758.679 508.565L758.67 508.56Z" fill="#0F6131"/>
<path d="M793.659 510.048C786.1 510.048 779.369 507.282 775.021 502.983C774.715 502.679 774.417 502.359 774.139 502.04C772.332 500.351 769.907 499.404 767.284 499.625C762.85 500.001 759.221 503.801 758.771 508.554C758.752 508.74 758.742 508.925 758.733 509.105C758.593 512.221 760.099 515.14 762.496 516.896C763.876 517.911 765.343 518.791 766.882 519.533C770.458 521.258 774.432 522.226 778.607 522.226C788.439 522.226 797.12 516.896 802.273 508.781C799.603 509.594 796.703 510.042 793.669 510.042L793.659 510.048Z" fill="#0F6131"/>
<path d="M688.851 682.425L686.809 676.472C686.21 674.222 682.562 666.961 681.416 665.113C678.579 660.524 676.584 655.375 675.908 649.922C675.851 649.479 675.793 649.031 675.726 648.588C673.377 632.578 669.638 616.842 664.557 601.584L662.395 595.09C669.456 588.494 673.986 578.37 673.986 567.005C673.986 547.128 660.147 531.016 643.077 531.016H638.273C636.538 531.016 635.153 529.507 635.129 527.643C635.129 527.633 635.129 527.622 635.129 527.607C634.894 511.298 622.603 497.894 607.426 497.41C601.065 497.204 595.149 499.238 590.322 502.828C584.201 507.375 576.066 507.375 569.944 502.828C565.112 499.238 559.202 497.204 552.84 497.41C537.664 497.894 525.373 511.298 525.138 527.607C525.138 527.617 525.138 527.627 525.138 527.643C525.114 529.507 523.728 531.016 521.993 531.016H517.19C500.119 531.016 486.28 547.128 486.28 567.005C486.28 578.164 490.642 588.133 497.488 594.735L495.254 601.249C489.947 616.718 486.165 632.743 483.97 649.062C483.941 649.268 483.917 649.474 483.888 649.68C483.193 655.267 481.228 660.545 478.361 665.262C477.258 667.075 473.318 674.289 472.733 676.477L470.821 682.054C466.784 693.816 471.377 707.173 481.784 712.833C483.068 713.533 484.406 714.099 485.777 714.527C494.381 717.179 503.274 713.569 508.24 706.216C509.831 707.318 511.485 708.342 513.206 709.269L513.676 709.522C521.212 713.59 529.524 715.706 537.956 715.706H622.306C630.699 715.706 638.978 713.605 646.49 709.573L646.586 709.522C648.364 708.559 650.075 707.498 651.72 706.355C656.705 713.615 665.54 717.163 674.087 714.527C675.458 714.105 676.791 713.533 678.066 712.838C688.324 707.22 692.83 694.037 688.847 682.43L688.851 682.425Z" fill="#B04DFF"/>
<path d="M521.438 597.557L516.644 614.097C512.661 627.831 509.828 642.059 508.179 656.544C505.686 678.501 514.516 700.031 530.11 709.99L530.464 710.217C536.116 713.826 542.353 715.706 548.676 715.706H611.943C618.265 715.706 624.502 713.826 630.154 710.217C645.915 700.144 654.75 678.275 652.008 656.117C650.249 641.904 647.445 627.934 643.629 614.39L639.022 598.02C633.85 579.647 622.139 571.001 606.439 572.443C603.86 572.68 601.301 573.617 598.731 574.714C593.003 577.155 586.948 578.452 580.827 578.452H579.696C573.54 578.452 567.443 577.17 561.662 574.76C559.049 573.669 556.441 572.742 553.834 572.525C538.182 571.238 526.701 579.405 521.438 597.562V597.557Z" fill="#FECB4B" stroke="#EFB04B" stroke-miterlimit="10"/>
<path d="M553.959 549.363C566.007 549.363 575.775 538.871 575.775 525.928C575.775 512.985 566.007 502.493 553.959 502.493C541.91 502.493 532.143 512.985 532.143 525.928C532.143 538.871 541.91 549.363 553.959 549.363Z" fill="white" stroke="#B04DFF" stroke-miterlimit="10"/>
<path d="M606.703 549.363C618.751 549.363 628.519 538.871 628.519 525.928C628.519 512.985 618.751 502.493 606.703 502.493C594.654 502.493 584.887 512.985 584.887 525.928C584.887 538.871 594.654 549.363 606.703 549.363Z" fill="white" stroke="white" stroke-miterlimit="10"/>
<path d="M559.096 540.115C563.833 540.115 567.672 534.526 567.672 527.632C567.672 520.739 563.833 515.15 559.096 515.15C554.36 515.15 550.521 520.739 550.521 527.632C550.521 534.526 554.36 540.115 559.096 540.115Z" fill="#1C1C1C" stroke="#1D1D1D" stroke-miterlimit="10"/>
<path d="M601.751 540.115C606.487 540.115 610.327 534.526 610.327 527.632C610.327 520.739 606.487 515.15 601.751 515.15C597.014 515.15 593.175 520.739 593.175 527.632C593.175 534.526 597.014 540.115 601.751 540.115Z" fill="#1C1C1C" stroke="#1D1D1D" stroke-miterlimit="10"/>
<g opacity="0.4" style="mix-blend-mode:darken">
<path d="M512.392 584.92C523.299 584.92 532.142 575.422 532.142 563.704C532.142 551.987 523.299 542.489 512.392 542.489C501.484 542.489 492.642 551.987 492.642 563.704C492.642 575.422 501.484 584.92 512.392 584.92Z" fill="#492771"/>
<path d="M512.392 584.92C523.299 584.92 532.142 575.422 532.142 563.704C532.142 551.987 523.299 542.489 512.392 542.489C501.484 542.489 492.642 551.987 492.642 563.704C492.642 575.422 501.484 584.92 512.392 584.92Z" stroke="#492770" stroke-miterlimit="10"/>
</g>
<g opacity="0.4" style="mix-blend-mode:darken">
<path d="M648.269 584.92C659.176 584.92 668.018 575.422 668.018 563.704C668.018 551.987 659.176 542.489 648.269 542.489C637.361 542.489 628.519 551.987 628.519 563.704C628.519 575.422 637.361 584.92 648.269 584.92Z" fill="#492771"/>
<path d="M648.269 584.92C659.176 584.92 668.018 575.422 668.018 563.704C668.018 551.987 659.176 542.489 648.269 542.489C637.361 542.489 628.519 551.987 628.519 563.704C628.519 575.422 637.361 584.92 648.269 584.92Z" stroke="#492770" stroke-miterlimit="10"/>
</g>
<path fill-rule="evenodd" clip-rule="evenodd" d="M602.101 508.262C613.588 508.262 622.899 518.265 622.899 530.604C622.899 542.942 613.588 552.945 602.101 552.945C590.615 552.945 581.303 542.942 581.303 530.604C581.303 530.558 581.304 530.513 581.304 530.468H577.608C577.608 530.513 577.609 530.558 577.609 530.604C577.609 542.942 568.297 552.945 556.811 552.945C545.324 552.945 536.013 542.942 536.013 530.604C536.013 518.265 545.324 508.262 556.811 508.262C567.749 508.262 576.715 517.334 577.546 528.855H581.366C582.197 517.334 591.163 508.262 602.101 508.262ZM556.811 509.875C546.154 509.875 537.514 519.156 537.514 530.604C537.514 542.052 546.154 551.332 556.811 551.332C567.468 551.332 576.107 542.052 576.107 530.604C576.107 519.156 567.468 509.875 556.811 509.875ZM602.101 509.875C591.444 509.875 582.805 519.156 582.805 530.604C582.805 542.052 591.444 551.332 602.101 551.332C612.758 551.332 621.398 542.052 621.398 530.604C621.398 519.156 612.758 509.875 602.101 509.875Z" fill="#F9CC0E"/>
<path d="M555.43 698.073C555.43 698.073 555.353 697.894 555.334 697.863C555.348 697.909 555.449 698.124 555.43 698.073Z" fill="#EFB04B"/>
<path d="M555.583 698.543L555.549 698.46L555.631 698.656L555.583 698.543Z" fill="#EFB04B"/>
<path d="M555.535 698.557C555.688 698.884 555.525 698.496 555.587 698.608L555.621 698.68L555.506 698.414C555.515 698.46 555.583 698.644 555.535 698.557Z" fill="#EFB04B"/>
<path d="M555.189 697.858C555.247 697.986 555.232 697.97 555.213 697.894C555.209 697.878 555.204 697.873 555.199 697.863C555.199 697.863 555.199 697.863 555.189 697.858Z" fill="#EFB04B"/>
<path d="M555.209 697.948L555.161 697.831C555.127 697.754 555.113 697.744 555.089 697.688C555.113 697.754 555.146 697.826 555.209 697.948Z" fill="#EFB04B"/>
<path d="M555.31 698.193L555.291 698.141C555.276 698.11 555.272 698.1 555.31 698.193Z" fill="#EFB04B"/>
<path d="M555.252 698.038L555.29 698.146C555.315 698.198 555.363 698.306 555.276 698.105C555.319 698.203 555.276 698.105 555.252 698.038Z" fill="#EFB04B"/>
<path d="M555.282 698.084C555.32 698.156 555.344 698.197 555.387 698.315C555.378 698.264 555.272 698.033 555.282 698.084Z" fill="#EFB04B"/>
<path d="M555.689 698.903L555.736 698.995L555.689 698.883C555.712 698.939 555.641 698.801 555.689 698.903Z" fill="#EFB04B"/>
<path d="M555.089 697.796C555.122 697.868 555.175 697.98 555.218 698.072L555.185 697.99C555.161 697.944 555.137 697.904 555.089 697.801V697.796Z" fill="#EFB04B"/>
<path d="M555.219 698.074L555.266 698.197C555.266 698.197 555.252 698.151 555.219 698.074Z" fill="#EFB04B"/>
<path d="M555.478 698.556L555.372 698.301L555.478 698.562V698.556Z" fill="#EFB04B"/>
<path d="M555.061 697.8L554.989 697.636L555.095 697.887L555.061 697.8Z" fill="#EFB04B"/>
<path d="M555.056 697.841C554.998 697.708 554.95 697.616 554.912 697.534C554.917 697.559 554.965 697.677 555.008 697.785C554.984 697.723 554.998 697.739 555.051 697.846L555.056 697.841Z" fill="#EFB04B"/>
<path d="M555.075 697.934C555.061 697.903 555.037 697.842 555.013 697.781C555.027 697.811 555.042 697.857 555.075 697.934Z" fill="#EFB04B"/>
<path d="M555.239 698.172C555.22 698.131 555.167 698.018 555.143 697.976L555.234 698.172H555.239Z" fill="#EFB04B"/>
<path d="M555.239 698.179C555.239 698.179 555.229 698.167 555.229 698.162C555.229 698.162 555.234 698.167 555.245 698.179H555.239Z" fill="#EFB04B"/>
<path d="M555.242 698.172C555.258 698.201 555.253 698.195 555.242 698.172Z" fill="#EFB04B"/>
<path d="M555.377 698.393C555.425 698.506 555.468 698.629 555.554 698.794C555.497 698.655 555.449 698.563 555.377 698.393Z" fill="#EFB04B"/>
<path d="M555.358 698.414L555.387 698.455C555.362 698.404 555.329 698.326 555.305 698.27L555.358 698.414Z" fill="#EFB04B"/>
<path d="M555.382 698.481L555.358 698.414L555.349 698.399L555.382 698.481Z" fill="#EFB04B"/>
<path d="M555.171 698.115C555.205 698.202 555.205 698.212 555.209 698.228C555.233 698.263 555.243 698.284 555.248 698.279C555.219 698.217 555.171 698.105 555.171 698.115Z" fill="#EFB04B"/>
<path d="M555.214 698.162C555.214 698.162 555.214 698.167 555.214 698.173C555.224 698.189 555.224 698.195 555.214 698.162Z" fill="#EFB04B"/>
<path d="M555.171 698.244C555.171 698.244 555.181 698.271 555.19 698.281C555.186 698.271 555.181 698.26 555.176 698.244H555.171Z" fill="#EFB04B"/>
<path d="M555.266 698.316C555.285 698.352 555.266 698.305 555.242 698.239C555.247 698.259 555.252 698.275 555.252 698.275C555.266 698.3 555.271 698.321 555.271 698.311L555.266 698.316Z" fill="#EFB04B"/>
<path d="M555.103 698.033C555.122 698.074 555.141 698.105 555.155 698.14C555.127 698.079 555.079 697.982 555.103 698.033Z" fill="#EFB04B"/>
<path d="M555.191 698.122C555.191 698.122 555.191 698.117 555.191 698.111C555.171 698.068 555.181 698.09 555.191 698.122Z" fill="#EFB04B"/>
<path d="M555.189 698.121C555.199 698.151 555.223 698.197 555.242 698.243C555.237 698.228 555.228 698.202 555.218 698.177C555.213 698.161 555.199 698.141 555.194 698.121H555.189Z" fill="#EFB04B"/>
<path d="M555.736 699.521C555.654 699.336 555.583 699.166 555.683 699.356C555.626 699.217 555.348 698.615 555.189 698.28C555.228 698.363 555.261 698.435 555.3 698.548C555.348 698.646 555.424 698.775 555.491 698.945C555.525 699.042 555.453 698.883 555.405 698.79C555.511 699.017 555.544 699.13 555.698 699.465L555.654 699.341C555.678 699.393 555.712 699.48 555.736 699.526V699.521Z" fill="#EFB04B"/>
<path d="M555.209 698.289L555.2 698.263C555.181 698.232 555.147 698.161 555.075 698.023C555.109 698.115 555.142 698.181 555.166 698.243L555.19 698.258L555.2 698.283L555.209 698.289Z" fill="#EFB04B"/>
<path d="M555.214 698.259C555.3 698.46 555.334 698.547 555.434 698.763C555.434 698.742 555.367 698.593 555.329 698.506C555.338 698.563 555.281 698.393 555.219 698.285C555.204 698.249 555.204 698.239 555.204 698.228C555.19 698.208 555.175 698.177 555.156 698.141C555.156 698.141 555.156 698.151 555.161 698.151C555.171 698.177 555.18 698.193 555.171 698.177C555.185 698.203 555.195 698.229 555.204 698.254C555.18 698.213 555.18 698.203 555.171 698.177C555.171 698.167 555.161 698.157 555.156 698.146L555.19 698.264C555.204 698.29 555.209 698.285 555.204 698.254L555.214 698.259Z" fill="#EFB04B"/>
<path d="M555.743 699.224C555.743 699.224 555.728 699.192 555.723 699.176C555.733 699.203 555.743 699.219 555.743 699.224Z" fill="#EFB04B"/>
<path d="M555.679 699.108C555.67 699.078 555.631 699 555.646 699.021C555.675 699.078 555.689 699.119 555.718 699.18C555.694 699.129 555.66 699.031 555.607 698.939L555.617 698.964C555.579 698.898 555.459 698.656 555.449 698.625C555.531 698.805 555.593 698.928 555.675 699.103L555.679 699.108Z" fill="#EFB04B"/>
<path d="M555.469 698.733L555.502 698.836L555.589 699.004L555.541 698.902C555.565 698.938 555.507 698.815 555.469 698.733Z" fill="#EFB04B"/>
<path d="M555.122 698.145L555.031 697.935L555.156 698.238L555.122 698.145Z" fill="#EFB04B"/>
<path d="M555.118 698.182L555.036 697.997L555.084 698.11L555.118 698.182Z" fill="#EFB04B"/>
<path d="M555.285 700.906L555.305 700.96C555.305 700.96 555.29 700.922 555.285 700.906Z" fill="#EFB04B"/>
<path d="M555.315 700.906L555.276 700.814C555.295 700.865 555.315 700.901 555.315 700.906Z" fill="#EFB04B"/>
<path d="M554.753 698.397C554.672 698.228 554.543 697.967 554.638 698.172L554.729 698.372C554.715 698.336 554.729 698.356 554.753 698.397Z" fill="#EFB04B"/>
<path d="M555.036 699.732C555.036 699.732 555.056 699.773 555.065 699.794C555.036 699.727 555.007 699.66 554.983 699.598C555.003 699.64 555.017 699.686 555.036 699.732Z" fill="#EFB04B"/>
<path d="M555.409 700.566L555.343 700.443C555.367 700.489 555.386 700.53 555.409 700.566Z" fill="#EFB04B"/>
<path d="M555.242 701.19L555.333 701.395C555.333 701.395 555.29 701.287 555.242 701.19Z" fill="#EFB04B"/>
<path d="M554.998 698.337C554.96 698.26 554.94 698.229 554.931 698.224C554.988 698.337 555.07 698.507 554.998 698.337Z" fill="#EFB04B"/>
<path d="M554.326 698.769C554.34 698.805 554.359 698.846 554.378 698.892C554.364 698.856 554.35 698.821 554.326 698.769Z" fill="#EFB04B"/>
<path d="M554.917 698.228C554.917 698.228 554.931 698.259 554.941 698.274C554.926 698.238 554.921 698.213 554.931 698.223C554.888 698.141 554.86 698.09 554.917 698.228Z" fill="#EFB04B"/>
<path d="M554.673 701.288C554.673 701.288 554.668 701.272 554.658 701.262C554.673 701.288 554.673 701.294 554.673 701.288Z" fill="#EFB04B"/>
<path d="M553.608 699.336C553.608 699.336 553.608 699.32 553.608 699.315C553.598 699.3 553.598 699.305 553.608 699.336Z" fill="#EFB04B"/>
<path d="M555.396 698.914C555.396 698.914 555.419 698.965 555.438 699.011C555.415 698.965 555.405 698.934 555.396 698.914Z" fill="#EFB04B"/>
<path d="M555.454 699.495C555.474 699.538 555.469 699.527 555.454 699.495Z" fill="#EFB04B"/>
<path d="M555.065 698.213C555.065 698.213 555.041 698.167 555.031 698.157C555.041 698.172 555.051 698.193 555.065 698.213Z" fill="#EFB04B"/>
<path d="M555.022 698.121L555.032 698.137C555.017 698.1 555.007 698.079 555.022 698.121Z" fill="#EFB04B"/>
<path d="M555.018 698.136C555.018 698.136 555.022 698.136 555.032 698.157C555.027 698.141 555.018 698.131 555.018 698.126C555.018 698.126 555.018 698.136 555.018 698.141V698.136Z" fill="#EFB04B"/>
<path d="M554.695 700.608C554.695 700.608 554.69 700.597 554.686 700.587C554.719 700.675 554.714 700.659 554.695 700.608Z" fill="#EFB04B"/>
<path d="M555.611 700.532C555.611 700.532 555.611 700.527 555.611 700.521C555.611 700.521 555.611 700.521 555.611 700.515L555.622 700.532H555.611Z" fill="#EFB04B"/>
<path d="M555.67 700.684C555.559 700.432 555.579 700.463 555.607 700.514L555.339 699.938L555.67 700.689V700.684Z" fill="#EFB04B"/>
<path d="M555.253 700.994L555.344 701.169C555.469 701.473 555.416 701.375 555.536 701.622C555.253 700.994 555.536 701.54 555.253 700.912L555.32 701.04C555.32 701.04 555.334 701.071 555.33 701.066C555.478 701.36 555.133 700.608 555.186 700.69C555.215 700.736 555.258 700.824 555.286 700.901L555.224 700.742C555.224 700.742 555.282 700.86 555.272 700.85V700.793V700.814C555.229 700.716 555.167 700.556 555.138 700.494C555.181 700.582 555.167 700.561 555.205 700.639L555.143 700.484C555.219 700.644 555.286 700.809 555.267 700.788C555.56 701.411 555.205 700.628 555.387 700.984L555.416 701.066C555.584 701.421 555.531 701.287 555.641 701.504C555.588 701.39 555.368 700.953 555.306 700.793C555.33 700.839 555.344 700.86 555.291 700.731C555.392 700.953 555.373 700.896 555.373 700.881L555.507 701.179C555.473 701.092 555.406 700.937 555.349 700.803C555.368 700.829 555.473 701.056 555.564 701.251C555.598 701.293 555.387 700.886 555.378 700.824C555.44 700.932 555.392 700.809 555.325 700.623C555.378 700.721 555.406 700.803 555.445 700.891L555.344 700.649C555.344 700.649 555.382 700.726 555.397 700.762C555.358 700.67 555.262 700.469 555.234 700.381C555.09 700.052 555.469 700.85 555.31 700.474C555.349 700.556 555.392 700.654 555.445 700.772C555.349 700.52 555.378 700.587 555.239 700.258L555.334 700.448C555.224 700.232 555.114 699.964 555.028 699.743C554.975 699.634 554.932 699.542 554.908 699.501L554.85 699.336C554.874 699.382 554.917 699.485 554.975 699.609C554.965 699.583 554.956 699.557 554.946 699.537C554.999 699.645 555.076 699.815 555.147 699.985C555.119 699.928 555.09 699.866 555.061 699.804C555.138 699.985 555.229 700.185 555.306 700.361C555.291 700.324 555.282 700.294 555.272 700.278C555.291 700.33 555.31 700.371 555.325 700.402C555.339 700.433 555.31 700.366 555.277 700.288L555.43 700.618L555.373 700.484L555.483 700.68C555.344 700.34 555.133 699.846 555.09 699.701C555.195 699.943 555.267 700.098 555.397 700.386C555.253 700.088 555.44 700.525 555.402 700.469C555.421 700.5 555.483 700.633 555.502 700.685L555.397 700.402C555.502 700.639 555.478 700.577 555.531 700.67C555.315 700.206 555.406 700.355 555.349 700.206C555.421 700.361 555.493 700.52 555.464 700.489C555.632 700.834 555.229 699.938 555.373 700.232C555.373 700.232 555.358 700.211 555.397 700.294C555.339 700.155 555.397 700.258 555.459 700.391C555.497 700.443 555.502 700.376 555.33 699.979C555.354 700.031 555.545 700.453 555.579 700.536L555.004 699.197C555.157 699.537 555.531 700.335 555.603 700.536C555.627 700.582 555.656 700.633 555.612 700.515C555.588 700.469 555.387 700.031 555.373 699.995C555.55 700.366 555.469 700.191 555.627 700.51C555.588 700.438 555.354 699.907 555.368 699.923C555.402 700 555.608 700.448 555.627 700.505L555.406 699.979C555.445 700.077 555.608 700.422 555.675 700.567C555.627 700.464 555.689 700.566 555.675 700.515L555.612 700.397C555.665 700.469 555.296 699.655 555.325 699.676C555.373 699.784 555.622 700.34 555.66 700.402C555.545 700.134 555.095 699.109 555.013 698.898L555.085 699.047L555.018 698.867C555.195 699.274 555.56 700.124 555.699 700.458C555.761 700.577 555.78 700.639 555.785 700.618C555.852 700.757 555.881 700.839 555.881 700.845L555.943 700.927C555.799 700.618 555.819 700.608 555.699 700.35L555.823 700.685C555.68 700.376 555.435 699.794 555.473 699.84C555.531 699.964 555.723 700.397 555.771 700.5C555.723 700.391 555.689 700.288 555.727 700.361L555.795 700.53C555.857 700.644 555.622 700.113 555.766 700.402C555.78 700.422 555.958 700.798 555.876 700.613C555.708 700.263 555.21 699.161 555.095 698.893C555.109 698.919 555.267 699.222 555.349 699.398C555.483 699.676 555.641 700.067 555.756 700.304C555.718 700.216 555.675 700.113 555.66 700.077C555.699 700.149 555.78 700.34 555.771 700.299C555.627 699.985 555.799 700.319 555.656 700.031C555.622 699.938 555.694 700.093 555.694 700.072C555.598 699.871 555.387 699.372 555.354 699.279C555.392 699.362 555.44 699.465 555.459 699.511C555.488 699.531 555.56 699.671 555.574 699.665C555.608 699.743 555.66 699.83 555.718 699.969C555.694 699.913 555.646 699.804 555.651 699.794C555.785 700.062 555.66 699.84 555.814 700.165C555.732 699.979 555.708 699.907 555.665 699.789C555.536 699.506 555.627 699.743 555.67 699.861C555.493 699.47 555.32 699.058 555.253 698.867C555.219 698.764 555.373 699.114 555.349 699.063C555.401 699.119 555.056 698.373 555.205 698.641C555.325 698.888 555.43 699.135 555.512 699.315C555.545 699.413 555.425 699.166 555.425 699.176L555.488 699.289C555.521 699.372 555.545 699.439 555.507 699.372C555.612 699.593 555.564 699.398 555.675 699.593C555.641 699.506 555.608 699.418 555.56 699.32L555.569 699.356C555.473 699.161 555.454 699.073 555.406 698.986C555.349 698.841 555.258 698.615 555.32 698.723L555.449 699.006C555.411 698.924 555.368 698.841 555.402 698.929C555.349 698.8 555.593 699.305 555.425 698.929L555.33 698.738C555.272 698.594 555.143 698.285 555.195 698.373C555.066 698.095 555.21 698.404 555.052 698.079C555.243 698.486 555.023 698.079 555.224 698.496C555.047 698.121 555.138 698.342 554.984 698.023C555.028 698.115 555.071 698.198 555.042 698.157C555.056 698.182 555.071 698.218 555.076 698.239C555.076 698.239 555.076 698.239 555.076 698.234C555.076 698.234 555.076 698.239 555.08 698.244C555.09 698.26 555.085 698.26 555.08 698.244C555.099 698.285 555.123 698.332 555.147 698.383C555.243 698.599 555.224 698.599 555.272 698.713C555.248 698.671 555.224 698.605 555.176 698.507L555.243 698.677C555.147 698.471 555.076 698.337 555.028 698.208H555.013C554.956 698.09 554.927 698.048 554.96 698.136C554.937 698.095 555.052 698.373 554.984 698.208L555.028 698.347L555.004 698.296C554.975 698.275 555.128 698.656 554.941 698.29C554.96 698.347 554.984 698.414 554.951 698.357L554.869 698.177C554.893 698.244 554.769 698.007 554.85 698.198C554.625 697.719 554.774 698.11 554.721 698.028L554.826 698.265C554.826 698.265 554.836 698.326 554.869 698.424L554.965 698.63C555.032 698.805 554.879 698.496 554.874 698.522C554.841 698.44 554.85 698.46 554.874 698.507C554.644 698.048 554.994 698.867 554.826 698.532C554.855 698.61 554.841 698.584 554.817 698.532C554.817 698.532 554.817 698.532 554.817 698.522C554.798 698.486 554.778 698.445 554.764 698.414C554.788 698.466 554.807 698.507 554.817 698.522C554.817 698.527 554.821 698.558 554.841 698.61L554.74 698.388C554.74 698.388 554.74 698.388 554.74 698.393C554.697 698.311 554.783 698.502 554.865 698.666C554.879 698.702 554.898 698.749 554.922 698.805C554.754 698.445 554.965 698.934 554.788 698.553C554.869 698.744 554.831 698.702 555.008 699.099C554.984 699.047 554.975 699.022 554.975 699.022C554.951 698.98 554.927 698.939 554.975 699.047L554.845 698.764L555.008 699.15C554.922 698.98 554.874 698.883 554.783 698.661C554.922 699.006 554.831 698.795 554.965 699.135L554.884 698.95C554.884 698.95 554.989 699.207 554.917 699.058C554.75 698.713 554.845 699.037 554.673 698.723C554.922 699.259 554.553 698.486 554.74 698.908C554.682 698.78 554.644 698.713 554.596 698.599C554.639 698.733 554.486 698.409 554.635 698.764C554.577 698.635 554.553 698.574 554.515 698.502C554.524 698.527 554.563 698.615 554.524 698.538C554.491 698.46 554.476 698.429 554.452 698.373C554.452 698.399 554.625 698.795 554.793 699.166C554.706 698.996 554.716 699.022 554.821 699.264C554.764 699.145 554.702 699.022 554.692 698.97C554.678 698.955 554.582 698.805 554.716 699.104C554.682 699.032 554.702 699.083 554.716 699.12C554.697 699.109 554.682 699.083 554.687 699.114L554.711 699.161C554.869 699.521 554.74 699.243 554.75 699.289L554.735 699.253C554.601 699.006 554.783 699.382 554.63 699.099L554.73 699.32C554.946 699.799 554.587 699.047 554.658 699.238L554.721 699.362C554.788 699.526 554.409 698.723 554.376 698.666C554.356 698.625 554.347 698.599 554.337 698.569C554.193 698.296 554.467 698.862 554.486 698.934C554.414 698.78 554.309 698.532 554.285 698.507C554.222 698.383 554.495 699.027 554.347 698.733C554.404 698.852 554.462 698.97 554.495 699.068C554.505 699.114 554.265 698.62 554.433 699.006C554.419 698.975 554.404 698.944 554.39 698.914C554.428 699.017 554.443 699.089 554.534 699.295C554.179 698.532 554.663 699.686 554.342 698.98V699.027L554.309 698.955C554.275 698.914 554.347 699.089 554.419 699.259C554.395 699.212 554.366 699.145 554.352 699.109C554.27 698.975 554.28 699.006 554.424 699.367L554.318 699.14C554.376 699.274 554.131 698.795 554.232 699.073C554.222 699.047 554.198 699.001 554.189 698.97C554.289 699.248 553.853 698.357 554.222 699.197L554.304 699.408C554.352 699.465 554.467 699.773 554.534 699.907C554.548 699.959 554.404 699.665 554.39 699.619L554.409 699.66C554.213 699.223 554.318 699.516 554.184 699.223C554.16 699.264 554.021 699.037 553.978 699.037L554.136 699.372L554.117 699.356C554.078 699.279 553.992 699.094 554.007 699.104C553.915 698.914 554.064 699.274 554.098 699.346C554.021 699.217 553.925 698.95 553.915 698.944V698.975L553.939 699.017C553.997 699.156 554.064 699.305 554.045 699.295C554.007 699.228 553.949 699.089 553.939 699.073C553.93 699.047 553.92 699.037 553.93 699.063L553.901 699.042L554.026 699.305C554.078 699.439 554.007 699.3 554.15 699.598C553.93 699.135 554.026 699.459 553.954 699.315C554.035 699.516 554.026 699.516 554.002 699.495C554.031 699.552 554.17 699.851 554.141 699.82C553.863 699.197 554.002 699.557 553.791 699.114C553.93 699.408 553.8 699.202 553.997 699.614C553.968 699.568 553.891 699.382 553.82 699.238C553.911 699.485 553.709 699.104 553.724 699.197C553.762 699.279 553.82 699.403 553.872 699.526L553.676 699.125C553.69 699.166 553.887 699.598 553.748 699.32C553.781 699.387 553.829 699.49 553.839 699.516C553.613 699.14 553.896 699.887 553.518 699.166C553.594 699.32 553.599 699.336 553.594 699.346C553.613 699.382 553.685 699.547 553.738 699.655L553.58 699.356C553.714 699.665 553.57 699.387 553.7 699.681L553.681 699.624C553.829 699.974 554.04 700.386 554.241 700.829C554.074 700.433 554.529 701.401 554.289 700.829C554.333 700.917 554.352 700.973 554.4 701.076C554.318 700.886 554.304 700.845 554.352 700.922L554.371 700.968C554.371 700.912 554.467 701.092 554.548 701.205L554.448 700.989C554.467 701.015 554.5 701.081 554.524 701.138C554.38 700.803 554.5 701.128 554.342 700.757C554.553 701.2 554.385 700.742 554.62 701.246C554.63 701.246 554.5 700.994 554.51 700.994L554.572 701.128L554.495 700.948C554.515 700.973 554.596 701.143 554.649 701.262C554.639 701.246 554.658 701.298 554.663 701.308C554.745 701.468 554.658 701.241 554.682 701.293L554.635 701.21C554.601 701.071 554.706 701.236 554.606 700.942L554.558 700.839C554.486 700.639 554.625 700.948 554.601 700.85L554.611 700.875C554.567 700.772 554.548 700.716 554.558 700.726C554.606 700.85 554.673 700.958 554.73 701.092C554.654 700.875 554.668 700.927 554.505 700.536L554.587 700.706C554.519 700.546 554.481 700.469 554.472 700.417C554.529 700.566 554.596 700.675 554.678 700.875C554.869 701.241 554.534 700.479 554.793 701.025C554.587 700.546 554.658 700.767 554.615 700.664C554.539 700.51 554.462 700.304 554.491 700.35C554.5 700.355 554.778 700.953 554.788 700.937C554.788 700.937 554.802 700.973 554.797 700.968C554.86 701.087 554.735 700.798 554.831 700.989C554.706 700.7 554.85 700.999 554.682 700.633L554.706 700.726C554.673 700.628 554.486 700.196 554.591 700.397C554.625 700.469 554.663 700.572 554.687 700.628C554.74 700.736 554.663 700.551 554.716 700.659C554.879 701.025 554.735 700.747 554.855 701.03C554.932 701.184 554.75 700.757 554.927 701.154C554.706 700.644 554.97 701.21 554.807 700.819L554.908 701.04C554.893 701.004 554.85 700.901 554.855 700.901L554.98 701.19C554.879 700.942 555.095 701.396 555.042 701.257C555.028 701.272 554.917 700.994 554.836 700.839C554.726 700.536 555.109 701.406 555.085 701.287C555.095 701.318 555.013 701.164 554.97 701.056C554.994 701.097 555.037 701.179 555.095 701.293C555.09 701.241 554.989 701.066 554.937 700.927C555.061 701.19 554.893 700.814 554.865 700.726L554.965 700.948C555.047 701.081 554.759 700.479 554.855 700.644L554.989 700.958L554.96 700.875L555.076 701.128C554.999 700.932 555.023 700.984 555.066 701.051C554.994 700.896 554.884 700.644 554.889 700.633C554.956 700.762 554.98 700.85 554.98 700.809C555.042 700.948 555.119 701.128 555.018 700.922C555.052 700.994 555.08 701.061 555.109 701.133C555.186 701.282 555.138 701.159 555.143 701.154C555.138 701.148 555.128 701.133 555.114 701.102L554.989 700.783C555.028 700.865 555.056 700.932 555.085 700.999C555.076 700.973 555.032 700.87 555.028 700.85C555.109 701.03 555.195 701.22 555.224 701.308L555.147 701.097C555.186 701.174 555.253 701.308 555.282 701.375C555.339 701.478 555.143 701.009 555.219 701.148C555.205 701.112 555.191 701.076 555.181 701.051C555.21 701.087 555.32 701.303 555.219 701.051L555.373 701.37C555.349 701.293 555.176 700.963 555.138 700.834C555.104 700.726 555.267 701.107 555.315 701.2C555.248 701.035 555.104 700.695 555.239 700.953C555.262 701.015 555.239 700.968 555.248 700.994H555.253ZM555.31 700.788C555.33 700.834 555.392 700.984 555.33 700.85C555.215 700.592 555.272 700.716 555.31 700.788ZM555.253 700.155C555.286 700.232 555.267 700.196 555.224 700.113C555.219 700.093 555.224 700.103 555.253 700.155ZM555.066 698.326C555.066 698.326 555.066 698.332 555.066 698.337C555.023 698.254 555.037 698.285 555.066 698.326ZM555.119 698.419C555.104 698.388 555.09 698.357 555.076 698.326C555.099 698.383 555.099 698.388 555.09 698.373C555.119 698.429 555.138 698.471 555.119 698.419ZM553.978 699.125L554.007 699.181C554.031 699.248 554.007 699.192 553.978 699.125Z" fill="#EFB04B"/>
<path d="M555.367 700.468C555.348 700.432 555.329 700.391 555.31 700.35C555.324 700.386 555.343 700.432 555.367 700.468Z" fill="#EFB04B"/>
<path d="M555.229 701.154C555.233 701.17 555.238 701.18 555.248 701.196L555.233 701.159L555.229 701.154Z" fill="#EFB04B"/>
<path d="M555.808 700.401C555.789 700.37 555.77 700.329 555.751 700.288C555.775 700.345 555.799 700.386 555.808 700.401Z" fill="#EFB04B"/>
<path d="M555.008 698.007L555.027 698.069C555.027 698.069 555.051 698.105 555.065 698.14C555.041 698.089 555.008 698.012 555.008 698.007Z" fill="#EFB04B"/>
<path d="M555.693 699.356C555.683 699.33 555.693 699.356 555.683 699.325L555.636 699.223C555.636 699.223 555.669 699.315 555.693 699.356Z" fill="#EFB04B"/>
<path d="M555.347 698.743C555.433 698.928 555.409 698.866 555.4 698.825C555.28 698.564 555.318 698.651 555.352 698.743H555.347Z" fill="#EFB04B"/>
<path d="M555.396 698.821C555.396 698.821 555.396 698.806 555.396 698.816C555.347 698.707 555.386 698.795 555.396 698.821Z" fill="#EFB04B"/>
<path d="M555.079 698.284C555.103 698.33 554.974 698.043 555.007 698.12C554.902 697.88 555.122 698.417 555.079 698.284Z" fill="#EFB04B"/>
<path d="M555.636 699.36L555.525 699.13L555.607 699.319L555.636 699.36Z" fill="#EFB04B"/>
<path d="M555.516 699.212L555.554 699.273C555.535 699.232 555.526 699.212 555.521 699.191C555.512 699.186 555.488 699.145 555.521 699.212H555.516Z" fill="#EFB04B"/>
<path d="M555.521 699.193C555.521 699.193 555.521 699.193 555.511 699.15C555.511 699.15 555.511 699.161 555.521 699.193Z" fill="#EFB04B"/>
<path d="M555.654 699.439L555.631 699.393L555.616 699.377L555.654 699.439Z" fill="#EFB04B"/>
<path d="M555.41 699.212L555.429 699.284C555.463 699.367 555.487 699.413 555.478 699.377C555.453 699.32 555.444 699.289 555.405 699.212H555.41Z" fill="#EFB04B"/>
<path d="M555.727 699.834C555.703 699.788 555.679 699.737 555.646 699.66L555.775 699.947L555.727 699.834Z" fill="#EFB04B"/>
<path d="M555.731 699.913C555.765 699.995 555.823 700.148 555.827 700.123C555.794 700.046 555.77 699.974 555.731 699.913Z" fill="#EFB04B"/>
<path d="M555.439 699.617V699.612L555.224 699.14L555.439 699.617Z" fill="#EFB04B"/>
<path d="M555.837 700.802C555.899 700.91 555.707 700.51 555.779 700.648C555.731 700.535 555.722 700.535 555.679 700.438C555.727 700.556 555.693 700.494 555.837 700.802Z" fill="#EFB04B"/>
<path d="M555.679 700.443C555.679 700.443 555.665 700.402 555.65 700.371C555.66 700.402 555.67 700.422 555.679 700.443Z" fill="#EFB04B"/>
<path d="M553.469 699.093L553.416 699.001L553.493 699.154L553.469 699.093Z" fill="#EFB04B"/>
<path d="M553.613 699.448L553.474 699.15L553.593 699.422C553.593 699.422 553.579 699.381 553.613 699.448Z" fill="#EFB04B"/>
<path d="M555.603 701.384L555.57 701.312C555.531 701.236 555.531 701.231 555.521 701.22L555.603 701.384Z" fill="#EFB04B"/>
<path d="M555.41 701.203L555.415 701.208L555.29 700.942L555.41 701.203Z" fill="#EFB04B"/>
<path d="M555.491 701.591C555.491 701.591 555.477 701.539 555.482 701.55C555.496 701.601 555.333 701.257 555.491 701.591Z" fill="#EFB04B"/>
<path d="M567.299 702.94C567.299 702.94 567.429 703.079 567.453 703.105C567.424 703.069 567.26 702.899 567.299 702.94Z" fill="#EFB04B"/>
<path d="M566.983 702.59L567.041 702.651L566.901 702.498L566.983 702.59Z" fill="#EFB04B"/>
<path d="M566.992 702.585C566.748 702.328 567.03 702.631 566.939 702.539L566.882 702.482L567.074 702.692C567.045 702.656 566.915 702.518 566.987 702.59L566.992 702.585Z" fill="#EFB04B"/>
<path d="M567.52 703.142C567.423 703.038 567.438 703.054 567.491 703.111C567.501 703.121 567.505 703.126 567.515 703.137C567.515 703.137 567.515 703.137 567.52 703.142Z" fill="#EFB04B"/>
<path d="M567.462 703.074L567.543 703.167C567.601 703.228 567.611 703.238 567.654 703.279C567.611 703.228 567.553 703.172 567.462 703.074Z" fill="#EFB04B"/>
<path d="M567.289 702.884L567.323 702.926C567.323 702.926 567.358 702.962 567.289 702.884Z" fill="#EFB04B"/>
<path d="M567.396 703.002L567.324 702.92C567.285 702.879 567.204 702.796 567.352 702.951C567.28 702.874 567.352 702.951 567.4 703.002H567.396Z" fill="#EFB04B"/>
<path d="M567.362 702.966C567.309 702.91 567.275 702.874 567.193 702.786C567.227 702.822 567.396 703.007 567.362 702.966Z" fill="#EFB04B"/>
<path d="M566.742 702.312L566.671 702.235L566.752 702.322C566.714 702.281 566.819 702.388 566.742 702.312Z" fill="#EFB04B"/>
<path d="M567.596 703.202C567.543 703.146 567.457 703.053 567.395 702.987L567.452 703.048C567.486 703.084 567.519 703.12 567.596 703.202Z" fill="#EFB04B"/>
<path d="M567.39 702.981L567.304 702.884C567.304 702.884 567.332 702.92 567.39 702.981Z" fill="#EFB04B"/>
<path d="M567.021 702.595L567.204 702.795L567.017 702.59L567.021 702.595Z" fill="#EFB04B"/>
<path d="M567.606 703.203L567.726 703.332L567.543 703.136L567.606 703.203Z" fill="#EFB04B"/>
<path d="M567.587 703.177C567.683 703.285 567.755 703.357 567.817 703.418C567.798 703.398 567.716 703.305 567.64 703.223C567.683 703.27 567.668 703.259 567.587 703.172V703.177Z" fill="#EFB04B"/>
<path d="M567.529 703.105C567.529 703.105 567.596 703.177 567.639 703.223C567.615 703.197 567.586 703.162 567.529 703.105Z" fill="#EFB04B"/>
<path d="M567.333 702.915C567.367 702.945 567.449 703.032 567.482 703.068L567.338 702.915H567.333Z" fill="#EFB04B"/>
<path d="M567.329 702.91L567.339 702.921C567.339 702.921 567.334 702.921 567.323 702.91H567.329Z" fill="#EFB04B"/>
<path d="M567.335 702.911C567.318 702.894 567.313 702.888 567.335 702.911Z" fill="#EFB04B"/>
<path d="M567.156 702.728C567.074 702.641 566.988 702.549 566.863 702.415C566.964 702.523 567.031 702.595 567.156 702.728Z" fill="#EFB04B"/>
<path d="M567.15 702.719L567.116 702.683C567.155 702.724 567.212 702.786 567.25 702.827L567.15 702.719Z" fill="#EFB04B"/>
<path d="M567.103 702.668L567.151 702.719L567.16 702.73L567.103 702.668Z" fill="#EFB04B"/>
<path d="M567.389 702.965C567.327 702.899 567.323 702.894 567.313 702.878C567.285 702.848 567.27 702.832 567.266 702.832C567.308 702.883 567.389 702.97 567.389 702.96V702.965Z" fill="#EFB04B"/>
<path d="M567.349 702.927C567.349 702.927 567.344 702.922 567.339 702.916C567.323 702.899 567.323 702.899 567.349 702.927Z" fill="#EFB04B"/>
<path d="M567.323 702.874C567.323 702.874 567.304 702.853 567.294 702.848C567.304 702.858 567.308 702.864 567.318 702.874H567.323Z" fill="#EFB04B"/>
<path d="M567.242 702.807C567.213 702.776 567.247 702.817 567.295 702.863C567.28 702.848 567.271 702.837 567.271 702.832C567.252 702.812 567.237 702.796 567.242 702.801V702.807Z" fill="#EFB04B"/>
<path d="M567.462 703.033C567.433 703.002 567.405 702.971 567.381 702.951C567.429 703.002 567.5 703.074 567.462 703.033Z" fill="#EFB04B"/>
<path d="M567.381 702.956L567.386 702.962C567.422 702.996 567.401 702.979 567.381 702.956Z" fill="#EFB04B"/>
<path d="M567.38 702.955C567.38 702.955 567.323 702.894 567.294 702.858C567.303 702.868 567.318 702.889 567.342 702.909C567.351 702.919 567.366 702.935 567.38 702.95V702.955Z" fill="#EFB04B"/>
<path d="M566.394 701.869C566.528 702.014 566.652 702.147 566.504 701.993C566.604 702.101 567.045 702.575 567.295 702.837C567.237 702.776 567.18 702.714 567.103 702.631C567.031 702.554 566.93 702.451 566.811 702.317C566.743 702.24 566.859 702.369 566.93 702.441C566.763 702.261 566.691 702.178 566.441 701.916L566.528 702.008C566.489 701.967 566.427 701.9 566.394 701.864V701.869Z" fill="#EFB04B"/>
<path d="M567.28 702.832L567.295 702.853C567.295 702.853 567.371 702.935 567.477 703.047C567.41 702.976 567.362 702.925 567.319 702.873L567.299 702.858L567.28 702.837V702.832Z" fill="#EFB04B"/>
<path d="M567.294 702.851C567.15 702.692 567.088 702.626 566.93 702.456C566.939 702.467 567.05 702.59 567.112 702.656C567.078 702.615 567.193 702.744 567.275 702.831C567.299 702.856 567.308 702.867 567.313 702.872C567.332 702.892 567.352 702.913 567.38 702.944C567.38 702.944 567.375 702.939 567.371 702.933C567.352 702.913 567.342 702.903 567.352 702.913C567.332 702.892 567.313 702.872 567.299 702.851C567.328 702.882 567.337 702.892 567.352 702.913C567.356 702.918 567.366 702.928 567.375 702.939L567.299 702.851H567.294Z" fill="#EFB04B"/>
<path d="M566.551 702.08C566.551 702.08 566.575 702.107 566.585 702.118C566.565 702.096 566.556 702.086 566.551 702.08Z" fill="#EFB04B"/>
<path d="M566.638 702.173C566.638 702.173 566.714 702.26 566.7 702.24C566.657 702.193 566.628 702.163 566.58 702.111C566.618 702.152 566.686 702.224 566.757 702.301L566.738 702.281C566.791 702.332 566.973 702.527 566.992 702.547C566.863 702.409 566.767 702.306 566.638 702.168V702.173Z" fill="#EFB04B"/>
<path d="M566.93 702.471L566.858 702.394L566.729 702.261L566.805 702.343C566.776 702.312 566.868 702.409 566.925 702.476L566.93 702.471Z" fill="#EFB04B"/>
<path d="M567.395 702.95L567.549 703.114L567.333 702.879L567.395 702.95Z" fill="#EFB04B"/>
<path d="M567.381 702.925L567.515 703.073L567.434 702.981L567.381 702.925Z" fill="#EFB04B"/>
<path d="M565.863 700.986L565.822 700.942C565.822 700.942 565.847 700.97 565.863 700.986Z" fill="#EFB04B"/>
<path d="M565.846 700.979L565.912 701.05C565.874 701.009 565.85 700.984 565.846 700.979Z" fill="#EFB04B"/>
<path d="M567.429 702.843C567.553 702.976 567.75 703.181 567.601 703.022L567.453 702.863C567.477 702.894 567.462 702.873 567.429 702.843Z" fill="#EFB04B"/>
<path d="M566.59 701.853C566.59 701.853 566.561 701.823 566.547 701.808C566.595 701.864 566.643 701.91 566.686 701.955C566.657 701.925 566.624 701.889 566.59 701.853Z" fill="#EFB04B"/>
<path d="M565.985 701.2L566.081 701.302C566.047 701.266 566.014 701.236 565.985 701.2Z" fill="#EFB04B"/>
<path d="M565.727 700.791L565.578 700.633C565.578 700.633 565.655 700.715 565.727 700.791Z" fill="#EFB04B"/>
<path d="M567.352 702.842C567.41 702.904 567.434 702.93 567.443 702.935C567.357 702.848 567.232 702.709 567.352 702.842Z" fill="#EFB04B"/>
<path d="M567.419 702.662C567.395 702.631 567.362 702.6 567.328 702.565C567.352 702.59 567.381 702.621 567.419 702.662Z" fill="#EFB04B"/>
<path d="M567.443 702.93C567.443 702.93 567.419 702.904 567.409 702.894C567.433 702.92 567.452 702.945 567.443 702.935C567.543 703.042 567.505 703.002 567.443 702.935V702.93Z" fill="#EFB04B"/>
<path d="M565.928 700.834C565.928 700.834 565.938 700.845 565.948 700.856C565.928 700.834 565.928 700.834 565.928 700.834Z" fill="#EFB04B"/>
<path d="M567.438 702.405C567.438 702.405 567.449 702.416 567.449 702.422C567.459 702.434 567.459 702.434 567.438 702.405Z" fill="#EFB04B"/>
<path d="M566.868 702.364C566.868 702.364 566.829 702.322 566.796 702.286C566.829 702.322 566.853 702.348 566.868 702.364Z" fill="#EFB04B"/>
<path d="M566.534 701.944C566.508 701.915 566.503 701.909 566.534 701.944Z" fill="#EFB04B"/>
<path d="M567.386 702.915C567.386 702.915 567.421 702.952 567.431 702.963C567.421 702.952 567.406 702.936 567.386 702.915Z" fill="#EFB04B"/>
<path d="M567.457 702.987C567.457 702.987 567.447 702.977 567.442 702.971C567.466 702.998 567.481 703.013 567.457 702.987Z" fill="#EFB04B"/>
<path d="M567.448 702.977C567.448 702.977 567.443 702.977 567.434 702.961C567.443 702.972 567.453 702.982 567.458 702.988C567.458 702.988 567.453 702.982 567.448 702.977Z" fill="#EFB04B"/>
<path d="M566.279 701.309C566.279 701.309 566.289 701.32 566.294 701.325C566.229 701.256 566.239 701.267 566.279 701.309Z" fill="#EFB04B"/>
<path d="M565.914 701.19L565.919 701.196L565.93 701.202L565.914 701.19Z" fill="#EFB04B"/>
<path d="M565.809 701.071C565.991 701.267 565.967 701.246 565.928 701.205L566.355 701.657L565.809 701.071Z" fill="#EFB04B"/>
<path d="M565.827 700.927L565.693 700.788C565.477 700.551 565.554 700.634 565.367 700.433C565.827 700.927 565.41 700.489 565.871 700.984L565.775 700.881C565.775 700.881 565.751 700.855 565.755 700.86C565.535 700.623 566.086 701.221 566.019 701.148C565.981 701.112 565.914 701.04 565.861 700.979L565.971 701.102C565.971 701.102 565.88 701.009 565.89 701.015L565.923 701.056L565.909 701.04C565.981 701.118 566.091 701.241 566.139 701.293C566.072 701.221 566.091 701.241 566.034 701.179L566.144 701.303C566.024 701.174 565.909 701.051 565.928 701.066C565.468 700.572 566.043 701.19 565.77 700.906L565.712 700.845C565.449 700.567 565.545 700.67 565.382 700.494C565.468 700.587 565.794 700.932 565.909 701.056C565.875 701.02 565.856 701.004 565.947 701.102C565.784 700.927 565.823 700.968 565.832 700.984L565.616 700.752C565.679 700.819 565.789 700.937 565.885 701.045C565.861 701.025 565.693 700.845 565.554 700.69C565.516 700.654 565.823 700.979 565.861 701.025C565.775 700.937 565.861 701.035 565.99 701.174C565.914 701.097 565.856 701.03 565.794 700.963L565.966 701.148C565.966 701.148 565.909 701.087 565.88 701.056C565.947 701.128 566.096 701.287 566.153 701.354C566.393 701.612 565.803 700.984 566.072 701.277C566.01 701.21 565.938 701.133 565.856 701.045C566.034 701.241 565.986 701.184 566.22 701.447L566.077 701.298C566.24 701.473 566.431 701.679 566.59 701.854C566.666 701.936 566.738 702.014 566.772 702.044L566.887 702.173C566.853 702.137 566.777 702.055 566.685 701.957C566.705 701.978 566.719 701.993 566.738 702.014C566.657 701.926 566.532 701.792 566.412 701.663C566.455 701.71 566.503 701.756 566.546 701.808C566.417 701.663 566.268 701.509 566.144 701.37C566.168 701.396 566.192 701.421 566.201 701.432C566.168 701.396 566.134 701.36 566.11 701.334C566.086 701.308 566.134 701.36 566.192 701.421L565.947 701.164L566.043 701.267L565.89 701.107C566.129 701.37 566.489 701.756 566.585 701.869C566.407 701.679 566.297 701.56 566.086 701.334C566.312 701.571 565.995 701.231 566.043 701.277C566.019 701.251 565.918 701.143 565.885 701.107L566.086 701.329C565.914 701.143 565.957 701.19 565.885 701.118C566.225 701.483 566.11 701.365 566.211 701.478C566.096 701.354 565.981 701.231 566.01 701.257C565.751 700.984 566.407 701.689 566.187 701.457C566.187 701.457 566.201 701.473 566.144 701.411C566.244 701.519 566.163 701.437 566.062 701.329C566.019 701.287 566.053 701.329 566.34 701.643C566.302 701.602 565.995 701.267 565.933 701.205L566.896 702.25C566.647 701.983 566.057 701.354 565.918 701.2C565.885 701.164 565.842 701.118 565.928 701.215C565.962 701.251 566.288 701.596 566.307 701.622C566.029 701.329 566.158 701.463 565.923 701.215C565.976 701.272 566.364 701.689 566.35 701.679C566.292 701.617 565.966 701.267 565.928 701.226L566.307 701.638C566.24 701.566 565.986 701.293 565.875 701.174C565.952 701.257 565.866 701.169 565.904 701.21L565.995 701.303C565.933 701.246 566.527 701.88 566.508 701.864C566.431 701.777 566.024 701.344 565.976 701.293C566.173 701.504 566.911 702.302 567.059 702.467L566.949 702.348L567.074 702.487C566.781 702.168 566.168 701.504 565.928 701.241C565.837 701.148 565.794 701.102 565.803 701.112C565.698 700.999 565.645 700.942 565.64 700.932L565.569 700.865C565.799 701.112 565.794 701.112 565.986 701.318L565.751 701.061C565.976 701.303 566.393 701.756 566.355 701.715C566.264 701.617 565.947 701.277 565.875 701.195C565.952 701.277 566.024 701.36 565.966 701.298L565.847 701.164C565.76 701.071 566.149 701.488 565.928 701.257C565.914 701.241 565.631 700.942 565.77 701.087C566.029 701.365 566.834 702.23 567.031 702.441C567.011 702.42 566.781 702.178 566.652 702.039C566.446 701.823 566.168 701.514 565.99 701.329C566.053 701.396 566.129 701.478 566.153 701.504C566.101 701.447 565.962 701.298 565.986 701.329C566.216 701.576 565.962 701.308 566.182 701.54C566.249 701.612 566.134 701.488 566.144 701.504C566.292 701.663 566.652 702.05 566.714 702.122C566.657 702.06 566.58 701.978 566.542 701.941C566.518 701.921 566.412 701.813 566.407 701.813C566.35 701.751 566.283 701.679 566.182 701.576C566.22 701.622 566.302 701.705 566.307 701.71C566.105 701.499 566.278 701.674 566.038 701.416C566.173 701.56 566.22 701.617 566.307 701.71C566.513 701.931 566.35 701.751 566.268 701.658C566.556 701.967 566.853 702.292 566.983 702.436C567.05 702.513 566.796 702.24 566.839 702.281C566.786 702.23 567.337 702.822 567.126 702.601C566.944 702.405 566.762 702.209 566.633 702.07C566.566 701.993 566.753 702.194 566.743 702.184L566.657 702.091C566.594 702.024 566.551 701.972 566.604 702.029C566.441 701.854 566.566 702.003 566.412 701.844C566.475 701.911 566.537 701.978 566.609 702.055L566.585 702.024C566.733 702.178 566.786 702.245 566.858 702.317C566.959 702.431 567.122 702.606 567.035 702.518L566.829 702.297C566.892 702.364 566.954 702.431 566.892 702.359C566.983 702.456 566.609 702.06 566.877 702.353L567.021 702.508C567.126 702.621 567.342 702.858 567.275 702.791C567.481 703.013 567.251 702.765 567.491 703.023C567.189 702.704 567.505 703.033 567.194 702.698C567.472 702.997 567.313 702.822 567.553 703.08C567.486 703.007 567.424 702.94 567.457 702.977C567.438 702.956 567.414 702.925 567.395 702.91C567.395 702.91 567.395 702.91 567.4 702.915C567.4 702.915 567.395 702.91 567.39 702.904C567.381 702.894 567.376 702.889 567.39 702.904C567.361 702.874 567.323 702.832 567.285 702.791C567.126 702.621 567.136 702.626 567.055 702.539C567.088 702.575 567.131 702.621 567.208 702.704L567.088 702.57C567.242 702.734 567.342 702.837 567.428 702.935H567.438C567.524 703.033 567.558 703.069 567.496 702.997C567.529 703.033 567.328 702.812 567.448 702.94L567.357 702.837L567.395 702.879C567.395 702.879 567.146 702.601 567.424 702.894C567.385 702.853 567.342 702.801 567.385 702.848L567.52 702.987C567.476 702.935 567.654 703.126 567.52 702.977C567.874 703.358 567.601 703.054 567.668 703.121L567.496 702.935C567.496 702.935 567.457 702.889 567.39 702.817L567.237 702.652C567.112 702.518 567.347 702.765 567.333 702.745C567.39 702.807 567.376 702.791 567.337 702.755C567.683 703.121 567.093 702.482 567.347 702.745C567.313 702.704 567.294 702.683 567.347 702.745C567.347 702.745 567.347 702.745 567.357 702.755C567.385 702.781 567.414 702.817 567.438 702.843C567.4 702.801 567.371 702.771 567.357 702.755C567.357 702.755 567.337 702.729 567.299 702.688L567.462 702.863C567.462 702.863 567.462 702.863 567.462 702.858C567.524 702.92 567.385 702.776 567.261 702.642C567.232 702.611 567.203 702.58 567.165 702.534C567.428 702.817 567.079 702.436 567.361 702.74C567.222 702.59 567.261 702.626 566.973 702.317C567.011 702.359 567.031 702.379 567.031 702.379C567.064 702.415 567.098 702.446 567.016 702.359L567.222 702.58L566.944 702.276C567.074 702.41 567.146 702.487 567.304 702.662C567.059 702.395 567.213 702.559 566.973 702.297L567.107 702.441C567.107 702.441 566.925 702.24 567.035 702.359C567.294 702.631 567.079 702.389 567.318 702.637C566.92 702.214 567.496 702.827 567.194 702.498C567.289 702.595 567.342 702.652 567.419 702.74C567.328 702.637 567.572 702.894 567.313 702.616C567.409 702.719 567.452 702.765 567.505 702.822C567.486 702.801 567.424 702.734 567.481 702.791C567.539 702.853 567.558 702.874 567.601 702.92C567.587 702.899 567.299 702.59 567.031 702.302C567.16 702.436 567.141 702.42 566.963 702.225C567.055 702.317 567.146 702.42 567.174 702.451C567.189 702.467 567.309 702.585 567.093 702.353C567.15 702.41 567.112 702.369 567.083 702.343C567.098 702.353 567.117 702.374 567.098 702.353L567.064 702.317C566.805 702.034 567.007 702.256 566.978 702.22L567.007 702.25C567.198 702.451 566.916 702.153 567.136 702.379L566.973 702.204C566.623 701.828 567.184 702.42 567.05 702.276L566.959 702.178C566.839 702.05 567.438 702.688 567.481 702.734C567.51 702.765 567.529 702.786 567.553 702.812C567.764 703.028 567.342 702.585 567.294 702.529C567.409 702.652 567.587 702.843 567.611 702.863C567.706 702.961 567.242 702.456 567.462 702.693C567.371 702.601 567.285 702.503 567.218 702.431C567.189 702.395 567.558 702.786 567.28 702.487C567.304 702.513 567.328 702.539 567.352 702.559C567.28 702.482 567.237 702.426 567.083 702.266C567.644 702.868 566.815 701.967 567.333 702.523L567.309 702.492L567.361 702.549C567.4 702.585 567.275 702.451 567.15 702.317C567.184 702.353 567.232 702.405 567.261 702.436C567.366 702.544 567.347 702.523 567.093 702.24L567.261 702.42C567.165 702.312 567.529 702.698 567.337 702.487C567.357 702.508 567.39 702.544 567.414 702.57C567.222 702.353 567.889 703.064 567.275 702.405L567.126 702.24C567.079 702.194 566.863 701.957 566.757 701.849C566.724 701.808 566.944 702.044 566.973 702.081L566.944 702.05C567.261 702.395 567.059 702.168 567.28 702.4C567.27 702.379 567.452 702.559 567.472 702.57L567.222 702.302L567.237 702.317C567.294 702.379 567.433 702.523 567.419 702.513C567.558 702.662 567.304 702.384 567.251 702.328C567.352 702.431 567.539 702.642 567.548 702.647L567.529 702.626L567.5 702.595C567.4 702.487 567.294 702.369 567.309 702.384C567.361 702.436 567.462 702.549 567.472 702.559C567.491 702.58 567.496 702.585 567.481 702.565L567.505 702.585L567.309 702.374C567.213 702.271 567.323 702.384 567.098 702.147C567.443 702.513 567.227 702.271 567.337 702.384C567.198 702.23 567.198 702.23 567.218 702.245C567.174 702.204 566.954 701.967 566.983 701.993C567.438 702.482 567.184 702.204 567.51 702.549C567.294 702.317 567.462 702.487 567.15 702.158C567.189 702.194 567.318 702.338 567.428 702.456C567.256 702.266 567.548 702.575 567.496 702.503C567.438 702.441 567.342 702.343 567.256 702.245L567.558 702.565C567.529 702.534 567.213 702.194 567.424 702.415C567.371 702.364 567.299 702.281 567.28 702.261C567.577 702.565 567.055 701.988 567.611 702.57C567.496 702.446 567.481 702.436 567.481 702.431C567.452 702.4 567.333 702.271 567.251 702.184L567.476 702.42C567.251 702.178 567.467 702.4 567.251 702.168L567.289 702.209C567.035 701.936 566.724 701.607 566.403 701.257C566.69 701.566 565.971 700.803 566.383 701.246C566.316 701.174 566.278 701.133 566.206 701.051C566.345 701.2 566.374 701.231 566.312 701.169L566.278 701.133C566.307 701.174 566.168 701.03 566.072 700.932L566.235 701.102C566.235 701.102 566.163 701.025 566.12 700.984C566.364 701.246 566.134 700.994 566.403 701.287C566.077 700.937 566.393 701.287 566.019 700.891C566.019 700.891 566.206 701.092 566.201 701.092L566.101 700.984L566.23 701.123C566.23 701.123 566.081 700.968 565.995 700.876C566.005 700.886 565.971 700.85 565.966 700.839C565.847 700.716 566.005 700.886 565.966 700.845L566.029 700.912C566.12 701.015 565.981 700.881 566.182 701.102L566.259 701.185C566.398 701.339 566.173 701.097 566.235 701.169L566.216 701.148C566.292 701.231 566.326 701.272 566.316 701.262C566.23 701.164 566.144 701.076 566.043 700.973C566.192 701.138 566.158 701.102 566.441 701.406L566.316 701.272C566.431 701.396 566.489 701.457 566.522 701.493C566.417 701.375 566.331 701.287 566.187 701.133C565.909 700.839 566.46 701.437 566.057 701.004C566.403 701.38 566.254 701.21 566.326 701.287C566.441 701.411 566.585 701.566 566.546 701.53C566.537 701.524 566.101 701.056 566.105 701.061L566.081 701.035C565.99 700.942 566.201 701.164 566.053 701.015C566.264 701.241 566.038 701.004 566.307 701.293L566.249 701.226C566.316 701.303 566.633 701.643 566.475 701.478C566.422 701.421 566.35 701.344 566.312 701.298C566.23 701.215 566.364 701.354 566.283 701.267C566.014 700.979 566.225 701.2 566.024 700.979C565.909 700.855 566.216 701.19 565.923 700.876C566.292 701.272 565.875 700.829 566.153 701.133L565.99 700.958C566.014 700.984 566.091 701.066 566.086 701.066L565.88 700.839C566.057 701.03 565.722 700.675 565.818 700.783C565.818 700.773 566.014 700.989 566.129 701.118C566.34 701.354 565.708 700.67 565.779 700.757C565.755 700.731 565.88 700.86 565.952 700.937C565.918 700.901 565.856 700.839 565.77 700.747C565.799 700.788 565.938 700.922 566.034 701.03C565.837 700.819 566.11 701.118 566.173 701.185L566.01 701.009C565.904 700.901 566.35 701.375 566.22 701.241L565.995 700.994L566.053 701.061L565.866 700.86C566 701.009 565.966 700.973 565.914 700.917C566.029 701.04 566.211 701.236 566.216 701.241C566.12 701.138 566.062 701.071 566.081 701.102C565.981 700.994 565.851 700.855 566.005 701.015C565.952 700.958 565.904 700.906 565.851 700.85C565.741 700.731 565.823 700.824 565.823 700.829C565.827 700.834 565.837 700.845 565.861 700.87L566.086 701.118C566.024 701.051 565.976 700.999 565.928 700.948C565.947 700.968 566.019 701.051 566.034 701.066C565.899 700.922 565.765 700.778 565.703 700.706L565.847 700.865C565.789 700.803 565.688 700.695 565.636 700.644C565.554 700.561 565.89 700.927 565.784 700.814C565.808 700.839 565.832 700.87 565.851 700.891C565.818 700.86 565.655 700.685 565.837 700.886L565.597 700.634C565.65 700.695 565.899 700.953 565.986 701.056C566.057 701.138 565.779 700.839 565.712 700.767C565.832 700.896 566.077 701.164 565.88 700.958C565.837 700.912 565.871 700.948 565.856 700.927H565.827ZM565.914 701.066C565.88 701.03 565.775 700.917 565.871 701.02C566.057 701.221 565.966 701.128 565.914 701.066ZM566.273 701.519C566.22 701.463 566.244 701.488 566.307 701.555C566.321 701.571 566.312 701.566 566.273 701.519ZM567.328 702.837C567.328 702.837 567.328 702.837 567.318 702.827C567.381 702.894 567.357 702.868 567.328 702.837ZM567.256 702.76C567.256 702.76 567.299 702.812 567.323 702.832C567.28 702.786 567.28 702.786 567.289 702.796C567.246 702.75 567.218 702.719 567.251 702.76H567.256ZM567.385 702.482L567.342 702.436C567.294 702.384 567.342 702.431 567.385 702.482Z" fill="#EFB04B"/>
<path d="M566.053 701.277C566.081 701.308 566.11 701.339 566.143 701.374C566.115 701.344 566.086 701.313 566.053 701.277Z" fill="#EFB04B"/>
<path d="M565.75 700.825C565.741 700.814 565.731 700.804 565.722 700.793L565.75 700.825Z" fill="#EFB04B"/>
<path d="M565.896 701.241C565.896 701.241 565.948 701.297 565.981 701.328C565.943 701.287 565.91 701.251 565.896 701.241Z" fill="#EFB04B"/>
<path d="M567.524 703.069L567.481 703.022C567.481 703.022 567.453 702.992 567.429 702.966C567.467 703.007 567.524 703.063 567.524 703.069Z" fill="#EFB04B"/>
<path d="M566.498 701.993C566.498 701.993 566.498 701.993 566.522 702.019L566.598 702.1C566.598 702.1 566.531 702.029 566.503 701.993H566.498Z" fill="#EFB04B"/>
<path d="M566.978 702.487C566.838 702.338 566.887 702.389 566.911 702.42C567.103 702.626 567.041 702.559 566.978 702.487Z" fill="#EFB04B"/>
<path d="M566.916 702.426C566.996 702.512 566.931 702.442 566.916 702.426Z" fill="#EFB04B"/>
<path d="M567.342 702.863C567.309 702.827 567.521 703.054 567.463 702.992C567.636 703.182 567.251 702.76 567.342 702.863Z" fill="#EFB04B"/>
<path d="M566.522 702.003L566.696 702.184L566.556 702.039L566.522 702.003Z" fill="#EFB04B"/>
<path d="M566.656 702.127L566.608 702.075C566.637 702.106 566.652 702.122 566.666 702.137C566.671 702.142 566.709 702.178 566.656 702.122V702.127Z" fill="#EFB04B"/>
<path d="M566.667 702.142C566.667 702.142 566.667 702.142 566.696 702.174C566.696 702.174 566.691 702.163 566.667 702.142Z" fill="#EFB04B"/>
<path d="M566.475 701.947L566.509 701.984L566.524 702L566.475 701.947Z" fill="#EFB04B"/>
<path d="M566.699 702.147L566.652 702.095C566.595 702.034 566.557 701.993 566.58 702.019C566.618 702.065 566.642 702.085 566.699 702.147Z" fill="#EFB04B"/>
<path d="M566.23 701.653C566.263 701.689 566.302 701.73 566.359 701.791L566.148 701.566L566.23 701.653Z" fill="#EFB04B"/>
<path d="M566.188 701.595C566.13 701.534 566.019 701.416 566.034 701.432C566.091 701.493 566.139 701.549 566.188 701.595Z" fill="#EFB04B"/>
<path d="M566.475 701.859L566.479 701.864L566.825 702.234L566.475 701.859Z" fill="#EFB04B"/>
<path d="M565.669 700.953C565.583 700.866 565.88 701.184 565.775 701.071C565.856 701.158 565.861 701.158 565.928 701.235C565.842 701.143 565.895 701.194 565.664 700.953H565.669Z" fill="#EFB04B"/>
<path d="M565.933 701.236C565.933 701.236 565.962 701.267 565.986 701.293C565.967 701.267 565.947 701.251 565.933 701.236Z" fill="#EFB04B"/>
<path d="M567.625 702.6L567.701 702.672L567.582 702.549L567.625 702.6Z" fill="#EFB04B"/>
<path d="M567.371 702.323L567.592 702.558L567.395 702.343C567.395 702.343 567.424 702.374 567.371 702.323Z" fill="#EFB04B"/>
<path d="M565.463 700.592L565.515 700.648C565.572 700.71 565.577 700.715 565.587 700.725L565.463 700.592Z" fill="#EFB04B"/>
<path d="M565.645 700.752L565.641 700.747L565.842 700.962L565.645 700.752Z" fill="#EFB04B"/>
<path d="M565.405 700.469C565.405 700.469 565.439 700.51 565.429 700.499C565.396 700.458 565.648 700.735 565.405 700.469Z" fill="#EFB04B"/>
<g opacity="0.2" style="mix-blend-mode:color-burn">
<path d="M482.345 680.71C482.345 680.067 482.379 679.428 482.426 678.8C477.988 681.616 475.006 686.807 475.006 692.744C475.006 701.684 481.751 708.929 490.072 708.929C494.746 708.929 498.926 706.643 501.687 703.054C490.878 702.214 482.345 692.533 482.345 680.705V680.71Z" fill="#492771"/>
<path d="M482.345 680.71C482.345 680.067 482.379 679.428 482.426 678.8C477.988 681.616 475.006 686.807 475.006 692.744C475.006 701.684 481.751 708.929 490.072 708.929C494.746 708.929 498.926 706.643 501.687 703.054C490.878 702.214 482.345 692.533 482.345 680.705V680.71Z" stroke="#492770" stroke-miterlimit="10"/>
</g>
<g opacity="0.2" style="mix-blend-mode:color-burn">
<path d="M677.865 681.174C677.865 680.53 677.831 679.892 677.783 679.263C682.222 682.08 685.204 687.271 685.204 693.208C685.204 702.147 678.459 709.393 670.138 709.393C665.464 709.393 661.284 707.106 658.522 703.517C669.332 702.678 677.865 692.997 677.865 681.169V681.174Z" fill="#492771"/>
<path d="M677.865 681.174C677.865 680.53 677.831 679.892 677.783 679.263C682.222 682.08 685.204 687.271 685.204 693.208C685.204 702.147 678.459 709.393 670.138 709.393C665.464 709.393 661.284 707.106 658.522 703.517C669.332 702.678 677.865 692.997 677.865 681.169V681.174Z" stroke="#492770" stroke-miterlimit="10"/>
</g>
<path d="M566.858 587.382C566.902 595.219 572.827 601.563 580.137 601.563C587.447 601.563 593.372 595.224 593.415 587.382H566.858Z" fill="#EFB04B" stroke="#EDC34C" stroke-miterlimit="10"/>
<path d="M566.858 611.373C566.902 619.21 572.827 625.555 580.137 625.555C587.447 625.555 593.372 619.216 593.415 611.373H566.858Z" fill="#EFB04B" stroke="#EDC34C" stroke-miterlimit="10"/>
<path d="M569.624 646.106C569.658 652.311 574.351 657.332 580.137 657.332C585.923 657.332 590.616 652.311 590.649 646.106H569.624Z" fill="#EFB04B" stroke="#EDC34C" stroke-miterlimit="10"/>
<path d="M527.401 611.373C527.445 619.21 533.369 625.555 540.68 625.555C547.99 625.555 553.915 619.216 553.958 611.373H527.401Z" fill="#EFB04B" stroke="#EDC34C" stroke-miterlimit="10"/>
<path d="M538.427 636.847C538.46 643.052 543.153 648.073 548.939 648.073C554.725 648.073 559.418 643.052 559.452 636.847H538.427Z" fill="#EFB04B" stroke="#EDC34C" stroke-miterlimit="10"/>
<path d="M606.703 611.373C606.746 619.21 612.671 625.555 619.982 625.555C627.292 625.555 633.217 619.216 633.26 611.373H606.703Z" fill="#EFB04B" stroke="#EDC34C" stroke-miterlimit="10"/>
<path d="M601.21 636.847C601.244 643.052 605.937 648.073 611.722 648.073C617.508 648.073 622.201 643.052 622.235 636.847H601.21Z" fill="#EFB04B" stroke="#EDC34C" stroke-miterlimit="10"/>
<rect x="301" y="704" width="600" height="17" rx="8.5" fill="#333333"/>
</g>
<defs>
<clipPath id="clip0_22_2865">
<rect width="1139" height="992" fill="white"/>
</clipPath>
</defs>
</svg>
