<svg width="62" height="62" viewBox="0 0 62 62" fill="none" xmlns="http://www.w3.org/2000/svg">
<path d="M59.8581 38.8957C58.0607 45.1892 54.2874 50.7381 49.0953 54.7231C43.9031 58.7082 37.5673 60.9182 31.023 61.0271C24.4788 61.1359 18.073 59.1377 12.7512 55.3275C7.42942 51.5173 3.47373 46.097 1.46806 39.8667C-0.537601 33.6364 -0.486949 26.9264 1.61254 20.7271C3.71203 14.5278 7.7491 9.16786 13.1278 5.43842C18.5065 1.70899 24.9417 -0.192254 31.4836 0.0153553C38.0254 0.222965 44.3272 2.52843 49.4586 6.5914L30.5156 30.5156L59.8581 38.8957Z" fill="#0F6131"/>
<path d="M55.4555 37.5375C53.948 42.8916 50.7576 47.6184 46.3559 51.019C41.9543 54.4196 36.5752 56.3134 31.014 56.4204C25.4528 56.5274 20.0048 54.8419 15.4756 51.6131C10.9465 48.3843 7.57657 43.7837 5.8643 38.4916C4.15203 33.1995 4.18828 27.4969 5.96769 22.2269C7.7471 16.957 11.1752 12.3996 15.745 9.22872C20.3149 6.0578 25.7839 4.44168 31.3433 4.61936C36.9026 4.79704 42.2573 6.75909 46.6153 10.2154L30.5156 30.5157L55.4555 37.5375Z" fill="#06C237"/>
<circle cx="21.5912" cy="21.0155" r="2.01518" fill="#D9D9D9" style="mix-blend-mode:color-burn"/>
<circle cx="17.5608" cy="33.1066" r="4.31825" fill="#D9D9D9" style="mix-blend-mode:color-burn"/>
<circle cx="36.5612" cy="39.44" r="4.31825" fill="#D9D9D9" style="mix-blend-mode:color-burn"/>
<circle cx="25.6216" cy="45.7735" r="2.01518" fill="#D9D9D9" style="mix-blend-mode:color-burn"/>
<circle cx="34.2581" cy="12.379" r="2.01518" fill="#D9D9D9" style="mix-blend-mode:color-burn"/>
</svg>
