<svg width="344" height="378" viewBox="0 0 344 378" fill="none" xmlns="http://www.w3.org/2000/svg">
<path d="M320.193 307.469L317.408 299.3C316.589 296.216 311.618 286.247 310.055 283.71C306.188 277.418 303.471 270.348 302.548 262.859C302.47 262.251 302.388 261.637 302.3 261.028C299.103 239.059 294.004 217.465 287.073 196.522L279.643 174.073C297.675 165.408 310.251 145.873 310.251 123.16C310.251 92.408 287.197 67.478 258.759 67.478C255.851 67.478 253.66 64.8788 254.088 62.001C254.485 59.3399 254.67 56.6014 254.634 53.8062C254.279 29.0155 235.715 8.63414 212.795 7.8915C206.216 7.68006 199.961 9.06219 194.325 11.7027C179.949 18.4432 163.19 18.4432 148.819 11.7027C143.184 9.06219 136.929 7.68006 130.349 7.8915C107.429 8.62898 88.8658 29.0103 88.51 53.8062C88.4688 56.6014 88.6596 59.3399 89.0566 62.001C89.4846 64.8788 87.2931 67.478 84.3849 67.478C55.9473 67.478 32.8929 92.408 32.8929 123.16C32.8929 145.976 45.5829 165.579 63.7438 174.186L56.2876 196.068C49.0531 217.295 43.8967 239.291 40.906 261.683C40.8699 261.967 40.8338 262.246 40.7977 262.529C39.8541 270.193 37.1728 277.439 33.2642 283.911C31.7637 286.397 26.3907 296.293 25.5914 299.3L22.9823 306.959C17.4804 323.101 23.7403 341.429 37.9307 349.201C39.6788 350.161 41.499 350.939 43.3708 351.522C55.0965 355.163 67.2192 350.212 73.9947 340.114C76.1656 341.625 78.4189 343.033 80.7651 344.307L81.4045 344.658C91.6761 350.238 103.01 353.147 114.504 353.147H229.492C240.934 353.147 252.221 350.264 262.457 344.73L262.591 344.658C265.019 343.338 267.345 341.878 269.588 340.31C276.384 350.274 288.429 355.142 300.078 351.527C301.95 350.945 303.765 350.166 305.502 349.207C319.487 341.496 325.628 323.405 320.203 307.474L320.193 307.469Z" fill="#00B7FF"/>
<path d="M82.9409 190.875L75.7013 213.902C69.6889 233.025 65.4039 252.833 62.9185 273.003C59.1492 303.581 72.4888 333.554 96.0382 347.422L96.5693 347.737C105.103 352.765 114.519 355.38 124.068 355.38H219.612C229.161 355.38 238.577 352.76 247.111 347.737C270.913 333.714 284.258 303.261 280.112 272.41C277.456 252.622 273.218 233.169 267.463 214.309L260.507 191.514C252.7 165.934 235.009 153.892 211.3 155.898C207.401 156.228 203.539 157.533 199.662 159.06C191.014 162.458 181.867 164.263 172.626 164.263H170.92C161.623 164.263 152.413 162.484 143.689 159.127C139.744 157.611 135.804 156.316 131.865 156.017C108.228 154.227 90.8921 165.594 82.9409 190.875Z" fill="#BAE2F5"/>
<path d="M135.207 80.8093C151.815 80.8093 165.279 67.3434 165.279 50.7324C165.279 34.1214 151.815 20.6555 135.207 20.6555C118.599 20.6555 105.135 34.1214 105.135 50.7324C105.135 67.3434 118.599 80.8093 135.207 80.8093Z" fill="white"/>
<path d="M209.299 80.8093C225.907 80.8093 239.371 67.3434 239.371 50.7324C239.371 34.1214 225.907 20.6555 209.299 20.6555C192.69 20.6555 179.227 34.1214 179.227 50.7324C179.227 67.3434 192.69 80.8093 209.299 80.8093Z" fill="white"/>
<path d="M139.478 69.2701C146.948 69.2701 153.004 61.064 153.004 50.9413C153.004 40.8186 146.948 32.6125 139.478 32.6125C132.009 32.6125 125.953 40.8186 125.953 50.9413C125.953 61.064 132.009 69.2701 139.478 69.2701Z" fill="#00B7FF" stroke="#00B7FF" stroke-miterlimit="10"/>
<path d="M202.472 69.2539C209.941 69.2539 215.997 61.0479 215.997 50.9252C215.997 40.8025 209.941 32.5964 202.472 32.5964C195.002 32.5964 188.946 40.8025 188.946 50.9252C188.946 61.0479 195.002 69.2539 202.472 69.2539Z" fill="#00B7FF" stroke="#00B7FF" stroke-miterlimit="10"/>
<g opacity="0.2" style="mix-blend-mode:color-burn">
<path d="M130.906 105.915C131.04 113.083 149.191 118.88 171.575 118.88C193.959 118.88 212.109 113.083 212.244 105.915H130.906Z" fill="#314C9B"/>
</g>
<path d="M80.0326 152.139C99.7252 152.139 115.689 136.172 115.689 116.477C115.689 96.781 99.7252 80.8145 80.0326 80.8145C60.34 80.8145 44.376 96.781 44.376 116.477C44.376 136.172 60.34 152.139 80.0326 152.139Z" fill="#314C9B"/>
<path d="M261.874 154.511C281.567 154.511 297.531 138.545 297.531 118.849C297.531 99.1533 281.567 83.1868 261.874 83.1868C242.182 83.1868 226.218 99.1533 226.218 118.849C226.218 138.545 242.182 154.511 261.874 154.511Z" fill="#314C9B"/>
<g opacity="0.2" style="mix-blend-mode:color-burn">
<path d="M38.4978 305.85C38.4978 304.988 38.539 304.138 38.6061 303.297C32.5834 307.062 28.5459 314.003 28.5459 321.951C28.5459 333.905 37.6934 343.601 48.9756 343.601C55.3129 343.601 60.9746 340.542 64.7233 335.741C50.0636 334.622 38.4978 321.672 38.4978 305.855V305.85Z" fill="#492771"/>
<path d="M38.4978 305.85C38.4978 304.988 38.539 304.138 38.6061 303.297C32.5834 307.062 28.5459 314.003 28.5459 321.951C28.5459 333.905 37.6934 343.601 48.9756 343.601C55.3129 343.601 60.9746 340.542 64.7233 335.741C50.0636 334.622 38.4978 321.672 38.4978 305.855V305.85Z" stroke="#492770" stroke-miterlimit="10"/>
</g>
<g opacity="0.2" style="mix-blend-mode:color-burn">
<path d="M303.893 310.275C303.893 309.517 303.852 308.764 303.78 308.021C309.911 311.347 314.021 317.474 314.021 324.488C314.021 335.045 304.708 343.601 293.225 343.601C286.774 343.601 281.009 340.898 277.193 336.664C292.116 335.674 303.888 324.246 303.888 310.28L303.893 310.275Z" fill="#492771"/>
<path d="M303.893 310.275C303.893 309.517 303.852 308.764 303.78 308.021C309.911 311.347 314.021 317.474 314.021 324.488C314.021 335.045 304.708 343.601 293.225 343.601C286.774 343.601 281.009 340.898 277.193 336.664C292.116 335.674 303.888 324.246 303.888 310.28L303.893 310.275Z" stroke="#492770" stroke-miterlimit="10"/>
</g>
<g opacity="0.2" style="mix-blend-mode:color-burn">
<path d="M152.109 176.764C152.171 187.146 160.602 195.542 170.992 195.542C181.382 195.542 189.813 187.146 189.875 176.764H152.109Z" fill="#4EB375"/>
</g>
<g opacity="0.2" style="mix-blend-mode:color-burn">
<path d="M152.109 215.263C152.171 225.645 160.602 234.041 170.992 234.041C181.382 234.041 189.813 225.645 189.875 215.263H152.109Z" fill="#4EB375"/>
</g>
<g opacity="0.2" style="mix-blend-mode:color-burn">
<path d="M156.044 254.52C156.09 262.735 162.768 269.383 170.992 269.383C179.217 269.383 185.894 262.735 185.941 254.52H156.044Z" fill="#4EB375"/>
</g>
<g opacity="0.2" style="mix-blend-mode:color-burn">
<path d="M96.002 208.533C96.0638 218.914 104.495 227.31 114.885 227.31C125.275 227.31 133.706 218.914 133.768 208.533H96.002Z" fill="#4EB375"/>
</g>
<g opacity="0.2" style="mix-blend-mode:color-burn">
<path d="M111.683 242.256C111.729 250.472 118.407 257.119 126.631 257.119C134.856 257.119 141.533 250.472 141.58 242.256H111.683Z" fill="#4EB375"/>
</g>
<g opacity="0.2" style="mix-blend-mode:color-burn">
<path d="M208.778 208.533C208.84 218.914 217.271 227.31 227.661 227.31C238.051 227.31 246.482 218.914 246.544 208.533H208.778Z" fill="#4EB375"/>
</g>
<g opacity="0.2" style="mix-blend-mode:color-burn">
<path d="M200.967 242.256C201.013 250.472 207.691 257.119 215.915 257.119C224.14 257.119 230.817 250.472 230.864 242.256H200.967Z" fill="#4EB375"/>
</g>
<path d="M92.0265 35.7765L87.6641 35.9364C85.7717 36.0086 85.1787 38.5253 86.8391 39.433L89.8711 41.0936C90.691 41.5423 91.7171 41.3153 92.2688 40.5572L93.5992 38.7367C94.517 37.4784 93.5785 35.7198 92.0265 35.7765Z" fill="#314C9B"/>
<path d="M101.118 22.0066L91.0832 19.5363C89.4589 19.1341 88.1698 20.9133 89.0567 22.3315L94.4606 30.975C95.1516 32.0838 96.7449 32.1509 97.5287 31.104L102.159 24.9308C102.958 23.8632 102.412 22.3212 101.112 22.0015L101.118 22.0066Z" fill="#314C9B"/>
<path d="M107.433 5.1066C106.036 3.29642 103.726 4.69918 104.298 7.00962L107.062 18.2008C107.366 19.4334 108.423 20.2276 109.419 19.9852L114.348 18.7681C115.72 18.4277 116.148 16.4061 115.127 15.0858L107.433 5.11176V5.1066Z" fill="#314C9B"/>
<path d="M127.837 1.08385C127.131 -0.447842 124.919 -0.329226 124.383 1.26951L120.881 11.6458C120.474 12.8526 121.371 14.1058 122.645 14.1058H130.921C132.277 14.1058 133.18 12.6979 132.612 11.4653L127.837 1.08901V1.08385Z" fill="#314C9B"/>
<path d="M140.739 5.45719L138.212 9.09303C137.356 10.3308 138.238 12.0172 139.744 12.0172H142.27C143.302 12.0172 144.132 11.1817 144.132 10.1554V6.51958C144.132 4.69392 141.78 3.95644 140.739 5.45719Z" fill="#314C9B"/>
<path d="M151.882 8.22661L149.268 11.7593C149.072 12.0275 149.082 12.3936 149.298 12.6463L151.913 15.7252C152.341 16.2306 153.171 15.9263 153.171 15.2611V8.6495C153.171 7.96359 152.294 7.67479 151.887 8.22661H151.882Z" fill="#314C9B"/>
<path d="M249.886 36.4056L254.248 36.5655C256.141 36.6377 256.734 39.1544 255.073 40.0621L252.041 41.7227C251.221 42.1714 250.195 41.9445 249.643 41.1864L248.313 39.3659C247.395 38.1075 248.334 36.3489 249.886 36.4056Z" fill="#314C9B"/>
<path d="M240.795 22.6307L250.829 20.1603C252.453 19.7581 253.743 21.5373 252.856 22.9556L247.452 31.5991C246.761 32.7079 245.167 32.7749 244.384 31.728L239.753 25.5548C238.954 24.4873 239.5 22.9452 240.8 22.6255L240.795 22.6307Z" fill="#314C9B"/>
<path d="M234.473 5.73551C235.871 3.92532 238.181 5.32809 237.608 7.63852L234.844 18.8297C234.54 20.0623 233.483 20.8565 232.488 20.6141L227.558 19.397C226.187 19.0566 225.759 17.035 226.78 15.7147L234.473 5.74067V5.73551Z" fill="#314C9B"/>
<path d="M214.069 1.713C214.776 0.181309 216.988 0.299925 217.524 1.89866L221.025 12.275C221.433 13.4818 220.535 14.735 219.262 14.735H210.986C209.63 14.735 208.727 13.3271 209.294 12.0945L214.069 1.71816V1.713Z" fill="#314C9B"/>
<path d="M201.173 6.08634L203.7 9.72218C204.556 10.9599 203.674 12.6463 202.168 12.6463H199.642C198.61 12.6463 197.78 11.8109 197.78 10.7846V7.14873C197.78 5.32307 200.132 4.58559 201.173 6.08634Z" fill="#314C9B"/>
<path d="M190.024 8.85576L192.639 12.3885C192.835 12.6566 192.824 13.0228 192.608 13.2755L189.994 16.3544C189.566 16.8598 188.735 16.5555 188.735 15.8902V9.27865C188.735 8.59274 189.612 8.30394 190.019 8.85576H190.024Z" fill="#314C9B"/>
<rect y="333.803" width="344" height="44" rx="22" fill="#7BDAFF"/>
</svg>
