<svg width="306" height="308" viewBox="0 0 306 308" fill="none" xmlns="http://www.w3.org/2000/svg">
<path d="M286.005 250.095L283.514 243.097C282.782 240.451 278.327 231.916 276.929 229.739C273.464 224.35 271.03 218.296 270.2 211.88C270.133 211.359 270.061 210.833 269.979 210.312C267.112 191.493 262.548 172.994 256.34 155.058L252.132 142.892C250.802 139.055 252.215 134.774 255.613 132.552C268.53 124.099 277.11 109.195 277.11 92.217C277.11 65.8739 256.458 44.5179 230.981 44.5179H228.959C224.035 44.5179 220.095 40.5313 220.039 35.6062C220.039 35.5753 220.039 35.5443 220.039 35.5134C219.75 16.344 204.74 0.588687 186.213 0.016236C179.638 -0.184895 173.461 1.4912 168.139 4.57006C158.698 10.0316 147.065 10.0316 137.624 4.57006C132.302 1.4912 126.125 -0.184895 119.55 0.016236C101.018 0.588687 86.0079 16.344 85.7243 35.5134C85.7243 35.5443 85.7243 35.5753 85.7243 35.6062C85.6625 40.5313 81.723 44.5179 76.8037 44.5179H74.7824C49.3045 44.5179 28.6531 65.8739 28.6531 92.217C28.6531 109.241 37.2798 124.181 50.2585 132.624C53.703 134.862 55.121 139.199 53.7442 143.067L49.6088 154.671C43.1272 172.855 38.507 191.695 35.8308 210.879C35.7947 211.122 35.7638 211.364 35.7329 211.601C34.8872 218.167 32.4843 224.371 28.9831 229.92C27.6373 232.05 22.8264 240.528 22.1096 243.102L19.7738 249.662C14.8494 263.488 20.4544 279.187 33.165 285.845C34.7325 286.665 36.362 287.335 38.0378 287.835C46.4737 290.337 55.1365 288.098 61.3654 282.642C64.1241 280.223 68.11 279.862 71.3586 281.564C71.4153 281.595 71.4771 281.626 71.5339 281.657L72.1062 281.956C81.3053 286.737 91.4582 289.228 101.756 289.228H204.76C215.011 289.228 225.123 286.758 234.291 282.018L234.41 281.956C234.559 281.879 234.704 281.802 234.853 281.724C238.081 280.012 242.041 280.378 244.805 282.766C251.024 288.135 259.619 290.326 267.988 287.841C269.664 287.34 271.293 286.67 272.846 285.85C285.37 279.244 290.872 263.746 286.015 250.105L286.005 250.095Z" fill="#44B070"/>
<path d="M80.217 138.364L74.2819 159.74C69.3524 177.492 65.8409 195.877 63.8041 214.603C60.7154 242.988 71.6522 270.811 90.9526 283.684L91.3909 283.973C98.3882 288.64 106.107 291.069 113.935 291.069H192.256C200.083 291.069 207.802 288.64 214.799 283.973C234.311 270.956 245.248 242.689 241.855 214.051C239.674 195.681 236.204 177.626 231.486 160.117L225.783 138.957C219.383 115.213 204.884 104.032 185.444 105.894C182.247 106.198 179.081 107.41 175.905 108.828C168.815 111.985 161.317 113.661 153.742 113.661H152.34C144.719 113.661 137.17 112.005 130.018 108.89C126.785 107.482 123.557 106.281 120.324 106.002C100.946 104.341 86.7347 114.893 80.2221 138.364H80.217Z" fill="#DDE8B6"/>
<path d="M122.046 64.2544C136.129 64.2544 147.545 52.8366 147.545 38.752C147.545 24.6673 136.129 13.2495 122.046 13.2495C107.964 13.2495 96.5479 24.6673 96.5479 38.752C96.5479 52.8366 107.964 64.2544 122.046 64.2544Z" fill="white"/>
<path d="M183.696 64.2544C197.778 64.2544 209.194 52.8366 209.194 38.752C209.194 24.6673 197.778 13.2495 183.696 13.2495C169.613 13.2495 158.197 24.6673 158.197 38.752C158.197 52.8366 169.613 64.2544 183.696 64.2544Z" fill="white"/>
<path d="M126.021 53.7132C132.119 53.7132 137.061 47.0149 137.061 38.7521C137.061 30.4893 132.119 23.791 126.021 23.791C119.924 23.791 114.981 30.4893 114.981 38.7521C114.981 47.0149 119.924 53.7132 126.021 53.7132Z" fill="#44B070" stroke="#44B070" stroke-miterlimit="10"/>
<path d="M178.076 53.7132C184.173 53.7132 189.116 47.0149 189.116 38.7521C189.116 30.4893 184.173 23.791 178.076 23.791C171.979 23.791 167.036 30.4893 167.036 38.7521C167.036 47.0149 171.979 53.7132 178.076 53.7132Z" fill="#44B070" stroke="#44B070" stroke-miterlimit="10"/>
<path d="M69.8527 119.499C87.0734 119.499 101.034 105.536 101.034 88.3129C101.034 71.0895 87.0734 57.1272 69.8527 57.1272C52.632 57.1272 38.6719 71.0895 38.6719 88.3129C38.6719 105.536 52.632 119.499 69.8527 119.499Z" fill="#65B97B"/>
<path d="M235.89 119.906C253.111 119.906 267.071 105.944 267.071 88.7204C267.071 71.497 253.111 57.5347 235.89 57.5347C218.669 57.5347 204.709 71.497 204.709 88.7204C204.709 105.944 218.669 119.906 235.89 119.906Z" fill="#65B97B"/>
<g opacity="0.2" style="mix-blend-mode:color-burn">
<path d="M35.258 250.698C35.258 249.986 35.2941 249.285 35.356 248.589C30.0861 251.699 26.5488 257.433 26.5488 263.993C26.5488 273.87 34.5516 281.874 44.4261 281.874C49.9744 281.874 54.9298 279.347 58.2092 275.381C45.3801 274.457 35.258 263.761 35.258 250.693V250.698Z" fill="#492771"/>
<path d="M35.258 250.698C35.258 249.986 35.2941 249.285 35.356 248.589C30.0861 251.699 26.5488 257.433 26.5488 263.993C26.5488 273.87 34.5516 281.874 44.4261 281.874C49.9744 281.874 54.9298 279.347 58.2092 275.381C45.3801 274.457 35.258 263.761 35.258 250.693V250.698Z" stroke="#492770" stroke-miterlimit="10"/>
</g>
<g opacity="0.2" style="mix-blend-mode:color-burn">
<path d="M271.082 250.698C271.082 249.986 271.046 249.285 270.984 248.589C276.254 251.699 279.791 257.433 279.791 263.993C279.791 273.87 271.788 281.874 261.914 281.874C256.366 281.874 251.41 279.347 248.131 275.381C260.96 274.457 271.082 263.761 271.082 250.693V250.698Z" fill="#492771"/>
<path d="M271.082 250.698C271.082 249.986 271.046 249.285 270.984 248.589C276.254 251.699 279.791 257.433 279.791 263.993C279.791 273.87 271.788 281.874 261.914 281.874C256.366 281.874 251.41 279.347 248.131 275.381C260.96 274.457 271.082 263.761 271.082 250.693V250.698Z" stroke="#492770" stroke-miterlimit="10"/>
</g>
<g opacity="0.2" style="mix-blend-mode:color-burn">
<path d="M136.607 128.328C136.659 137.136 143.816 144.264 152.634 144.264C161.451 144.264 168.608 137.136 168.66 128.328H136.607Z" fill="#00FF62"/>
</g>
<g opacity="0.2" style="mix-blend-mode:color-burn">
<path d="M129.662 83.8521C129.739 87.9417 140.099 91.2526 152.871 91.2526C165.644 91.2526 176.003 87.9417 176.08 83.8521H129.662Z" fill="#00FF62"/>
</g>
<g opacity="0.2" style="mix-blend-mode:color-burn">
<path d="M136.607 155.295C136.659 164.103 143.816 171.231 152.634 171.231C161.451 171.231 168.608 164.103 168.66 155.295H136.607Z" fill="#00FF62"/>
</g>
<g opacity="0.2" style="mix-blend-mode:color-burn">
<path d="M139.944 194.33C139.986 201.302 145.647 206.944 152.634 206.944C159.621 206.944 165.283 201.302 165.324 194.33H139.949H139.944Z" fill="#00FF62"/>
</g>
<g opacity="0.2" style="mix-blend-mode:color-burn">
<path d="M88.9834 155.295C89.035 164.103 96.1921 171.231 105.01 171.231C113.827 171.231 120.984 164.103 121.036 155.295H88.9834Z" fill="#00FF62"/>
</g>
<g opacity="0.2" style="mix-blend-mode:color-burn">
<path d="M102.292 183.917C102.333 190.89 107.995 196.532 114.982 196.532C121.969 196.532 127.631 190.89 127.672 183.917H102.297H102.292Z" fill="#00FF62"/>
</g>
<g opacity="0.2" style="mix-blend-mode:color-burn">
<path d="M184.707 155.295C184.759 164.103 191.916 171.231 200.733 171.231C209.551 171.231 216.708 164.103 216.759 155.295H184.707Z" fill="#00FF62"/>
</g>
<g opacity="0.2" style="mix-blend-mode:color-burn">
<path d="M178.076 183.917C178.117 190.89 183.779 196.532 190.766 196.532C197.753 196.532 203.415 190.89 203.456 183.917H178.081H178.076Z" fill="#00FF62"/>
</g>
<path d="M152.582 81.4901C152.097 76.73 148.189 72.924 143.424 72.5475C140.599 72.3257 137.995 73.2747 136.051 74.9662C135.751 75.286 135.432 75.6006 135.102 75.91C130.425 80.2163 123.185 82.9857 115.054 82.9857C111.79 82.9857 108.67 82.5422 105.798 81.7222C111.341 89.85 120.674 95.1877 131.255 95.1877C135.746 95.1877 140.021 94.2233 143.868 92.4905C145.523 91.7478 147.101 90.8608 148.586 89.85C151.164 88.0914 152.783 85.1621 152.634 82.0471C152.623 81.8614 152.613 81.6809 152.592 81.4953L152.582 81.4901Z" fill="#0F6131"/>
<path d="M190.219 82.9804C182.087 82.9804 174.848 80.2109 170.171 75.9046C169.841 75.6004 169.521 75.2806 169.222 74.9609C167.278 73.2693 164.669 72.3204 161.848 72.5421C157.079 72.9186 153.175 76.7246 152.69 81.4847C152.67 81.6704 152.66 81.8561 152.649 82.0366C152.5 85.1567 154.119 88.0808 156.697 89.8395C158.182 90.8554 159.76 91.7373 161.415 92.4799C165.262 94.2076 169.536 95.1772 174.028 95.1772C184.604 95.1772 193.942 89.8394 199.485 81.7117C196.613 82.5265 193.493 82.9752 190.229 82.9752L190.219 82.9804Z" fill="#0F6131"/>
<rect y="273" width="306" height="35" rx="17.5" fill="#B1E89F"/>
</svg>
