<svg width="273" height="234" viewBox="0 0 273 234" fill="none" xmlns="http://www.w3.org/2000/svg">
<path d="M254.094 185.308L251.897 179.346C251.252 177.093 247.328 169.821 246.096 167.969C243.043 163.374 240.898 158.217 240.171 152.756C240.109 152.312 240.048 151.863 239.975 151.42C237.449 135.386 233.427 119.626 227.961 104.345L225.635 97.8416C233.231 91.2352 238.104 81.0961 238.104 69.7141C238.104 49.8072 223.217 33.6703 204.855 33.6703H199.688C197.822 33.6703 196.331 32.1592 196.306 30.2923C196.306 30.282 196.306 30.2717 196.306 30.2562C196.053 13.9233 182.832 0.499073 166.507 0.0142941C159.664 -0.191995 153.301 1.84512 148.109 5.4397C141.524 9.99352 132.773 9.99352 126.189 5.4397C120.991 1.84512 114.633 -0.191995 107.791 0.0142941C91.4654 0.499073 78.2444 13.9233 77.9917 30.2562C77.9917 30.2666 77.9917 30.2769 77.9917 30.2923C77.9659 32.1592 76.4757 33.6703 74.6091 33.6703H69.4423C51.0803 33.6703 36.1938 49.8072 36.1938 69.7141C36.1938 80.8898 40.8861 90.8742 48.2495 97.4857L45.8466 104.01C40.1384 119.502 36.07 135.551 33.7084 151.894C33.6775 152.101 33.6517 152.307 33.6207 152.513C32.873 158.109 30.7589 163.395 27.6754 168.119C26.4894 169.934 22.2508 177.16 21.6217 179.351L19.5643 184.937C15.2226 196.716 20.1625 210.094 31.3571 215.761C32.739 216.463 34.1776 217.03 35.6524 217.458C44.9081 220.114 54.4733 216.499 59.8153 209.134C61.5273 210.238 63.3062 211.264 65.1574 212.193L65.6627 212.445C73.7686 216.52 82.7098 218.639 91.7799 218.639H182.512C191.541 218.639 200.446 216.535 208.526 212.497L208.629 212.445C210.543 211.481 212.383 210.419 214.152 209.274C219.515 216.545 229.018 220.099 238.212 217.458C239.687 217.035 241.12 216.463 242.492 215.767C253.526 210.14 258.373 196.938 254.088 185.313L254.094 185.308Z" fill="#B04DFF"/>
<path d="M74.011 100.312L68.8546 116.877C64.5696 130.631 61.5221 144.881 59.7483 159.388C57.067 181.378 66.5651 202.94 83.3389 212.915L83.7205 213.141C89.7999 216.757 96.5084 218.639 103.31 218.639H171.364C178.165 218.639 184.874 216.757 190.953 213.141C207.908 203.054 217.411 181.151 214.461 158.96C212.569 144.726 209.553 130.734 205.448 117.171L200.493 100.776C194.929 82.375 182.332 73.716 165.445 75.1601C162.67 75.3973 159.917 76.3359 157.153 77.4344C150.991 79.8789 144.479 81.1785 137.894 81.1785H136.677C130.056 81.1785 123.497 79.8944 117.278 77.4808C114.468 76.3875 111.663 75.4592 108.858 75.2426C92.0223 73.9533 79.6727 82.1326 74.011 100.317V100.312Z" fill="#FECB4B" stroke="#EFB04B" stroke-miterlimit="10"/>
<path d="M108.992 52.0455C121.953 52.0455 132.459 41.5374 132.459 28.575C132.459 15.6126 121.953 5.10449 108.992 5.10449C96.0319 5.10449 85.5254 15.6126 85.5254 28.575C85.5254 41.5374 96.0319 52.0455 108.992 52.0455Z" fill="white" stroke="#B04DFF" stroke-miterlimit="10"/>
<path d="M165.729 52.0455C178.689 52.0455 189.195 41.5374 189.195 28.575C189.195 15.6126 178.689 5.10449 165.729 5.10449C152.768 5.10449 142.262 15.6126 142.262 28.575C142.262 41.5374 152.768 52.0455 165.729 52.0455Z" fill="white" stroke="white" stroke-miterlimit="10"/>
<path d="M114.52 42.7832C119.614 42.7832 123.745 37.1863 123.745 30.2821C123.745 23.3779 119.614 17.781 114.52 17.781C109.425 17.781 105.295 23.3779 105.295 30.2821C105.295 37.1863 109.425 42.7832 114.52 42.7832Z" fill="#B04DFF" stroke="#B04DFF" stroke-miterlimit="10"/>
<path d="M160.402 42.7832C165.496 42.7832 169.626 37.1863 169.626 30.2821C169.626 23.3779 165.496 17.781 160.402 17.781C155.307 17.781 151.177 23.3779 151.177 30.2821C151.177 37.1863 155.307 42.7832 160.402 42.7832Z" fill="#B04DFF" stroke="#B04DFF" stroke-miterlimit="10"/>
<g opacity="0.4" style="mix-blend-mode:darken">
<path d="M64.2806 87.6561C76.0135 87.6561 85.525 78.1432 85.525 66.4084C85.525 54.6736 76.0135 45.1606 64.2806 45.1606C52.5476 45.1606 43.0361 54.6736 43.0361 66.4084C43.0361 78.1432 52.5476 87.6561 64.2806 87.6561Z" fill="#492771"/>
<path d="M64.2806 87.6561C76.0135 87.6561 85.525 78.1432 85.525 66.4084C85.525 54.6736 76.0135 45.1606 64.2806 45.1606C52.5476 45.1606 43.0361 54.6736 43.0361 66.4084C43.0361 78.1432 52.5476 87.6561 64.2806 87.6561Z" stroke="#492770" stroke-miterlimit="10"/>
</g>
<g opacity="0.4" style="mix-blend-mode:darken">
<path d="M210.44 87.6561C222.173 87.6561 231.684 78.1432 231.684 66.4084C231.684 54.6736 222.173 45.1606 210.44 45.1606C198.707 45.1606 189.195 54.6736 189.195 66.4084C189.195 78.1432 198.707 87.6561 210.44 87.6561Z" fill="#492771"/>
<path d="M210.44 87.6561C222.173 87.6561 231.684 78.1432 231.684 66.4084C231.684 54.6736 222.173 45.1606 210.44 45.1606C198.707 45.1606 189.195 54.6736 189.195 66.4084C189.195 78.1432 198.707 87.6561 210.44 87.6561Z" stroke="#492770" stroke-miterlimit="10"/>
</g>
<path fill-rule="evenodd" clip-rule="evenodd" d="M160.778 10.8828C173.134 10.8828 183.15 20.9006 183.15 33.2579C183.15 45.6152 173.134 55.633 160.778 55.633C148.422 55.633 138.406 45.6152 138.406 33.2579C138.406 33.2125 138.406 33.1671 138.407 33.1217H134.432C134.432 33.1671 134.432 33.2125 134.432 33.2579C134.432 45.6152 124.416 55.633 112.06 55.633C99.7045 55.633 89.6885 45.6152 89.6885 33.2579C89.6885 20.9006 99.7045 10.8828 112.06 10.8828C123.827 10.8828 133.471 19.9678 134.364 31.5065H138.474C139.367 19.9678 149.012 10.8828 160.778 10.8828ZM112.06 12.498C100.597 12.498 91.3037 21.7924 91.3037 33.2579C91.3037 44.7234 100.597 54.0178 112.06 54.0178C123.524 54.0178 132.817 44.7234 132.817 33.2579C132.817 21.7924 123.524 12.498 112.06 12.498ZM160.778 12.498C149.315 12.498 140.022 21.7924 140.022 33.2579C140.022 44.7234 149.315 54.0178 160.778 54.0178C172.241 54.0178 181.535 44.7234 181.535 33.2579C181.535 21.7924 172.241 12.498 160.778 12.498Z" fill="#F9CC0E"/>
<path d="M110.575 200.981C110.575 200.981 110.492 200.8 110.472 200.769C110.487 200.816 110.595 201.032 110.575 200.981Z" fill="#EFB04B"/>
<path d="M110.74 201.45L110.704 201.367L110.792 201.564L110.74 201.45Z" fill="#EFB04B"/>
<path d="M110.688 201.465C110.853 201.795 110.678 201.404 110.745 201.517L110.781 201.589L110.657 201.321C110.668 201.367 110.74 201.553 110.688 201.465Z" fill="#EFB04B"/>
<path d="M110.317 200.764C110.379 200.893 110.364 200.878 110.343 200.8C110.338 200.785 110.333 200.78 110.328 200.769C110.328 200.769 110.328 200.769 110.317 200.764Z" fill="#EFB04B"/>
<path d="M110.338 200.857L110.286 200.738C110.25 200.661 110.235 200.651 110.209 200.594C110.235 200.661 110.271 200.733 110.338 200.857Z" fill="#EFB04B"/>
<path d="M110.446 201.099L110.425 201.048C110.41 201.017 110.405 201.006 110.446 201.099Z" fill="#EFB04B"/>
<path d="M110.384 200.945L110.425 201.053C110.451 201.105 110.503 201.214 110.41 201.012C110.456 201.11 110.41 201.012 110.384 200.945Z" fill="#EFB04B"/>
<path d="M110.415 200.991C110.456 201.063 110.482 201.105 110.528 201.223C110.518 201.172 110.404 200.939 110.415 200.991Z" fill="#EFB04B"/>
<path d="M110.853 201.811L110.905 201.904L110.853 201.79C110.879 201.847 110.802 201.708 110.853 201.811Z" fill="#EFB04B"/>
<path d="M110.209 200.702C110.245 200.774 110.302 200.888 110.348 200.981L110.312 200.898C110.286 200.852 110.261 200.81 110.209 200.707V200.702Z" fill="#EFB04B"/>
<path d="M110.348 200.981L110.399 201.104C110.399 201.104 110.384 201.058 110.348 200.981Z" fill="#EFB04B"/>
<path d="M110.626 201.465L110.513 201.208L110.626 201.471V201.465Z" fill="#EFB04B"/>
<path d="M110.178 200.707L110.101 200.542L110.214 200.795L110.178 200.707Z" fill="#EFB04B"/>
<path d="M110.172 200.749C110.11 200.615 110.059 200.522 110.018 200.439C110.023 200.465 110.074 200.584 110.121 200.692C110.095 200.63 110.11 200.645 110.167 200.754L110.172 200.749Z" fill="#EFB04B"/>
<path d="M110.193 200.842C110.178 200.811 110.152 200.749 110.126 200.687C110.142 200.718 110.157 200.765 110.193 200.842Z" fill="#EFB04B"/>
<path d="M110.369 201.079C110.349 201.038 110.292 200.924 110.266 200.883L110.364 201.079H110.369Z" fill="#EFB04B"/>
<path d="M110.369 201.085C110.369 201.085 110.358 201.074 110.358 201.068C110.358 201.068 110.364 201.074 110.375 201.085H110.369Z" fill="#EFB04B"/>
<path d="M110.374 201.079C110.385 201.101 110.391 201.106 110.374 201.079V201.079Z" fill="#EFB04B"/>
<path d="M110.519 201.301C110.57 201.414 110.617 201.538 110.709 201.703C110.647 201.564 110.596 201.471 110.519 201.301Z" fill="#EFB04B"/>
<path d="M110.497 201.322L110.529 201.363C110.503 201.311 110.466 201.234 110.44 201.177L110.497 201.322Z" fill="#EFB04B"/>
<path d="M110.524 201.389L110.498 201.321L110.487 201.306L110.524 201.389Z" fill="#EFB04B"/>
<path d="M110.297 201.022C110.333 201.11 110.333 201.12 110.338 201.136C110.364 201.172 110.375 201.193 110.38 201.188C110.349 201.126 110.297 201.012 110.297 201.022Z" fill="#EFB04B"/>
<path d="M110.343 201.068C110.343 201.068 110.343 201.074 110.343 201.079C110.353 201.095 110.353 201.1 110.343 201.068Z" fill="#EFB04B"/>
<path d="M110.297 201.151C110.297 201.151 110.307 201.177 110.318 201.188C110.313 201.177 110.307 201.167 110.302 201.151H110.297Z" fill="#EFB04B"/>
<path d="M110.4 201.223C110.42 201.259 110.4 201.213 110.374 201.146C110.379 201.166 110.384 201.182 110.384 201.182C110.4 201.208 110.405 201.228 110.405 201.218L110.4 201.223Z" fill="#EFB04B"/>
<path d="M110.224 200.94C110.244 200.981 110.265 201.012 110.281 201.048C110.25 200.986 110.198 200.888 110.224 200.94Z" fill="#EFB04B"/>
<path d="M110.317 201.028C110.317 201.028 110.317 201.023 110.317 201.017C110.296 200.975 110.306 200.996 110.317 201.028Z" fill="#EFB04B"/>
<path d="M110.317 201.027C110.328 201.058 110.353 201.104 110.374 201.151C110.369 201.135 110.359 201.11 110.348 201.084C110.343 201.068 110.328 201.048 110.323 201.027H110.317Z" fill="#EFB04B"/>
<path d="M110.905 202.43C110.818 202.244 110.74 202.074 110.848 202.265C110.787 202.126 110.488 201.522 110.317 201.187C110.359 201.27 110.395 201.342 110.436 201.455C110.488 201.553 110.57 201.682 110.642 201.852C110.678 201.95 110.601 201.79 110.549 201.698C110.663 201.924 110.699 202.038 110.864 202.373L110.818 202.249C110.843 202.301 110.879 202.389 110.905 202.435V202.43Z" fill="#EFB04B"/>
<path d="M110.338 201.197L110.327 201.171C110.307 201.14 110.271 201.068 110.193 200.929C110.229 201.022 110.266 201.089 110.291 201.151L110.317 201.166L110.327 201.192L110.338 201.197Z" fill="#EFB04B"/>
<path d="M110.343 201.166C110.436 201.367 110.472 201.455 110.58 201.672C110.58 201.651 110.508 201.501 110.467 201.414C110.477 201.471 110.415 201.3 110.348 201.192C110.333 201.156 110.333 201.146 110.333 201.135C110.317 201.115 110.302 201.084 110.281 201.048C110.281 201.048 110.281 201.058 110.286 201.058C110.297 201.084 110.307 201.099 110.297 201.084C110.312 201.109 110.323 201.135 110.333 201.161C110.307 201.12 110.307 201.109 110.297 201.084C110.297 201.073 110.286 201.063 110.281 201.053L110.317 201.171C110.333 201.197 110.338 201.192 110.333 201.161L110.343 201.166Z" fill="#EFB04B"/>
<path d="M110.911 202.132C110.911 202.132 110.895 202.1 110.89 202.084C110.9 202.111 110.911 202.127 110.911 202.132Z" fill="#EFB04B"/>
<path d="M110.843 202.017C110.833 201.986 110.792 201.909 110.807 201.93C110.838 201.986 110.854 202.028 110.884 202.089C110.859 202.038 110.823 201.94 110.766 201.847L110.776 201.873C110.735 201.806 110.606 201.563 110.596 201.532C110.683 201.713 110.75 201.837 110.838 202.012L110.843 202.017Z" fill="#EFB04B"/>
<path d="M110.616 201.641L110.652 201.744L110.745 201.914L110.694 201.811C110.719 201.847 110.657 201.723 110.616 201.641Z" fill="#EFB04B"/>
<path d="M110.244 201.053L110.146 200.841L110.281 201.146L110.244 201.053Z" fill="#EFB04B"/>
<path d="M110.24 201.09L110.152 200.903L110.204 201.017L110.24 201.09Z" fill="#EFB04B"/>
<path d="M110.42 203.817L110.441 203.869C110.441 203.869 110.425 203.833 110.42 203.817Z" fill="#EFB04B"/>
<path d="M110.451 203.817L110.41 203.724C110.431 203.776 110.451 203.812 110.451 203.817Z" fill="#EFB04B"/>
<path d="M109.848 201.305C109.76 201.135 109.621 200.872 109.724 201.079L109.822 201.28C109.806 201.244 109.822 201.264 109.848 201.305Z" fill="#EFB04B"/>
<path d="M110.153 202.642C110.153 202.642 110.173 202.684 110.184 202.704C110.153 202.637 110.122 202.57 110.096 202.507C110.116 202.549 110.132 202.595 110.153 202.642Z" fill="#EFB04B"/>
<path d="M110.555 203.477L110.482 203.353C110.508 203.399 110.529 203.441 110.555 203.477Z" fill="#EFB04B"/>
<path d="M110.374 204.101L110.472 204.307C110.472 204.307 110.426 204.199 110.374 204.101Z" fill="#EFB04B"/>
<path d="M110.111 201.244C110.069 201.167 110.048 201.136 110.038 201.13C110.1 201.244 110.188 201.415 110.111 201.244Z" fill="#EFB04B"/>
<path d="M109.389 201.677C109.404 201.713 109.425 201.754 109.445 201.801C109.43 201.764 109.414 201.728 109.389 201.677Z" fill="#EFB04B"/>
<path d="M110.023 201.135C110.023 201.135 110.038 201.166 110.049 201.182C110.033 201.146 110.028 201.12 110.038 201.13C109.992 201.048 109.961 200.996 110.023 201.135Z" fill="#EFB04B"/>
<path d="M109.761 204.2C109.761 204.2 109.756 204.184 109.745 204.173C109.761 204.2 109.761 204.205 109.761 204.2Z" fill="#EFB04B"/>
<path d="M108.615 202.245C108.615 202.245 108.615 202.229 108.615 202.224C108.605 202.208 108.605 202.213 108.615 202.245Z" fill="#EFB04B"/>
<path d="M110.539 201.821C110.539 201.821 110.565 201.873 110.585 201.919C110.56 201.873 110.549 201.842 110.539 201.821Z" fill="#EFB04B"/>
<path d="M110.601 202.404C110.617 202.437 110.622 202.447 110.601 202.404V202.404Z" fill="#EFB04B"/>
<path d="M110.183 201.121C110.183 201.121 110.157 201.074 110.146 201.063C110.157 201.079 110.167 201.1 110.183 201.121Z" fill="#EFB04B"/>
<path d="M110.137 201.028L110.147 201.044C110.131 201.007 110.121 200.985 110.137 201.028Z" fill="#EFB04B"/>
<path d="M110.131 201.043C110.131 201.043 110.136 201.043 110.147 201.064C110.141 201.048 110.131 201.037 110.131 201.032C110.131 201.032 110.131 201.043 110.131 201.048V201.043Z" fill="#EFB04B"/>
<path d="M109.786 203.518C109.786 203.518 109.781 203.508 109.775 203.497C109.812 203.586 109.807 203.57 109.786 203.518Z" fill="#EFB04B"/>
<path d="M110.771 203.441C110.771 203.441 110.771 203.436 110.771 203.431C110.771 203.431 110.771 203.431 110.771 203.425L110.781 203.441H110.771Z" fill="#EFB04B"/>
<path d="M110.832 203.595C110.714 203.343 110.734 203.374 110.765 203.425L110.477 202.848L110.832 203.601V203.595Z" fill="#EFB04B"/>
<path d="M110.384 203.905L110.482 204.08C110.616 204.384 110.56 204.286 110.688 204.534C110.384 203.905 110.688 204.451 110.384 203.822L110.456 203.951C110.456 203.951 110.472 203.982 110.467 203.977C110.627 204.271 110.255 203.518 110.312 203.601C110.343 203.647 110.389 203.735 110.42 203.812L110.353 203.652C110.353 203.652 110.415 203.771 110.405 203.76V203.704V203.724C110.358 203.626 110.291 203.466 110.26 203.405C110.307 203.492 110.291 203.472 110.333 203.549L110.266 203.394C110.348 203.554 110.42 203.719 110.4 203.699C110.714 204.323 110.333 203.539 110.529 203.894L110.56 203.977C110.74 204.333 110.683 204.199 110.802 204.415C110.745 204.302 110.508 203.864 110.441 203.704C110.467 203.75 110.482 203.771 110.425 203.642C110.534 203.864 110.513 203.807 110.513 203.791L110.658 204.09C110.621 204.003 110.549 203.848 110.487 203.714C110.508 203.74 110.621 203.967 110.719 204.163C110.755 204.204 110.529 203.797 110.518 203.735C110.585 203.843 110.534 203.719 110.462 203.533C110.518 203.631 110.549 203.714 110.59 203.802L110.482 203.559C110.482 203.559 110.523 203.637 110.539 203.673C110.498 203.58 110.395 203.379 110.364 203.291C110.209 202.961 110.616 203.76 110.446 203.384C110.487 203.466 110.534 203.564 110.59 203.683C110.487 203.43 110.518 203.497 110.369 203.167L110.472 203.358C110.353 203.142 110.235 202.873 110.142 202.652C110.085 202.543 110.039 202.45 110.013 202.409L109.951 202.244C109.977 202.291 110.023 202.394 110.085 202.518C110.075 202.492 110.065 202.466 110.054 202.445C110.111 202.554 110.193 202.724 110.271 202.894C110.24 202.837 110.209 202.775 110.178 202.713C110.26 202.894 110.358 203.095 110.441 203.27C110.425 203.234 110.415 203.203 110.405 203.188C110.425 203.24 110.446 203.281 110.462 203.312C110.477 203.343 110.446 203.276 110.41 203.198L110.575 203.528L110.513 203.394L110.632 203.59C110.482 203.25 110.255 202.755 110.209 202.61C110.322 202.853 110.4 203.007 110.539 203.296C110.384 202.997 110.585 203.436 110.544 203.379C110.565 203.41 110.632 203.544 110.652 203.595L110.539 203.312C110.652 203.549 110.627 203.487 110.683 203.58C110.451 203.116 110.549 203.265 110.487 203.116C110.565 203.27 110.642 203.43 110.611 203.399C110.792 203.745 110.358 202.848 110.513 203.142C110.513 203.142 110.498 203.121 110.539 203.203C110.477 203.064 110.539 203.167 110.606 203.301C110.647 203.353 110.652 203.286 110.467 202.889C110.492 202.94 110.699 203.363 110.735 203.446L110.116 202.105C110.281 202.445 110.683 203.245 110.761 203.446C110.786 203.492 110.817 203.544 110.771 203.425C110.745 203.379 110.529 202.94 110.513 202.904C110.704 203.276 110.616 203.1 110.786 203.42C110.745 203.348 110.492 202.817 110.508 202.832C110.544 202.909 110.766 203.358 110.786 203.415L110.549 202.889C110.59 202.987 110.766 203.332 110.838 203.477C110.786 203.374 110.853 203.477 110.838 203.425L110.771 203.307C110.828 203.379 110.431 202.564 110.462 202.585C110.513 202.693 110.781 203.25 110.822 203.312C110.699 203.044 110.214 202.017 110.126 201.806L110.204 201.955L110.132 201.775C110.322 202.182 110.714 203.033 110.864 203.368C110.931 203.487 110.951 203.549 110.957 203.528C111.029 203.668 111.06 203.75 111.06 203.755L111.127 203.838C110.972 203.528 110.993 203.518 110.864 203.26L110.998 203.595C110.843 203.286 110.58 202.703 110.621 202.75C110.683 202.873 110.89 203.307 110.941 203.41C110.89 203.301 110.853 203.198 110.895 203.27L110.967 203.441C111.034 203.554 110.781 203.023 110.936 203.312C110.951 203.332 111.142 203.709 111.055 203.523C110.874 203.172 110.338 202.069 110.214 201.801C110.23 201.826 110.4 202.131 110.487 202.306C110.632 202.585 110.802 202.977 110.926 203.214C110.884 203.126 110.838 203.023 110.822 202.987C110.864 203.059 110.951 203.25 110.941 203.209C110.786 202.894 110.972 203.229 110.817 202.94C110.781 202.848 110.859 203.002 110.859 202.982C110.755 202.781 110.529 202.28 110.492 202.187C110.534 202.27 110.585 202.373 110.606 202.42C110.637 202.44 110.714 202.579 110.73 202.574C110.766 202.652 110.823 202.739 110.884 202.879C110.859 202.822 110.807 202.713 110.812 202.703C110.957 202.971 110.823 202.75 110.988 203.074C110.9 202.889 110.874 202.817 110.828 202.698C110.688 202.414 110.786 202.652 110.833 202.77C110.642 202.378 110.456 201.966 110.384 201.775C110.348 201.672 110.513 202.022 110.487 201.971C110.544 202.028 110.173 201.28 110.333 201.548C110.462 201.796 110.575 202.043 110.663 202.224C110.699 202.322 110.57 202.074 110.57 202.084L110.637 202.198C110.673 202.28 110.699 202.347 110.658 202.28C110.771 202.502 110.719 202.306 110.838 202.502C110.802 202.414 110.766 202.327 110.714 202.229L110.725 202.265C110.621 202.069 110.601 201.981 110.549 201.893C110.487 201.749 110.389 201.522 110.456 201.63L110.596 201.914C110.554 201.832 110.508 201.749 110.544 201.837C110.487 201.708 110.75 202.213 110.57 201.837L110.467 201.646C110.405 201.502 110.266 201.192 110.322 201.28C110.183 201.001 110.338 201.311 110.168 200.986C110.374 201.393 110.137 200.986 110.353 201.404C110.162 201.027 110.26 201.249 110.095 200.929C110.142 201.022 110.188 201.104 110.157 201.063C110.173 201.089 110.188 201.125 110.193 201.146C110.193 201.146 110.193 201.146 110.193 201.141C110.193 201.141 110.193 201.146 110.199 201.151C110.204 201.166 110.209 201.166 110.199 201.151C110.219 201.192 110.245 201.239 110.271 201.29C110.374 201.507 110.353 201.507 110.405 201.62C110.379 201.579 110.353 201.512 110.302 201.414L110.374 201.584C110.271 201.378 110.193 201.244 110.142 201.115H110.126C110.065 200.996 110.034 200.955 110.07 201.043C110.044 201.001 110.168 201.28 110.095 201.115L110.142 201.254L110.116 201.202C110.085 201.182 110.25 201.563 110.049 201.197C110.07 201.254 110.095 201.321 110.059 201.264L109.972 201.084C109.997 201.151 109.863 200.914 109.951 201.104C109.709 200.625 109.869 201.017 109.812 200.934L109.925 201.171C109.925 201.171 109.936 201.233 109.972 201.331L110.075 201.538C110.147 201.713 109.982 201.404 109.977 201.429C109.941 201.347 109.951 201.367 109.977 201.414C109.729 200.955 110.106 201.775 109.925 201.44C109.956 201.517 109.941 201.491 109.915 201.44C109.915 201.44 109.915 201.44 109.915 201.429C109.894 201.393 109.874 201.352 109.858 201.321C109.884 201.373 109.905 201.414 109.915 201.429C109.915 201.434 109.92 201.465 109.941 201.517L109.832 201.295C109.832 201.295 109.832 201.295 109.832 201.3C109.786 201.218 109.879 201.409 109.967 201.574C109.982 201.61 110.003 201.656 110.028 201.713C109.848 201.352 110.075 201.842 109.884 201.46C109.972 201.651 109.93 201.61 110.121 202.007C110.095 201.955 110.085 201.93 110.085 201.93C110.059 201.888 110.034 201.847 110.085 201.955L109.946 201.672L110.121 202.059C110.028 201.888 109.977 201.79 109.879 201.569C110.028 201.914 109.93 201.703 110.075 202.043L109.987 201.857C109.987 201.857 110.101 202.115 110.023 201.966C109.843 201.62 109.946 201.945 109.76 201.63C110.028 202.167 109.631 201.393 109.832 201.816C109.771 201.687 109.729 201.62 109.678 201.507C109.724 201.641 109.559 201.316 109.719 201.672C109.657 201.543 109.631 201.481 109.59 201.409C109.6 201.435 109.642 201.522 109.6 201.445C109.564 201.367 109.549 201.337 109.523 201.28C109.523 201.306 109.709 201.703 109.889 202.074C109.796 201.904 109.807 201.93 109.92 202.172C109.858 202.053 109.791 201.93 109.781 201.878C109.765 201.863 109.662 201.713 109.807 202.012C109.771 201.94 109.791 201.991 109.807 202.028C109.786 202.017 109.771 201.991 109.776 202.022L109.802 202.069C109.972 202.43 109.832 202.151 109.843 202.198L109.827 202.162C109.683 201.914 109.879 202.291 109.714 202.007L109.822 202.229C110.054 202.708 109.667 201.955 109.745 202.146L109.812 202.27C109.884 202.435 109.477 201.63 109.441 201.574C109.42 201.532 109.41 201.507 109.399 201.476C109.245 201.202 109.539 201.77 109.559 201.842C109.482 201.687 109.368 201.44 109.343 201.414C109.276 201.29 109.569 201.935 109.41 201.641C109.472 201.759 109.533 201.878 109.569 201.976C109.58 202.022 109.322 201.527 109.502 201.914C109.487 201.883 109.472 201.852 109.456 201.821C109.497 201.924 109.513 201.997 109.611 202.203C109.229 201.44 109.75 202.595 109.404 201.888V201.935L109.368 201.863C109.332 201.821 109.41 201.997 109.487 202.167C109.461 202.12 109.43 202.053 109.415 202.017C109.327 201.883 109.337 201.914 109.492 202.275L109.379 202.048C109.441 202.182 109.178 201.703 109.286 201.981C109.276 201.955 109.25 201.909 109.239 201.878C109.348 202.156 108.879 201.264 109.276 202.105L109.363 202.316C109.415 202.373 109.539 202.683 109.611 202.817C109.626 202.868 109.472 202.574 109.456 202.528L109.477 202.569C109.265 202.131 109.379 202.425 109.234 202.131C109.209 202.172 109.059 201.945 109.013 201.945L109.183 202.28L109.162 202.265C109.121 202.187 109.028 202.002 109.044 202.012C108.946 201.821 109.105 202.182 109.142 202.255C109.059 202.126 108.956 201.857 108.946 201.852V201.883L108.971 201.924C109.033 202.064 109.105 202.213 109.085 202.203C109.044 202.136 108.982 201.997 108.971 201.981C108.961 201.955 108.951 201.945 108.961 201.971L108.93 201.95L109.064 202.213C109.121 202.347 109.044 202.208 109.198 202.507C108.961 202.043 109.064 202.368 108.987 202.224C109.074 202.425 109.064 202.425 109.038 202.404C109.069 202.461 109.219 202.76 109.188 202.729C108.889 202.105 109.038 202.466 108.811 202.022C108.961 202.316 108.822 202.11 109.033 202.523C109.002 202.476 108.92 202.291 108.842 202.146C108.94 202.394 108.724 202.012 108.739 202.105C108.781 202.187 108.842 202.311 108.899 202.435L108.688 202.033C108.703 202.074 108.915 202.507 108.765 202.229C108.801 202.296 108.853 202.399 108.863 202.425C108.621 202.048 108.925 202.796 108.518 202.074C108.6 202.229 108.605 202.244 108.6 202.255C108.621 202.291 108.698 202.456 108.755 202.564L108.585 202.265C108.729 202.574 108.574 202.296 108.714 202.59L108.693 202.533C108.853 202.884 109.08 203.296 109.296 203.74C109.116 203.343 109.606 204.312 109.348 203.74C109.394 203.827 109.415 203.884 109.466 203.987C109.379 203.797 109.363 203.755 109.415 203.833L109.435 203.879C109.435 203.822 109.539 204.003 109.626 204.116L109.518 203.9C109.539 203.925 109.575 203.992 109.6 204.049C109.446 203.714 109.575 204.039 109.404 203.668C109.631 204.111 109.451 203.652 109.704 204.158C109.714 204.158 109.575 203.905 109.585 203.905L109.652 204.039L109.569 203.858C109.59 203.884 109.678 204.054 109.735 204.173C109.724 204.158 109.745 204.209 109.75 204.219C109.838 204.379 109.745 204.152 109.771 204.204L109.719 204.121C109.683 203.982 109.796 204.147 109.688 203.853L109.637 203.75C109.559 203.549 109.709 203.858 109.683 203.76L109.693 203.786C109.647 203.683 109.626 203.626 109.637 203.637C109.688 203.76 109.76 203.869 109.822 204.003C109.74 203.786 109.755 203.838 109.58 203.446L109.667 203.616C109.595 203.456 109.554 203.379 109.544 203.327C109.606 203.477 109.678 203.585 109.765 203.786C109.972 204.152 109.611 203.389 109.889 203.936C109.667 203.456 109.745 203.678 109.698 203.575C109.616 203.42 109.533 203.214 109.564 203.26C109.575 203.265 109.874 203.864 109.884 203.848C109.884 203.848 109.9 203.884 109.894 203.879C109.961 203.998 109.827 203.709 109.93 203.9C109.796 203.611 109.951 203.91 109.771 203.544L109.796 203.637C109.76 203.539 109.559 203.105 109.673 203.307C109.709 203.379 109.75 203.482 109.776 203.539C109.832 203.647 109.75 203.461 109.807 203.57C109.982 203.936 109.827 203.657 109.956 203.941C110.039 204.096 109.843 203.668 110.034 204.065C109.796 203.554 110.08 204.121 109.905 203.729L110.013 203.951C109.997 203.915 109.951 203.812 109.956 203.812L110.09 204.101C109.982 203.853 110.214 204.307 110.157 204.168C110.142 204.183 110.023 203.905 109.936 203.75C109.817 203.446 110.23 204.317 110.204 204.199C110.214 204.23 110.126 204.075 110.08 203.967C110.106 204.008 110.152 204.09 110.214 204.204C110.209 204.152 110.101 203.977 110.044 203.838C110.178 204.101 109.997 203.724 109.967 203.637L110.075 203.858C110.162 203.992 109.853 203.389 109.956 203.554L110.101 203.869L110.07 203.786L110.193 204.039C110.111 203.843 110.137 203.895 110.183 203.962C110.106 203.807 109.987 203.554 109.992 203.544C110.065 203.673 110.09 203.76 110.09 203.719C110.157 203.858 110.24 204.039 110.132 203.833C110.168 203.905 110.199 203.972 110.23 204.044C110.312 204.194 110.26 204.07 110.266 204.065C110.26 204.06 110.25 204.044 110.235 204.013L110.101 203.693C110.142 203.776 110.173 203.843 110.204 203.91C110.193 203.884 110.147 203.781 110.142 203.76C110.23 203.941 110.322 204.132 110.353 204.219L110.271 204.008C110.312 204.085 110.384 204.219 110.415 204.286C110.477 204.39 110.266 203.92 110.348 204.06C110.333 204.023 110.317 203.987 110.307 203.962C110.338 203.998 110.456 204.214 110.348 203.962L110.513 204.281C110.487 204.204 110.302 203.874 110.26 203.745C110.224 203.637 110.4 204.018 110.451 204.111C110.379 203.946 110.224 203.606 110.369 203.864C110.395 203.925 110.369 203.879 110.379 203.905H110.384ZM110.446 203.699C110.467 203.745 110.534 203.894 110.467 203.76C110.343 203.503 110.405 203.626 110.446 203.699ZM110.384 203.064C110.42 203.142 110.4 203.105 110.353 203.023C110.348 203.002 110.353 203.013 110.384 203.064ZM110.183 201.233C110.183 201.233 110.183 201.239 110.183 201.244C110.137 201.161 110.152 201.192 110.183 201.233ZM110.24 201.326C110.224 201.295 110.209 201.264 110.193 201.233C110.219 201.29 110.219 201.295 110.209 201.28C110.24 201.337 110.26 201.378 110.24 201.326ZM109.013 202.033L109.044 202.089C109.069 202.157 109.044 202.1 109.013 202.033Z" fill="#EFB04B"/>
<path d="M110.508 203.379C110.488 203.343 110.467 203.302 110.446 203.26C110.462 203.296 110.482 203.343 110.508 203.379Z" fill="#EFB04B"/>
<path d="M110.358 204.065C110.364 204.081 110.369 204.091 110.38 204.107L110.364 204.07L110.358 204.065Z" fill="#EFB04B"/>
<path d="M110.982 203.312C110.961 203.281 110.941 203.239 110.92 203.198C110.946 203.255 110.971 203.296 110.982 203.312Z" fill="#EFB04B"/>
<path d="M110.121 200.914L110.142 200.975C110.142 200.975 110.167 201.012 110.183 201.048C110.157 200.996 110.121 200.919 110.121 200.914Z" fill="#EFB04B"/>
<path d="M110.859 202.265C110.848 202.239 110.859 202.265 110.848 202.234L110.797 202.131C110.797 202.131 110.833 202.224 110.859 202.265Z" fill="#EFB04B"/>
<path d="M110.487 201.651C110.58 201.837 110.554 201.775 110.544 201.734C110.415 201.471 110.456 201.558 110.492 201.651H110.487Z" fill="#EFB04B"/>
<path d="M110.539 201.729C110.539 201.729 110.539 201.713 110.539 201.724C110.487 201.614 110.529 201.703 110.539 201.729Z" fill="#EFB04B"/>
<path d="M110.198 201.192C110.224 201.239 110.085 200.95 110.121 201.027C110.007 200.785 110.245 201.326 110.198 201.192Z" fill="#EFB04B"/>
<path d="M110.796 202.27L110.678 202.038L110.765 202.229L110.796 202.27Z" fill="#EFB04B"/>
<path d="M110.668 202.12L110.709 202.182C110.688 202.141 110.678 202.12 110.673 202.1C110.663 202.095 110.637 202.053 110.673 202.12H110.668Z" fill="#EFB04B"/>
<path d="M110.673 202.101C110.673 202.101 110.673 202.101 110.662 202.059C110.662 202.059 110.662 202.069 110.673 202.101Z" fill="#EFB04B"/>
<path d="M110.818 202.348L110.792 202.301L110.776 202.285L110.818 202.348Z" fill="#EFB04B"/>
<path d="M110.554 202.12L110.575 202.193C110.611 202.276 110.637 202.322 110.627 202.286C110.601 202.229 110.59 202.198 110.549 202.12H110.554Z" fill="#EFB04B"/>
<path d="M110.894 202.744C110.869 202.698 110.843 202.646 110.807 202.569L110.946 202.858L110.894 202.744Z" fill="#EFB04B"/>
<path d="M110.899 202.822C110.936 202.904 110.997 203.059 111.003 203.033C110.966 202.956 110.941 202.884 110.899 202.822Z" fill="#EFB04B"/>
<path d="M110.586 202.528V202.523L110.354 202.048L110.586 202.528Z" fill="#EFB04B"/>
<path d="M111.013 203.714C111.08 203.822 110.874 203.42 110.951 203.559C110.899 203.446 110.889 203.446 110.843 203.348C110.894 203.467 110.858 203.405 111.013 203.714Z" fill="#EFB04B"/>
<path d="M110.844 203.353C110.844 203.353 110.828 203.312 110.812 203.281C110.823 203.312 110.833 203.333 110.844 203.353Z" fill="#EFB04B"/>
<path d="M108.466 202.002L108.409 201.909L108.492 202.064L108.466 202.002Z" fill="#EFB04B"/>
<path d="M108.62 202.358L108.471 202.059L108.6 202.332C108.6 202.332 108.584 202.291 108.62 202.358Z" fill="#EFB04B"/>
<path d="M110.761 204.297L110.725 204.225C110.683 204.147 110.683 204.142 110.673 204.132L110.761 204.297Z" fill="#EFB04B"/>
<path d="M110.554 204.116L110.559 204.121L110.425 203.853L110.554 204.116Z" fill="#EFB04B"/>
<path d="M110.642 204.503C110.642 204.503 110.627 204.451 110.632 204.462C110.647 204.513 110.472 204.168 110.642 204.503Z" fill="#EFB04B"/>
<path d="M123.342 205.854C123.342 205.854 123.482 205.994 123.508 206.02C123.477 205.984 123.301 205.813 123.342 205.854Z" fill="#EFB04B"/>
<path d="M123.003 205.504L123.065 205.566L122.915 205.411L123.003 205.504Z" fill="#EFB04B"/>
<path d="M123.012 205.498C122.749 205.241 123.053 205.545 122.955 205.452L122.894 205.395L123.1 205.607C123.069 205.571 122.93 205.431 123.007 205.504L123.012 205.498Z" fill="#EFB04B"/>
<path d="M123.579 206.056C123.476 205.952 123.492 205.968 123.549 206.025C123.559 206.035 123.564 206.04 123.574 206.05C123.574 206.05 123.574 206.05 123.579 206.056Z" fill="#EFB04B"/>
<path d="M123.518 205.989L123.605 206.081C123.667 206.143 123.677 206.154 123.724 206.195C123.677 206.143 123.616 206.087 123.518 205.989Z" fill="#EFB04B"/>
<path d="M123.332 205.798L123.368 205.839C123.368 205.839 123.405 205.875 123.332 205.798Z" fill="#EFB04B"/>
<path d="M123.445 205.916L123.368 205.834C123.327 205.792 123.239 205.71 123.399 205.865C123.322 205.787 123.399 205.865 123.45 205.916H123.445Z" fill="#EFB04B"/>
<path d="M123.411 205.881C123.354 205.824 123.318 205.788 123.229 205.7C123.266 205.736 123.447 205.923 123.411 205.881Z" fill="#EFB04B"/>
<path d="M122.744 205.225L122.667 205.148L122.755 205.235C122.713 205.194 122.827 205.302 122.744 205.225Z" fill="#EFB04B"/>
<path d="M123.662 206.117C123.605 206.06 123.512 205.968 123.445 205.901L123.507 205.963C123.543 205.999 123.579 206.035 123.662 206.117Z" fill="#EFB04B"/>
<path d="M123.44 205.896L123.348 205.798C123.348 205.798 123.379 205.834 123.44 205.896Z" fill="#EFB04B"/>
<path d="M123.043 205.509L123.239 205.71L123.038 205.504L123.043 205.509Z" fill="#EFB04B"/>
<path d="M123.673 206.118L123.802 206.247L123.605 206.05L123.673 206.118Z" fill="#EFB04B"/>
<path d="M123.652 206.092C123.755 206.2 123.833 206.272 123.9 206.334C123.879 206.313 123.792 206.221 123.709 206.138C123.755 206.184 123.74 206.174 123.652 206.086V206.092Z" fill="#EFB04B"/>
<path d="M123.59 206.019C123.59 206.019 123.662 206.091 123.708 206.138C123.683 206.112 123.652 206.076 123.59 206.019Z" fill="#EFB04B"/>
<path d="M123.379 205.829C123.415 205.86 123.503 205.948 123.54 205.984L123.384 205.829H123.379Z" fill="#EFB04B"/>
<path d="M123.374 205.823L123.385 205.834C123.385 205.834 123.379 205.834 123.368 205.823H123.374Z" fill="#EFB04B"/>
<path d="M123.38 205.825C123.358 205.802 123.363 205.808 123.38 205.825V205.825Z" fill="#EFB04B"/>
<path d="M123.188 205.643C123.1 205.555 123.007 205.462 122.873 205.328C122.981 205.437 123.054 205.509 123.188 205.643Z" fill="#EFB04B"/>
<path d="M123.183 205.633L123.146 205.596C123.188 205.638 123.25 205.7 123.291 205.741L123.183 205.633Z" fill="#EFB04B"/>
<path d="M123.131 205.581L123.183 205.633L123.193 205.644L123.131 205.581Z" fill="#EFB04B"/>
<path d="M123.441 205.88C123.374 205.813 123.369 205.808 123.358 205.793C123.327 205.762 123.312 205.746 123.307 205.746C123.353 205.798 123.441 205.885 123.441 205.875V205.88Z" fill="#EFB04B"/>
<path d="M123.395 205.84C123.395 205.84 123.39 205.835 123.384 205.829C123.368 205.813 123.368 205.813 123.395 205.84Z" fill="#EFB04B"/>
<path d="M123.369 205.788C123.369 205.788 123.348 205.767 123.338 205.761C123.348 205.772 123.354 205.777 123.364 205.788H123.369Z" fill="#EFB04B"/>
<path d="M123.281 205.72C123.25 205.689 123.286 205.731 123.338 205.777C123.323 205.762 123.312 205.751 123.312 205.746C123.291 205.725 123.276 205.71 123.281 205.715V205.72Z" fill="#EFB04B"/>
<path d="M123.518 205.947C123.487 205.916 123.456 205.885 123.431 205.865C123.482 205.916 123.56 205.989 123.518 205.947Z" fill="#EFB04B"/>
<path d="M123.431 205.87L123.436 205.875C123.474 205.908 123.452 205.891 123.431 205.87Z" fill="#EFB04B"/>
<path d="M123.431 205.87C123.431 205.87 123.369 205.808 123.338 205.772C123.348 205.782 123.364 205.803 123.389 205.823C123.4 205.834 123.415 205.849 123.431 205.865V205.87Z" fill="#EFB04B"/>
<path d="M122.368 204.782C122.513 204.926 122.647 205.06 122.487 204.905C122.595 205.014 123.069 205.488 123.338 205.751C123.276 205.689 123.214 205.627 123.131 205.545C123.054 205.467 122.946 205.364 122.817 205.23C122.745 205.153 122.868 205.282 122.946 205.354C122.765 205.174 122.688 205.091 122.42 204.828L122.513 204.921C122.471 204.88 122.404 204.812 122.368 204.776V204.782Z" fill="#EFB04B"/>
<path d="M123.322 205.746L123.338 205.767C123.338 205.767 123.42 205.849 123.534 205.963C123.462 205.891 123.41 205.839 123.364 205.787L123.343 205.772L123.322 205.751V205.746Z" fill="#EFB04B"/>
<path d="M123.337 205.767C123.183 205.607 123.115 205.54 122.945 205.37C122.956 205.38 123.074 205.504 123.141 205.571C123.105 205.53 123.229 205.658 123.317 205.746C123.342 205.772 123.353 205.782 123.358 205.787C123.378 205.808 123.399 205.829 123.43 205.86C123.43 205.86 123.425 205.854 123.42 205.849C123.399 205.829 123.389 205.818 123.399 205.829C123.378 205.808 123.358 205.787 123.342 205.767C123.373 205.798 123.384 205.808 123.399 205.829C123.404 205.834 123.415 205.844 123.425 205.854L123.342 205.767H123.337Z" fill="#EFB04B"/>
<path d="M122.538 204.993C122.538 204.993 122.564 205.019 122.575 205.03C122.554 205.009 122.543 204.998 122.538 204.993Z" fill="#EFB04B"/>
<path d="M122.631 205.086C122.631 205.086 122.714 205.173 122.698 205.153C122.652 205.106 122.621 205.075 122.569 205.024C122.611 205.065 122.683 205.137 122.76 205.215L122.739 205.194C122.796 205.246 122.992 205.442 123.013 205.462C122.874 205.323 122.77 205.22 122.631 205.081V205.086Z" fill="#EFB04B"/>
<path d="M122.945 205.385L122.868 205.308L122.729 205.174L122.811 205.256C122.78 205.225 122.878 205.323 122.94 205.39L122.945 205.385Z" fill="#EFB04B"/>
<path d="M123.446 205.865L123.611 206.03L123.379 205.792L123.446 205.865Z" fill="#EFB04B"/>
<path d="M123.431 205.839L123.575 205.988L123.487 205.896L123.431 205.839Z" fill="#EFB04B"/>
<path d="M121.797 203.896L121.755 203.853C121.755 203.853 121.782 203.88 121.797 203.896Z" fill="#EFB04B"/>
<path d="M121.78 203.889L121.853 203.962C121.811 203.921 121.785 203.895 121.78 203.889Z" fill="#EFB04B"/>
<path d="M123.481 205.756C123.616 205.89 123.827 206.097 123.667 205.937L123.507 205.777C123.533 205.808 123.518 205.787 123.481 205.756Z" fill="#EFB04B"/>
<path d="M122.58 204.766C122.58 204.766 122.549 204.735 122.533 204.72C122.585 204.776 122.636 204.823 122.683 204.869C122.652 204.838 122.616 204.802 122.58 204.766Z" fill="#EFB04B"/>
<path d="M121.93 204.111L122.033 204.214C121.997 204.178 121.961 204.147 121.93 204.111Z" fill="#EFB04B"/>
<path d="M121.652 203.705L121.491 203.544C121.491 203.544 121.574 203.627 121.652 203.705Z" fill="#EFB04B"/>
<path d="M123.399 205.756C123.461 205.818 123.487 205.844 123.497 205.849C123.404 205.761 123.27 205.622 123.399 205.756Z" fill="#EFB04B"/>
<path d="M123.472 205.576C123.446 205.545 123.41 205.514 123.374 205.478C123.4 205.504 123.431 205.535 123.472 205.576Z" fill="#EFB04B"/>
<path d="M123.497 205.844C123.497 205.844 123.471 205.818 123.461 205.808C123.487 205.834 123.507 205.859 123.497 205.849C123.564 205.916 123.605 205.957 123.497 205.849V205.844Z" fill="#EFB04B"/>
<path d="M121.868 203.745C121.868 203.745 121.879 203.756 121.89 203.767C121.868 203.745 121.868 203.745 121.868 203.745Z" fill="#EFB04B"/>
<path d="M123.492 205.318C123.492 205.318 123.503 205.329 123.503 205.334C123.514 205.345 123.514 205.345 123.492 205.318Z" fill="#EFB04B"/>
<path d="M122.878 205.277C122.878 205.277 122.837 205.236 122.801 205.199C122.837 205.236 122.863 205.262 122.878 205.277Z" fill="#EFB04B"/>
<path d="M122.519 204.855C122.486 204.822 122.491 204.828 122.519 204.855V204.855Z" fill="#EFB04B"/>
<path d="M123.436 205.829C123.436 205.829 123.473 205.866 123.483 205.877C123.473 205.866 123.457 205.85 123.436 205.829Z" fill="#EFB04B"/>
<path d="M123.513 205.901C123.513 205.901 123.502 205.891 123.497 205.885C123.524 205.912 123.54 205.928 123.513 205.901Z" fill="#EFB04B"/>
<path d="M123.504 205.891C123.504 205.891 123.498 205.891 123.487 205.875C123.498 205.886 123.509 205.897 123.514 205.902C123.514 205.902 123.509 205.897 123.504 205.891Z" fill="#EFB04B"/>
<path d="M122.245 204.22C122.245 204.22 122.256 204.231 122.261 204.236C122.193 204.167 122.203 204.178 122.245 204.22Z" fill="#EFB04B"/>
<path d="M121.853 204.101L121.858 204.106L121.869 204.112L121.853 204.101Z" fill="#EFB04B"/>
<path d="M121.739 203.982C121.935 204.178 121.909 204.158 121.868 204.116L122.327 204.57L121.739 203.982Z" fill="#EFB04B"/>
<path d="M121.76 203.838L121.615 203.699C121.383 203.461 121.466 203.544 121.265 203.343C121.76 203.838 121.311 203.4 121.806 203.895L121.703 203.791C121.703 203.791 121.677 203.766 121.682 203.771C121.445 203.534 122.038 204.132 121.966 204.06C121.925 204.024 121.852 203.951 121.796 203.889L121.914 204.013C121.914 204.013 121.816 203.92 121.827 203.926L121.863 203.967L121.847 203.951C121.925 204.029 122.043 204.152 122.095 204.204C122.023 204.132 122.043 204.152 121.981 204.091L122.1 204.214C121.971 204.085 121.847 203.962 121.868 203.977C121.373 203.482 121.992 204.101 121.698 203.817L121.636 203.755C121.352 203.477 121.455 203.58 121.28 203.405C121.373 203.497 121.724 203.843 121.847 203.967C121.811 203.931 121.791 203.915 121.889 204.013C121.713 203.838 121.755 203.879 121.765 203.895L121.533 203.663C121.6 203.73 121.718 203.848 121.822 203.956C121.796 203.936 121.615 203.755 121.466 203.601C121.425 203.565 121.755 203.889 121.796 203.936C121.703 203.848 121.796 203.946 121.935 204.085C121.852 204.008 121.791 203.941 121.724 203.874L121.909 204.06C121.909 204.06 121.847 203.998 121.816 203.967C121.889 204.039 122.048 204.199 122.11 204.266C122.368 204.524 121.734 203.895 122.023 204.189C121.956 204.122 121.878 204.044 121.791 203.956C121.981 204.152 121.93 204.096 122.183 204.359L122.028 204.209C122.203 204.385 122.409 204.591 122.58 204.766C122.662 204.849 122.739 204.926 122.775 204.957L122.899 205.086C122.863 205.05 122.781 204.967 122.683 204.869C122.703 204.89 122.719 204.905 122.739 204.926C122.652 204.838 122.518 204.704 122.389 204.575C122.435 204.622 122.487 204.668 122.533 204.72C122.394 204.575 122.234 204.421 122.1 204.281C122.126 204.307 122.152 204.333 122.162 204.343C122.126 204.307 122.09 204.271 122.064 204.245C122.038 204.22 122.09 204.271 122.152 204.333L121.889 204.075L121.992 204.178L121.827 204.018C122.085 204.281 122.471 204.668 122.574 204.782C122.384 204.591 122.265 204.472 122.038 204.245C122.28 204.483 121.94 204.142 121.992 204.189C121.966 204.163 121.858 204.054 121.822 204.018L122.038 204.24C121.852 204.054 121.899 204.101 121.822 204.029C122.188 204.395 122.064 204.276 122.172 204.39C122.048 204.266 121.925 204.142 121.956 204.168C121.677 203.895 122.384 204.601 122.146 204.369C122.146 204.369 122.162 204.385 122.1 204.323C122.208 204.431 122.121 204.348 122.012 204.24C121.966 204.199 122.002 204.24 122.311 204.555C122.27 204.513 121.94 204.178 121.873 204.116L122.91 205.163C122.641 204.895 122.007 204.266 121.858 204.111C121.822 204.075 121.775 204.029 121.868 204.127C121.904 204.163 122.255 204.508 122.275 204.534C121.976 204.24 122.115 204.374 121.863 204.127C121.92 204.183 122.337 204.601 122.322 204.591C122.26 204.529 121.909 204.178 121.868 204.137L122.275 204.55C122.203 204.477 121.93 204.204 121.811 204.085C121.894 204.168 121.801 204.08 121.842 204.122L121.94 204.214C121.873 204.158 122.513 204.792 122.492 204.776C122.409 204.689 121.971 204.256 121.92 204.204C122.131 204.415 122.925 205.215 123.085 205.38L122.966 205.261L123.1 205.4C122.786 205.081 122.126 204.415 121.868 204.152C121.77 204.06 121.724 204.013 121.734 204.024C121.62 203.91 121.564 203.853 121.559 203.843L121.481 203.776C121.729 204.024 121.724 204.024 121.93 204.23L121.677 203.972C121.92 204.214 122.368 204.668 122.327 204.627C122.229 204.529 121.889 204.189 121.811 204.106C121.894 204.189 121.971 204.271 121.909 204.209L121.78 204.075C121.687 203.982 122.105 204.4 121.868 204.168C121.852 204.152 121.548 203.853 121.698 203.998C121.976 204.276 122.843 205.143 123.054 205.354C123.033 205.333 122.786 205.091 122.647 204.952C122.425 204.735 122.126 204.426 121.935 204.24C122.002 204.307 122.085 204.39 122.11 204.415C122.054 204.359 121.904 204.209 121.93 204.24C122.177 204.488 121.904 204.22 122.141 204.452C122.213 204.524 122.09 204.4 122.1 204.415C122.26 204.575 122.647 204.962 122.714 205.034C122.652 204.972 122.569 204.89 122.528 204.854C122.502 204.833 122.389 204.725 122.384 204.725C122.322 204.663 122.25 204.591 122.141 204.488C122.182 204.534 122.27 204.617 122.275 204.622C122.059 204.41 122.244 204.586 121.987 204.328C122.131 204.472 122.183 204.529 122.275 204.622C122.497 204.844 122.322 204.663 122.234 204.57C122.543 204.88 122.863 205.205 123.002 205.349C123.075 205.426 122.801 205.153 122.848 205.194C122.791 205.143 123.384 205.736 123.157 205.514C122.961 205.318 122.765 205.122 122.626 204.983C122.554 204.905 122.755 205.107 122.745 205.096L122.652 205.003C122.585 204.936 122.538 204.885 122.595 204.941C122.42 204.766 122.554 204.916 122.389 204.756C122.456 204.823 122.523 204.89 122.6 204.967L122.574 204.936C122.734 205.091 122.791 205.158 122.868 205.23C122.977 205.344 123.152 205.519 123.059 205.431L122.837 205.21C122.904 205.277 122.971 205.344 122.904 205.272C123.002 205.37 122.6 204.972 122.889 205.266L123.044 205.421C123.157 205.535 123.389 205.772 123.317 205.705C123.539 205.927 123.291 205.679 123.549 205.937C123.224 205.617 123.564 205.947 123.229 205.612C123.528 205.911 123.358 205.736 123.616 205.994C123.544 205.921 123.477 205.854 123.513 205.89C123.492 205.87 123.466 205.839 123.446 205.823C123.446 205.823 123.446 205.823 123.451 205.829C123.451 205.829 123.446 205.823 123.441 205.818C123.425 205.803 123.43 205.808 123.441 205.818C123.41 205.787 123.368 205.746 123.327 205.705C123.157 205.535 123.167 205.54 123.08 205.452C123.116 205.488 123.162 205.535 123.245 205.617L123.116 205.483C123.281 205.648 123.389 205.751 123.482 205.849H123.492C123.585 205.947 123.621 205.983 123.554 205.911C123.59 205.947 123.374 205.725 123.503 205.854L123.405 205.751L123.446 205.792C123.446 205.792 123.178 205.514 123.477 205.808C123.436 205.767 123.389 205.715 123.436 205.762L123.58 205.901C123.533 205.849 123.724 206.04 123.58 205.89C123.961 206.272 123.668 205.968 123.74 206.035L123.554 205.849C123.554 205.849 123.513 205.803 123.441 205.731L123.276 205.566C123.142 205.431 123.394 205.679 123.379 205.658C123.441 205.72 123.425 205.705 123.384 205.669C123.755 206.035 123.121 205.395 123.394 205.658C123.338 205.596 123.358 205.617 123.394 205.658C123.394 205.658 123.394 205.658 123.405 205.669C123.436 205.694 123.466 205.731 123.492 205.756C123.451 205.715 123.42 205.684 123.405 205.669C123.405 205.669 123.384 205.643 123.343 205.602L123.518 205.777C123.518 205.777 123.518 205.777 123.518 205.772C123.585 205.834 123.436 205.689 123.301 205.555C123.271 205.524 123.24 205.493 123.198 205.447C123.482 205.731 123.106 205.349 123.41 205.653C123.26 205.504 123.301 205.54 122.992 205.23C123.033 205.272 123.054 205.292 123.054 205.292C123.09 205.328 123.126 205.359 123.038 205.272L123.26 205.493L122.961 205.189C123.1 205.323 123.178 205.401 123.348 205.576C123.085 205.308 123.25 205.473 122.992 205.21L123.136 205.354C123.136 205.354 122.941 205.153 123.059 205.272C123.338 205.545 123.105 205.303 123.363 205.55C122.935 205.127 123.554 205.741 123.229 205.411C123.332 205.509 123.389 205.566 123.472 205.653C123.374 205.55 123.637 205.808 123.358 205.529C123.461 205.633 123.508 205.679 123.564 205.736C123.544 205.715 123.477 205.648 123.539 205.705C123.601 205.767 123.621 205.787 123.668 205.834C123.652 205.813 123.343 205.504 123.054 205.215C123.193 205.349 123.173 205.333 122.982 205.137C123.08 205.23 123.178 205.333 123.209 205.364C123.224 205.38 123.353 205.498 123.121 205.266C123.183 205.323 123.142 205.282 123.111 205.256C123.126 205.266 123.147 205.287 123.126 205.266L123.09 205.23C122.812 204.947 123.028 205.168 122.997 205.132L123.028 205.163C123.234 205.364 122.93 205.065 123.167 205.292L122.992 205.117C122.616 204.74 123.219 205.333 123.075 205.189L122.977 205.091C122.848 204.962 123.492 205.602 123.539 205.648C123.57 205.679 123.59 205.7 123.616 205.725C123.843 205.942 123.389 205.498 123.338 205.442C123.461 205.566 123.652 205.756 123.678 205.777C123.781 205.875 123.281 205.37 123.518 205.607C123.42 205.514 123.327 205.416 123.255 205.344C123.224 205.308 123.621 205.7 123.322 205.4C123.348 205.426 123.374 205.452 123.399 205.473C123.322 205.395 123.276 205.339 123.111 205.179C123.714 205.782 122.822 204.88 123.379 205.437L123.353 205.406L123.41 205.462C123.451 205.498 123.317 205.364 123.183 205.23C123.219 205.266 123.271 205.318 123.301 205.349C123.415 205.457 123.394 205.437 123.121 205.153L123.301 205.333C123.198 205.225 123.59 205.612 123.384 205.4C123.405 205.421 123.441 205.457 123.466 205.483C123.26 205.266 123.977 205.978 123.317 205.318L123.157 205.153C123.105 205.107 122.873 204.869 122.76 204.761C122.724 204.72 122.961 204.957 122.992 204.993L122.961 204.962C123.301 205.308 123.085 205.081 123.322 205.313C123.312 205.292 123.508 205.473 123.528 205.483L123.26 205.215L123.276 205.23C123.338 205.292 123.487 205.437 123.472 205.426C123.621 205.576 123.348 205.297 123.291 205.241C123.399 205.344 123.6 205.555 123.611 205.56L123.59 205.54L123.559 205.509C123.451 205.401 123.338 205.282 123.353 205.297C123.41 205.349 123.518 205.462 123.528 205.473C123.549 205.493 123.554 205.498 123.539 205.478L123.564 205.498L123.353 205.287C123.25 205.184 123.368 205.297 123.126 205.06C123.497 205.426 123.265 205.184 123.384 205.297C123.234 205.143 123.234 205.143 123.255 205.158C123.209 205.117 122.971 204.88 123.002 204.905C123.492 205.395 123.219 205.117 123.57 205.462C123.338 205.23 123.518 205.4 123.183 205.07C123.224 205.107 123.363 205.251 123.482 205.37C123.296 205.179 123.611 205.488 123.554 205.416C123.492 205.354 123.389 205.256 123.296 205.158L123.621 205.478C123.59 205.447 123.25 205.107 123.477 205.328C123.42 205.277 123.343 205.194 123.322 205.174C123.642 205.478 123.08 204.9 123.678 205.483C123.554 205.359 123.539 205.349 123.539 205.344C123.508 205.313 123.379 205.184 123.291 205.096L123.533 205.333C123.291 205.091 123.523 205.313 123.291 205.081L123.332 205.122C123.059 204.849 122.724 204.519 122.378 204.168C122.688 204.477 121.914 203.714 122.358 204.158C122.286 204.085 122.244 204.044 122.167 203.962C122.317 204.111 122.348 204.142 122.28 204.08L122.244 204.044C122.275 204.085 122.126 203.941 122.023 203.843L122.198 204.013C122.198 204.013 122.121 203.936 122.074 203.895C122.337 204.158 122.09 203.905 122.378 204.199C122.028 203.848 122.368 204.199 121.966 203.802C121.966 203.802 122.167 204.003 122.162 204.003L122.054 203.895L122.193 204.034C122.193 204.034 122.033 203.879 121.94 203.786C121.95 203.797 121.914 203.76 121.909 203.75C121.78 203.626 121.95 203.797 121.909 203.755L121.976 203.822C122.074 203.926 121.925 203.791 122.141 204.013L122.224 204.096C122.373 204.25 122.131 204.008 122.198 204.08L122.177 204.06C122.26 204.142 122.296 204.183 122.286 204.173C122.193 204.075 122.1 203.987 121.992 203.884C122.152 204.049 122.115 204.013 122.42 204.317L122.286 204.183C122.409 204.307 122.471 204.369 122.507 204.405C122.394 204.287 122.301 204.199 122.146 204.044C121.847 203.75 122.44 204.348 122.007 203.915C122.378 204.292 122.219 204.121 122.296 204.199C122.42 204.323 122.574 204.477 122.533 204.441C122.523 204.436 122.054 203.967 122.059 203.972L122.033 203.946C121.935 203.853 122.162 204.075 122.002 203.926C122.229 204.152 121.987 203.915 122.275 204.204L122.213 204.137C122.286 204.214 122.626 204.555 122.456 204.39C122.399 204.333 122.322 204.256 122.28 204.209C122.193 204.127 122.337 204.266 122.25 204.178C121.961 203.889 122.188 204.111 121.971 203.889C121.847 203.766 122.177 204.101 121.863 203.786C122.26 204.183 121.811 203.74 122.11 204.044L121.935 203.869C121.961 203.895 122.043 203.977 122.038 203.977L121.816 203.75C122.007 203.941 121.646 203.585 121.749 203.693C121.749 203.683 121.961 203.9 122.085 204.029C122.311 204.266 121.631 203.58 121.708 203.668C121.682 203.642 121.816 203.771 121.894 203.848C121.858 203.812 121.791 203.75 121.698 203.657C121.729 203.699 121.878 203.833 121.981 203.941C121.77 203.73 122.064 204.029 122.131 204.096L121.956 203.92C121.842 203.812 122.322 204.287 122.183 204.152L121.94 203.905L122.002 203.972L121.801 203.771C121.945 203.92 121.909 203.884 121.852 203.828C121.976 203.951 122.172 204.147 122.177 204.152C122.074 204.049 122.012 203.982 122.033 204.013C121.925 203.905 121.785 203.766 121.95 203.926C121.894 203.869 121.842 203.817 121.785 203.761C121.667 203.642 121.755 203.735 121.755 203.74C121.76 203.745 121.77 203.755 121.796 203.781L122.038 204.029C121.971 203.962 121.92 203.91 121.868 203.858C121.889 203.879 121.966 203.962 121.981 203.977C121.837 203.833 121.693 203.688 121.626 203.616L121.78 203.776C121.718 203.714 121.61 203.606 121.553 203.554C121.466 203.472 121.827 203.838 121.713 203.724C121.739 203.75 121.765 203.781 121.785 203.802C121.749 203.771 121.574 203.595 121.77 203.797L121.512 203.544C121.569 203.606 121.837 203.864 121.93 203.967C122.007 204.049 121.708 203.75 121.636 203.678C121.765 203.807 122.028 204.075 121.816 203.869C121.77 203.822 121.806 203.859 121.791 203.838H121.76ZM121.852 203.977C121.816 203.941 121.703 203.828 121.806 203.931C122.007 204.132 121.909 204.039 121.852 203.977ZM122.239 204.431C122.182 204.374 122.208 204.4 122.275 204.467C122.291 204.483 122.28 204.477 122.239 204.431ZM123.374 205.751C123.374 205.751 123.374 205.751 123.363 205.741C123.43 205.808 123.405 205.782 123.374 205.751ZM123.296 205.674C123.296 205.674 123.343 205.725 123.368 205.746C123.322 205.7 123.322 205.7 123.332 205.71C123.286 205.664 123.255 205.633 123.291 205.674H123.296ZM123.436 205.395L123.389 205.349C123.338 205.297 123.389 205.344 123.436 205.395Z" fill="#EFB04B"/>
<path d="M122.002 204.188C122.033 204.219 122.064 204.25 122.1 204.286C122.069 204.256 122.038 204.225 122.002 204.188Z" fill="#EFB04B"/>
<path d="M121.678 203.735C121.668 203.725 121.657 203.714 121.646 203.704L121.678 203.735Z" fill="#EFB04B"/>
<path d="M121.832 204.152C121.832 204.152 121.889 204.209 121.925 204.24C121.884 204.199 121.848 204.163 121.832 204.152Z" fill="#EFB04B"/>
<path d="M123.585 205.983L123.538 205.937C123.538 205.937 123.507 205.906 123.481 205.88C123.523 205.921 123.585 205.978 123.585 205.983Z" fill="#EFB04B"/>
<path d="M122.481 204.906C122.481 204.906 122.481 204.906 122.507 204.931L122.59 205.014C122.59 205.014 122.518 204.942 122.487 204.906H122.481Z" fill="#EFB04B"/>
<path d="M122.998 205.401C122.848 205.251 122.9 205.302 122.926 205.334C123.133 205.541 123.065 205.473 122.998 205.401Z" fill="#EFB04B"/>
<path d="M122.93 205.339C122.946 205.355 123.015 205.424 122.93 205.339V205.339Z" fill="#EFB04B"/>
<path d="M123.389 205.777C123.353 205.741 123.581 205.969 123.519 205.907C123.705 206.098 123.291 205.673 123.389 205.777Z" fill="#EFB04B"/>
<path d="M122.507 204.916L122.693 205.097L122.543 204.952L122.507 204.916Z" fill="#EFB04B"/>
<path d="M122.652 205.04L122.601 204.988C122.632 205.019 122.647 205.034 122.663 205.05C122.668 205.055 122.709 205.091 122.652 205.034V205.04Z" fill="#EFB04B"/>
<path d="M122.662 205.055C122.662 205.055 122.662 205.055 122.694 205.087C122.694 205.087 122.688 205.076 122.662 205.055Z" fill="#EFB04B"/>
<path d="M122.456 204.859L122.492 204.895L122.508 204.911L122.456 204.859Z" fill="#EFB04B"/>
<path d="M122.698 205.06L122.647 205.008C122.585 204.947 122.544 204.905 122.569 204.931C122.611 204.978 122.636 204.998 122.698 205.06Z" fill="#EFB04B"/>
<path d="M122.193 204.565C122.229 204.601 122.27 204.642 122.332 204.704L122.105 204.477L122.193 204.565Z" fill="#EFB04B"/>
<path d="M122.147 204.509C122.085 204.447 121.965 204.328 121.981 204.343C122.043 204.405 122.095 204.462 122.147 204.509Z" fill="#EFB04B"/>
<path d="M122.456 204.771L122.461 204.776L122.832 205.148L122.456 204.771Z" fill="#EFB04B"/>
<path d="M121.589 203.864C121.497 203.776 121.816 204.096 121.703 203.982C121.791 204.07 121.796 204.07 121.868 204.147C121.775 204.054 121.832 204.106 121.584 203.864H121.589Z" fill="#EFB04B"/>
<path d="M121.873 204.147C121.873 204.147 121.904 204.178 121.93 204.205C121.91 204.178 121.889 204.163 121.873 204.147Z" fill="#EFB04B"/>
<path d="M123.693 205.514L123.775 205.586L123.646 205.462L123.693 205.514Z" fill="#EFB04B"/>
<path d="M123.42 205.236L123.657 205.473L123.446 205.256C123.446 205.256 123.477 205.287 123.42 205.236Z" fill="#EFB04B"/>
<path d="M121.368 203.503L121.425 203.559C121.487 203.621 121.492 203.626 121.502 203.637L121.368 203.503Z" fill="#EFB04B"/>
<path d="M121.564 203.663L121.559 203.657L121.775 203.874L121.564 203.663Z" fill="#EFB04B"/>
<path d="M121.306 203.379C121.306 203.379 121.342 203.42 121.331 203.41C121.295 203.369 121.569 203.647 121.306 203.379Z" fill="#EFB04B"/>
<g opacity="0.2" style="mix-blend-mode:color-burn">
<path d="M31.9609 183.591C31.9609 182.946 31.997 182.306 32.0485 181.677C27.2737 184.498 24.0664 189.697 24.0664 195.643C24.0664 204.596 31.3215 211.852 40.273 211.852C45.3005 211.852 49.7969 209.562 52.767 205.968C41.1393 205.127 31.9609 195.432 31.9609 183.585V183.591Z" fill="#492771"/>
<path d="M31.9609 183.591C31.9609 182.946 31.997 182.306 32.0485 181.677C27.2737 184.498 24.0664 189.697 24.0664 195.643C24.0664 204.596 31.3215 211.852 40.273 211.852C45.3005 211.852 49.7969 209.562 52.767 205.968C41.1393 205.127 31.9609 195.432 31.9609 183.585V183.591Z" stroke="#492770" stroke-miterlimit="10"/>
</g>
<g opacity="0.2" style="mix-blend-mode:color-burn">
<path d="M242.275 184.055C242.275 183.41 242.239 182.771 242.187 182.142C246.962 184.963 250.169 190.161 250.169 196.107C250.169 205.06 242.914 212.316 233.963 212.316C228.935 212.316 224.439 210.027 221.469 206.432C233.096 205.591 242.275 195.896 242.275 184.05V184.055Z" fill="#492771"/>
<path d="M242.275 184.055C242.275 183.41 242.239 182.771 242.187 182.142C246.962 184.963 250.169 190.161 250.169 196.107C250.169 205.06 242.914 212.316 233.963 212.316C228.935 212.316 224.439 210.027 221.469 206.432C233.096 205.591 242.275 195.896 242.275 184.05V184.055Z" stroke="#492770" stroke-miterlimit="10"/>
</g>
<path d="M122.868 90.1213C122.915 97.9706 129.288 104.324 137.151 104.324C145.015 104.324 151.388 97.9758 151.435 90.1213H122.868Z" fill="#EFB04B" stroke="#EDC34C" stroke-miterlimit="10"/>
<path d="M122.868 114.149C122.915 121.998 129.288 128.352 137.151 128.352C145.015 128.352 151.388 122.003 151.435 114.149H122.868Z" fill="#EFB04B" stroke="#EDC34C" stroke-miterlimit="10"/>
<path d="M125.843 148.934C125.879 155.149 130.927 160.177 137.151 160.177C143.375 160.177 148.423 155.149 148.459 148.934H125.843Z" fill="#EFB04B" stroke="#EDC34C" stroke-miterlimit="10"/>
<path d="M80.4258 114.149C80.4722 121.998 86.8455 128.352 94.709 128.352C102.573 128.352 108.946 122.003 108.992 114.149H80.4258Z" fill="#EFB04B" stroke="#EDC34C" stroke-miterlimit="10"/>
<path d="M92.2852 139.662C92.3213 145.876 97.3694 150.904 103.593 150.904C109.817 150.904 114.865 145.876 114.901 139.662H92.2852Z" fill="#EFB04B" stroke="#EDC34C" stroke-miterlimit="10"/>
<path d="M165.729 114.149C165.775 121.998 172.148 128.352 180.012 128.352C187.875 128.352 194.249 122.003 194.295 114.149H165.729Z" fill="#EFB04B" stroke="#EDC34C" stroke-miterlimit="10"/>
<path d="M159.819 139.662C159.855 145.876 164.904 150.904 171.127 150.904C177.351 150.904 182.399 145.876 182.435 139.662H159.819Z" fill="#EFB04B" stroke="#EDC34C" stroke-miterlimit="10"/>
<rect y="204" width="273" height="30" rx="15" fill="#DBAEFF"/>
</svg>
