<svg width="1138" height="1138" viewBox="0 0 1138 1138" fill="none" xmlns="http://www.w3.org/2000/svg">
<circle cx="569" cy="569" r="569" fill="#0B0B0B"/>
<circle cx="571" cy="578" r="381" fill="#111111"/>
<path d="M567.55 690.188L564.961 682.031C564.199 678.951 559.578 668.998 558.126 666.464C554.53 660.182 552.004 653.122 551.146 645.645C551.074 645.037 550.997 644.424 550.916 643.817C547.944 621.88 543.203 600.319 536.76 579.407L529.852 556.992C546.616 548.341 558.308 528.835 558.308 506.156C558.308 475.45 536.875 450.558 510.438 450.558C507.734 450.558 505.697 447.962 506.095 445.089C506.464 442.432 506.637 439.698 506.603 436.907C506.272 412.153 489.015 391.802 467.707 391.061C461.591 390.85 455.776 392.23 450.536 394.866C437.172 401.597 421.592 401.597 408.232 394.866C402.993 392.23 397.178 390.85 391.061 391.061C369.753 391.797 352.496 412.148 352.165 436.907C352.127 439.698 352.304 442.432 352.673 445.089C353.071 447.962 351.034 450.558 348.33 450.558C321.893 450.558 300.461 475.45 300.461 506.156C300.461 528.938 312.258 548.511 329.141 557.105L322.21 578.954C315.484 600.149 310.69 622.112 307.91 644.471C307.876 644.754 307.843 645.032 307.809 645.315C306.932 652.967 304.439 660.202 300.806 666.665C299.411 669.147 294.416 679.029 293.673 682.031L291.247 689.678C286.132 705.796 291.952 724.097 305.144 731.857C306.769 732.815 308.461 733.592 310.201 734.174C321.102 737.81 332.372 732.866 338.671 722.784C340.689 724.292 342.784 725.698 344.965 726.97L345.56 727.32C355.109 732.892 365.645 735.796 376.33 735.796H483.229C493.866 735.796 504.36 732.918 513.875 727.392L514 727.32C516.258 726.002 518.42 724.545 520.505 722.979C526.823 732.928 538.021 737.789 548.85 734.179C550.59 733.597 552.277 732.82 553.893 731.862C566.893 724.164 572.603 706.099 567.56 690.193L567.55 690.188Z" fill="#00B7FF"/>
<path d="M346.988 573.769L340.258 596.761C334.668 615.855 330.685 635.634 328.374 655.774C324.87 686.305 337.271 716.234 359.164 730.08L359.658 730.395C367.591 735.415 376.344 738.026 385.222 738.026H474.044C482.922 738.026 491.675 735.41 499.609 730.395C521.737 716.393 534.143 685.986 530.289 655.182C527.82 635.423 523.879 615.999 518.53 597.168L512.063 574.407C504.805 548.866 488.358 536.842 466.317 538.845C462.693 539.175 459.102 540.478 455.498 542.002C447.459 545.395 438.955 547.198 430.364 547.198H428.778C420.135 547.198 411.573 545.421 403.462 542.069C399.795 540.555 396.133 539.262 392.47 538.964C370.496 537.177 354.38 548.526 346.988 573.769Z" fill="#BAE2F5"/>
<path d="M395.576 463.869C411.016 463.869 423.533 450.423 423.533 433.837C423.533 417.251 411.016 403.806 395.576 403.806C380.136 403.806 367.619 417.251 367.619 433.837C367.619 450.423 380.136 463.869 395.576 463.869Z" fill="white"/>
<path d="M464.457 463.869C479.897 463.869 492.413 450.423 492.413 433.837C492.413 417.251 479.897 403.806 464.457 403.806C449.017 403.806 436.5 417.251 436.5 433.837C436.5 450.423 449.017 463.869 464.457 463.869Z" fill="white"/>
<path d="M392.111 457.34C399.055 457.34 404.685 449.146 404.685 439.038C404.685 428.931 399.055 420.737 392.111 420.737C385.167 420.737 379.537 428.931 379.537 439.038C379.537 449.146 385.167 457.34 392.111 457.34Z" fill="#1C1C1C" stroke="#1D1D1D" stroke-miterlimit="10"/>
<path d="M456.25 456.325C463.194 456.325 468.823 448.131 468.823 438.024C468.823 427.917 463.194 419.723 456.25 419.723C449.305 419.723 443.676 427.917 443.676 438.024C443.676 448.131 449.305 456.325 456.25 456.325Z" fill="#1C1C1C" stroke="#1D1D1D" stroke-miterlimit="10"/>
<g opacity="0.2" style="mix-blend-mode:color-burn">
<path d="M391.578 488.937C391.703 496.094 408.577 501.882 429.386 501.882C450.195 501.882 467.069 496.094 467.194 488.937H391.578Z" fill="#314C9B"/>
</g>
<path d="M344.284 535.091C362.591 535.091 377.432 519.149 377.432 499.483C377.432 479.817 362.591 463.874 344.284 463.874C325.977 463.874 311.136 479.817 311.136 499.483C311.136 519.149 325.977 535.091 344.284 535.091Z" fill="#314C9B"/>
<path d="M513.333 537.46C531.64 537.46 546.481 521.517 546.481 501.851C546.481 482.185 531.64 466.243 513.333 466.243C495.026 466.243 480.185 482.185 480.185 501.851C480.185 521.517 495.026 537.46 513.333 537.46Z" fill="#314C9B"/>
<g opacity="0.2" style="mix-blend-mode:color-burn">
<path d="M305.672 688.571C305.672 687.711 305.71 686.861 305.772 686.022C300.173 689.781 296.42 696.712 296.42 704.647C296.42 716.584 304.924 726.265 315.412 726.265C321.304 726.265 326.567 723.211 330.052 718.417C316.424 717.299 305.672 704.369 305.672 688.576V688.571Z" fill="#492771"/>
<path d="M305.672 688.571C305.672 687.711 305.71 686.861 305.772 686.022C300.173 689.781 296.42 696.712 296.42 704.647C296.42 716.584 304.924 726.265 315.412 726.265C321.304 726.265 326.567 723.211 330.052 718.417C316.424 717.299 305.672 704.369 305.672 688.576V688.571Z" stroke="#492770" stroke-miterlimit="10"/>
</g>
<g opacity="0.2" style="mix-blend-mode:color-burn">
<path d="M552.397 692.989C552.397 692.232 552.359 691.48 552.291 690.739C557.991 694.06 561.812 700.178 561.812 707.181C561.812 717.722 553.154 726.265 542.479 726.265C536.482 726.265 531.123 723.566 527.575 719.339C541.448 718.35 552.392 706.939 552.392 692.994L552.397 692.989Z" fill="#492771"/>
<path d="M552.397 692.989C552.397 692.232 552.359 691.48 552.291 690.739C557.991 694.06 561.812 700.178 561.812 707.181C561.812 717.722 553.154 726.265 542.479 726.265C536.482 726.265 531.123 723.566 527.575 719.339C541.448 718.35 552.392 706.939 552.392 692.994L552.397 692.989Z" stroke="#492770" stroke-miterlimit="10"/>
</g>
<g opacity="0.2" style="mix-blend-mode:color-burn">
<path d="M411.29 559.68C411.348 570.046 419.185 578.429 428.844 578.429C438.504 578.429 446.341 570.046 446.399 559.68H411.29Z" fill="#4EB375"/>
</g>
<g opacity="0.2" style="mix-blend-mode:color-burn">
<path d="M411.29 598.12C411.348 608.486 419.185 616.87 428.844 616.87C438.504 616.87 446.341 608.486 446.399 598.12H411.29Z" fill="#4EB375"/>
</g>
<g opacity="0.2" style="mix-blend-mode:color-burn">
<path d="M414.948 637.318C414.991 645.521 421.199 652.159 428.845 652.159C436.491 652.159 442.699 645.521 442.742 637.318H414.948Z" fill="#4EB375"/>
</g>
<g opacity="0.2" style="mix-blend-mode:color-burn">
<path d="M359.131 591.4C359.188 601.766 367.026 610.15 376.685 610.15C386.345 610.15 394.182 601.766 394.24 591.4H359.131Z" fill="#4EB375"/>
</g>
<g opacity="0.2" style="mix-blend-mode:color-burn">
<path d="M373.708 625.073C373.751 633.276 379.959 639.913 387.605 639.913C395.251 639.913 401.459 633.276 401.502 625.073H373.708Z" fill="#4EB375"/>
</g>
<g opacity="0.2" style="mix-blend-mode:color-burn">
<path d="M463.973 591.4C464.03 601.766 471.868 610.15 481.527 610.15C491.186 610.15 499.024 601.766 499.082 591.4H463.973Z" fill="#4EB375"/>
</g>
<g opacity="0.2" style="mix-blend-mode:color-burn">
<path d="M456.711 625.073C456.754 633.276 462.962 639.913 470.608 639.913C478.254 639.913 484.462 633.276 484.505 625.073H456.711Z" fill="#4EB375"/>
</g>
<path d="M355.434 418.904L351.379 419.064C349.619 419.136 349.068 421.649 350.612 422.555L353.43 424.213C354.192 424.661 355.146 424.435 355.659 423.678L356.896 421.86C357.749 420.603 356.877 418.847 355.434 418.904Z" fill="#314C9B"/>
<path d="M363.886 405.155L354.557 402.688C353.047 402.287 351.849 404.063 352.673 405.479L357.697 414.11C358.339 415.217 359.82 415.284 360.549 414.239L364.854 408.075C365.597 407.009 365.089 405.469 363.881 405.15L363.886 405.155Z" fill="#314C9B"/>
<path d="M369.758 388.28C368.459 386.473 366.312 387.873 366.844 390.18L369.413 401.355C369.696 402.585 370.679 403.378 371.604 403.136L376.187 401.921C377.462 401.581 377.86 399.563 376.911 398.244L369.758 388.285V388.28Z" fill="#314C9B"/>
<path d="M388.727 384.264C388.07 382.734 386.014 382.853 385.515 384.449L382.26 394.81C381.882 396.015 382.716 397.266 383.9 397.266H391.594C392.854 397.266 393.693 395.86 393.166 394.63L388.727 384.269V384.264Z" fill="#314C9B"/>
<path d="M400.72 388.63L398.371 392.261C397.575 393.497 398.395 395.181 399.795 395.181H402.144C403.103 395.181 403.874 394.346 403.874 393.322V389.691C403.874 387.868 401.688 387.132 400.72 388.63Z" fill="#314C9B"/>
<path d="M411.08 391.396L408.649 394.923C408.467 395.191 408.477 395.556 408.678 395.809L411.108 398.883C411.506 399.388 412.278 399.084 412.278 398.42V391.818C412.278 391.133 411.463 390.845 411.085 391.396H411.08Z" fill="#314C9B"/>
<path d="M502.188 419.532L506.244 419.692C508.003 419.764 508.554 422.277 507.011 423.183L504.192 424.841C503.43 425.289 502.476 425.063 501.963 424.306L500.726 422.488C499.873 421.232 500.745 419.476 502.188 419.532Z" fill="#314C9B"/>
<path d="M493.737 405.778L503.066 403.312C504.576 402.91 505.774 404.686 504.95 406.103L499.926 414.733C499.283 415.84 497.802 415.907 497.074 414.862L492.769 408.698C492.026 407.632 492.534 406.092 493.742 405.773L493.737 405.778Z" fill="#314C9B"/>
<path d="M487.859 388.908C489.158 387.101 491.306 388.502 490.774 390.809L488.204 401.983C487.921 403.214 486.939 404.007 486.014 403.765L481.431 402.549C480.156 402.21 479.758 400.191 480.707 398.873L487.859 388.914V388.908Z" fill="#314C9B"/>
<path d="M468.89 384.892C469.547 383.363 471.603 383.481 472.102 385.077L475.357 395.438C475.736 396.643 474.901 397.894 473.717 397.894H466.024C464.763 397.894 463.924 396.488 464.451 395.258L468.89 384.897V384.892Z" fill="#314C9B"/>
<path d="M456.901 389.259L459.25 392.889C460.046 394.125 459.226 395.809 457.826 395.809H455.478C454.519 395.809 453.747 394.975 453.747 393.95V390.319C453.747 388.497 455.933 387.76 456.901 389.259Z" fill="#314C9B"/>
<path d="M446.538 392.024L448.969 395.551C449.151 395.819 449.141 396.185 448.94 396.437L446.51 399.511C446.112 400.016 445.34 399.712 445.34 399.048V392.446C445.34 391.761 446.155 391.473 446.533 392.024H446.538Z" fill="#314C9B"/>
<path d="M860.706 693.91L858.391 686.923C857.71 684.281 853.568 675.759 852.269 673.586C849.048 668.204 846.785 662.159 846.013 655.753C845.951 655.233 845.884 654.708 845.807 654.188C843.142 635.397 838.9 616.926 833.128 599.016L829.216 586.869C827.98 583.038 829.293 578.764 832.452 576.544C844.46 568.104 852.437 553.222 852.437 536.27C852.437 509.967 833.238 488.643 809.553 488.643H807.674C803.096 488.643 799.433 484.662 799.381 479.745C799.381 479.714 799.381 479.683 799.381 479.652C799.112 460.511 785.158 444.78 767.934 444.208C761.822 444.007 756.079 445.681 751.132 448.755C742.355 454.209 731.54 454.209 722.763 448.755C717.816 445.681 712.073 444.007 705.961 444.208C688.733 444.78 674.778 460.511 674.515 479.652C674.515 479.683 674.515 479.714 674.515 479.745C674.457 484.662 670.795 488.643 666.222 488.643H664.343C640.657 488.643 621.458 509.967 621.458 536.27C621.458 553.269 629.478 568.187 641.544 576.616C644.746 578.851 646.064 583.182 644.784 587.044L640.94 598.63C634.914 616.787 630.619 635.598 628.131 654.754C628.098 654.996 628.069 655.238 628.04 655.475C627.254 662.03 625.02 668.225 621.765 673.766C620.514 675.893 616.042 684.358 615.375 686.928L613.204 693.478C608.626 707.284 613.836 722.959 625.653 729.606C627.11 730.425 628.625 731.095 630.183 731.594C638.025 734.092 646.079 731.857 651.869 726.409C654.434 723.994 658.14 723.633 661.16 725.332C661.212 725.363 661.27 725.394 661.323 725.425L661.855 725.724C670.407 730.497 679.845 732.985 689.418 732.985H785.177C794.707 732.985 804.107 730.518 812.63 725.786L812.741 725.724C812.88 725.647 813.014 725.569 813.153 725.492C816.154 723.782 819.835 724.148 822.405 726.532C828.186 731.893 836.177 734.081 843.957 731.599C845.515 731.1 847.03 730.43 848.473 729.612C860.116 723.015 865.231 707.541 860.716 693.921L860.706 693.91Z" fill="#44B070"/>
<path d="M669.395 582.348L663.878 603.692C659.295 621.416 656.03 639.774 654.137 658.472C651.265 686.814 661.433 714.596 679.376 727.449L679.783 727.737C686.288 732.397 693.464 734.823 700.741 734.823H773.552C780.829 734.823 788.005 732.397 794.51 727.737C812.649 714.74 822.817 686.516 819.663 657.921C817.635 639.579 814.409 621.55 810.022 604.068L804.721 582.94C798.772 559.232 785.292 548.068 767.22 549.927C764.248 550.23 761.304 551.44 758.351 552.857C751.76 556.008 744.79 557.682 737.748 557.682H736.444C729.359 557.682 722.341 556.029 715.692 552.918C712.687 551.513 709.686 550.313 706.68 550.035C688.666 548.377 675.454 558.912 669.4 582.348H669.395Z" fill="#DDE8B6"/>
<path d="M708.281 508.35C721.373 508.35 731.986 496.949 731.986 482.886C731.986 468.822 721.373 457.422 708.281 457.422C695.189 457.422 684.576 468.822 684.576 482.886C684.576 496.949 695.189 508.35 708.281 508.35Z" fill="white"/>
<path d="M765.594 508.35C778.686 508.35 789.299 496.949 789.299 482.886C789.299 468.822 778.686 457.422 765.594 457.422C752.503 457.422 741.89 468.822 741.89 482.886C741.89 496.949 752.503 508.35 765.594 508.35Z" fill="white"/>
<path d="M711.977 497.824C717.645 497.824 722.24 491.136 722.24 482.886C722.24 474.635 717.645 467.947 711.977 467.947C706.309 467.947 701.714 474.635 701.714 482.886C701.714 491.136 706.309 497.824 711.977 497.824Z" fill="#1C1C1C" stroke="#1D1D1D" stroke-miterlimit="10"/>
<path d="M760.369 497.824C766.037 497.824 770.632 491.136 770.632 482.886C770.632 474.635 766.037 467.947 760.369 467.947C754.7 467.947 750.105 474.635 750.105 482.886C750.105 491.136 754.7 497.824 760.369 497.824Z" fill="#1C1C1C" stroke="#1D1D1D" stroke-miterlimit="10"/>
<path d="M659.759 563.511C675.768 563.511 688.746 549.57 688.746 532.372C688.746 515.175 675.768 501.233 659.759 501.233C643.75 501.233 630.771 515.175 630.771 532.372C630.771 549.57 643.75 563.511 659.759 563.511Z" fill="#65B97B"/>
<path d="M814.116 563.918C830.126 563.918 843.104 549.976 843.104 532.779C843.104 515.581 830.126 501.64 814.116 501.64C798.107 501.64 785.129 515.581 785.129 532.779C785.129 549.976 798.107 563.918 814.116 563.918Z" fill="#65B97B"/>
<g opacity="0.2" style="mix-blend-mode:color-burn">
<path d="M627.599 694.513C627.599 693.802 627.633 693.102 627.691 692.407C622.791 695.512 619.503 701.238 619.503 707.788C619.503 717.649 626.943 725.641 636.123 725.641C641.281 725.641 645.887 723.118 648.936 719.158C637.009 718.236 627.599 707.556 627.599 694.508V694.513Z" fill="#492771"/>
<path d="M627.599 694.513C627.599 693.802 627.633 693.102 627.691 692.407C622.791 695.512 619.503 701.238 619.503 707.788C619.503 717.649 626.943 725.641 636.123 725.641C641.281 725.641 645.887 723.118 648.936 719.158C637.009 718.236 627.599 707.556 627.599 694.508V694.513Z" stroke="#492770" stroke-miterlimit="10"/>
</g>
<g opacity="0.2" style="mix-blend-mode:color-burn">
<path d="M846.833 694.513C846.833 693.802 846.799 693.102 846.742 692.407C851.641 695.512 854.929 701.238 854.929 707.788C854.929 717.649 847.489 725.641 838.31 725.641C833.152 725.641 828.545 723.118 825.496 719.158C837.423 718.236 846.833 707.556 846.833 694.508V694.513Z" fill="#492771"/>
<path d="M846.833 694.513C846.833 693.802 846.799 693.102 846.742 692.407C851.641 695.512 854.929 701.238 854.929 707.788C854.929 717.649 847.489 725.641 838.31 725.641C833.152 725.641 828.545 723.118 825.496 719.158C837.423 718.236 846.833 707.556 846.833 694.508V694.513Z" stroke="#492770" stroke-miterlimit="10"/>
</g>
<g opacity="0.2" style="mix-blend-mode:color-burn">
<path d="M721.818 572.327C721.866 581.122 728.52 588.239 736.717 588.239C744.914 588.239 751.568 581.122 751.616 572.327H721.818Z" fill="#00FF62"/>
</g>
<g opacity="0.2" style="mix-blend-mode:color-burn">
<path d="M715.361 527.918C715.433 532.001 725.064 535.307 736.938 535.307C748.812 535.307 758.442 532.001 758.514 527.918H715.361Z" fill="#00FF62"/>
</g>
<g opacity="0.2" style="mix-blend-mode:color-burn">
<path d="M721.818 599.253C721.866 608.048 728.52 615.165 736.717 615.165C744.914 615.165 751.568 608.048 751.616 599.253H721.818Z" fill="#00FF62"/>
</g>
<g opacity="0.2" style="mix-blend-mode:color-burn">
<path d="M724.92 638.229C724.958 645.191 730.222 650.825 736.717 650.825C743.213 650.825 748.476 645.191 748.514 638.229H724.925H724.92Z" fill="#00FF62"/>
</g>
<g opacity="0.2" style="mix-blend-mode:color-burn">
<path d="M677.544 599.253C677.592 608.048 684.246 615.165 692.443 615.165C700.64 615.165 707.294 608.048 707.341 599.253H677.544Z" fill="#00FF62"/>
</g>
<g opacity="0.2" style="mix-blend-mode:color-burn">
<path d="M689.916 627.833C689.954 634.795 695.218 640.428 701.713 640.428C708.209 640.428 713.472 634.795 713.51 627.833H689.921H689.916Z" fill="#00FF62"/>
</g>
<g opacity="0.2" style="mix-blend-mode:color-burn">
<path d="M766.534 599.253C766.582 608.048 773.236 615.165 781.433 615.165C789.63 615.165 796.284 608.048 796.332 599.253H766.534Z" fill="#00FF62"/>
</g>
<g opacity="0.2" style="mix-blend-mode:color-burn">
<path d="M760.369 627.833C760.407 634.795 765.671 640.428 772.166 640.428C778.662 640.428 783.925 634.795 783.964 627.833H760.374H760.369Z" fill="#00FF62"/>
</g>
<path d="M736.67 525.56C736.219 520.807 732.586 517.006 728.156 516.631C725.529 516.409 723.108 517.357 721.301 519.046C721.023 519.365 720.726 519.679 720.419 519.988C716.071 524.288 709.341 527.053 701.781 527.053C698.747 527.053 695.847 526.61 693.177 525.791C698.33 533.907 707.007 539.237 716.843 539.237C721.018 539.237 724.992 538.274 728.568 536.544C730.107 535.802 731.574 534.916 732.955 533.907C735.352 532.151 736.857 529.226 736.718 526.116C736.708 525.93 736.699 525.75 736.679 525.565L736.67 525.56Z" fill="#0F6131"/>
<path d="M771.659 527.048C764.1 527.048 757.369 524.282 753.021 519.983C752.715 519.679 752.417 519.359 752.139 519.04C750.332 517.351 747.907 516.404 745.284 516.625C740.85 517.001 737.221 520.801 736.771 525.554C736.752 525.74 736.742 525.925 736.733 526.105C736.593 529.221 738.099 532.14 740.496 533.896C741.876 534.911 743.343 535.791 744.882 536.533C748.458 538.258 752.432 539.226 756.607 539.226C766.439 539.226 775.12 533.896 780.273 525.781C777.603 526.594 774.703 527.042 771.669 527.042L771.659 527.048Z" fill="#0F6131"/>
<path d="M666.851 699.425L664.809 693.472C664.21 691.222 660.562 683.961 659.416 682.113C656.579 677.524 654.584 672.375 653.908 666.922C653.851 666.479 653.793 666.031 653.726 665.588C651.377 649.578 647.638 633.842 642.557 618.584L640.395 612.09C647.456 605.494 651.986 595.37 651.986 584.005C651.986 564.128 638.147 548.016 621.077 548.016H616.273C614.538 548.016 613.153 546.507 613.129 544.643C613.129 544.632 613.129 544.622 613.129 544.607C612.894 528.298 600.603 514.894 585.426 514.41C579.065 514.204 573.149 516.238 568.322 519.828C562.201 524.375 554.066 524.375 547.944 519.828C543.112 516.238 537.202 514.204 530.84 514.41C515.664 514.894 503.373 528.298 503.138 544.607C503.138 544.617 503.138 544.627 503.138 544.643C503.114 546.507 501.728 548.016 499.993 548.016H495.19C478.119 548.016 464.28 564.128 464.28 584.005C464.28 595.164 468.642 605.133 475.488 611.735L473.254 618.249C467.947 633.718 464.165 649.743 461.97 666.062C461.941 666.268 461.917 666.474 461.888 666.68C461.193 672.267 459.228 677.545 456.361 682.262C455.258 684.075 451.318 691.289 450.733 693.477L448.821 699.054C444.784 710.816 449.377 724.173 459.784 729.833C461.068 730.533 462.406 731.099 463.777 731.527C472.381 734.179 481.274 730.569 486.24 723.216C487.831 724.317 489.485 725.342 491.206 726.269L491.676 726.521C499.212 730.59 507.524 732.706 515.956 732.706H600.306C608.699 732.706 616.978 730.605 624.49 726.573L624.586 726.521C626.364 725.559 628.075 724.498 629.72 723.355C634.705 730.615 643.54 734.163 652.087 731.527C653.458 731.104 654.791 730.533 656.066 729.838C666.324 724.22 670.83 711.037 666.847 699.43L666.851 699.425Z" fill="#B04DFF"/>
<path d="M499.438 614.557L494.644 631.097C490.661 644.831 487.828 659.058 486.179 673.544C483.686 695.501 492.516 717.031 508.11 726.99L508.464 727.217C514.116 730.826 520.353 732.706 526.676 732.706H589.943C596.265 732.706 602.502 730.826 608.154 727.217C623.915 717.144 632.75 695.275 630.008 673.116C628.249 658.904 625.445 644.934 621.629 631.39L617.022 615.02C611.85 596.647 600.139 588.001 584.439 589.443C581.86 589.68 579.301 590.617 576.731 591.714C571.003 594.155 564.948 595.452 558.827 595.452H557.696C551.54 595.452 545.443 594.17 539.662 591.76C537.049 590.669 534.441 589.742 531.834 589.525C516.182 588.238 504.701 596.405 499.438 614.562V614.557Z" fill="#FECB4B" stroke="#EFB04B" stroke-miterlimit="10"/>
<path d="M531.959 566.363C544.007 566.363 553.775 555.871 553.775 542.928C553.775 529.985 544.007 519.493 531.959 519.493C519.91 519.493 510.143 529.985 510.143 542.928C510.143 555.871 519.91 566.363 531.959 566.363Z" fill="white" stroke="#B04DFF" stroke-miterlimit="10"/>
<path d="M584.703 566.363C596.751 566.363 606.519 555.871 606.519 542.928C606.519 529.985 596.751 519.493 584.703 519.493C572.654 519.493 562.887 529.985 562.887 542.928C562.887 555.871 572.654 566.363 584.703 566.363Z" fill="white" stroke="white" stroke-miterlimit="10"/>
<path d="M537.096 557.115C541.833 557.115 545.672 551.526 545.672 544.632C545.672 537.739 541.833 532.15 537.096 532.15C532.36 532.15 528.521 537.739 528.521 544.632C528.521 551.526 532.36 557.115 537.096 557.115Z" fill="#1C1C1C" stroke="#1D1D1D" stroke-miterlimit="10"/>
<path d="M579.751 557.115C584.487 557.115 588.327 551.526 588.327 544.632C588.327 537.739 584.487 532.15 579.751 532.15C575.014 532.15 571.175 537.739 571.175 544.632C571.175 551.526 575.014 557.115 579.751 557.115Z" fill="#1C1C1C" stroke="#1D1D1D" stroke-miterlimit="10"/>
<g opacity="0.4" style="mix-blend-mode:darken">
<path d="M490.392 601.92C501.299 601.92 510.142 592.422 510.142 580.704C510.142 568.987 501.299 559.489 490.392 559.489C479.484 559.489 470.642 568.987 470.642 580.704C470.642 592.422 479.484 601.92 490.392 601.92Z" fill="#492771"/>
<path d="M490.392 601.92C501.299 601.92 510.142 592.422 510.142 580.704C510.142 568.987 501.299 559.489 490.392 559.489C479.484 559.489 470.642 568.987 470.642 580.704C470.642 592.422 479.484 601.92 490.392 601.92Z" stroke="#492770" stroke-miterlimit="10"/>
</g>
<g opacity="0.4" style="mix-blend-mode:darken">
<path d="M626.269 601.92C637.176 601.92 646.018 592.422 646.018 580.704C646.018 568.987 637.176 559.489 626.269 559.489C615.361 559.489 606.519 568.987 606.519 580.704C606.519 592.422 615.361 601.92 626.269 601.92Z" fill="#492771"/>
<path d="M626.269 601.92C637.176 601.92 646.018 592.422 646.018 580.704C646.018 568.987 637.176 559.489 626.269 559.489C615.361 559.489 606.519 568.987 606.519 580.704C606.519 592.422 615.361 601.92 626.269 601.92Z" stroke="#492770" stroke-miterlimit="10"/>
</g>
<path fill-rule="evenodd" clip-rule="evenodd" d="M580.101 525.262C591.588 525.262 600.899 535.265 600.899 547.604C600.899 559.942 591.588 569.945 580.101 569.945C568.615 569.945 559.303 559.942 559.303 547.604C559.303 547.558 559.304 547.513 559.304 547.468H555.608C555.608 547.513 555.609 547.558 555.609 547.604C555.609 559.942 546.297 569.945 534.811 569.945C523.324 569.945 514.013 559.942 514.013 547.604C514.013 535.265 523.324 525.262 534.811 525.262C545.749 525.262 554.715 534.334 555.546 545.855H559.366C560.197 534.334 569.163 525.262 580.101 525.262ZM534.811 526.875C524.154 526.875 515.514 536.156 515.514 547.604C515.514 559.052 524.154 568.332 534.811 568.332C545.468 568.332 554.107 559.052 554.107 547.604C554.107 536.156 545.468 526.875 534.811 526.875ZM580.101 526.875C569.444 526.875 560.805 536.156 560.805 547.604C560.805 559.052 569.444 568.332 580.101 568.332C590.758 568.332 599.398 559.052 599.398 547.604C599.398 536.156 590.758 526.875 580.101 526.875Z" fill="#F9CC0E"/>
<path d="M533.43 715.073C533.43 715.073 533.353 714.894 533.334 714.863C533.348 714.909 533.449 715.124 533.43 715.073Z" fill="#EFB04B"/>
<path d="M533.583 715.543L533.549 715.46L533.631 715.656L533.583 715.543Z" fill="#EFB04B"/>
<path d="M533.535 715.557C533.688 715.884 533.525 715.496 533.587 715.608L533.621 715.68L533.506 715.414C533.515 715.46 533.583 715.644 533.535 715.557Z" fill="#EFB04B"/>
<path d="M533.189 714.858C533.247 714.986 533.232 714.97 533.213 714.894C533.209 714.878 533.204 714.873 533.199 714.863C533.199 714.863 533.199 714.863 533.189 714.858Z" fill="#EFB04B"/>
<path d="M533.209 714.948L533.161 714.831C533.127 714.754 533.113 714.744 533.089 714.688C533.113 714.754 533.146 714.826 533.209 714.948Z" fill="#EFB04B"/>
<path d="M533.31 715.193L533.291 715.141C533.276 715.11 533.272 715.1 533.31 715.193Z" fill="#EFB04B"/>
<path d="M533.252 715.038L533.29 715.146C533.315 715.198 533.363 715.306 533.276 715.105C533.319 715.203 533.276 715.105 533.252 715.038Z" fill="#EFB04B"/>
<path d="M533.282 715.084C533.32 715.156 533.344 715.197 533.387 715.315C533.378 715.264 533.272 715.033 533.282 715.084Z" fill="#EFB04B"/>
<path d="M533.689 715.903L533.736 715.995L533.689 715.883C533.712 715.939 533.641 715.801 533.689 715.903Z" fill="#EFB04B"/>
<path d="M533.089 714.796C533.122 714.868 533.175 714.98 533.218 715.072L533.185 714.99C533.161 714.944 533.137 714.903 533.089 714.801V714.796Z" fill="#EFB04B"/>
<path d="M533.219 715.074L533.266 715.197C533.266 715.197 533.252 715.151 533.219 715.074Z" fill="#EFB04B"/>
<path d="M533.478 715.556L533.372 715.301L533.478 715.562V715.556Z" fill="#EFB04B"/>
<path d="M533.061 714.8L532.989 714.636L533.095 714.887L533.061 714.8Z" fill="#EFB04B"/>
<path d="M533.056 714.841C532.998 714.708 532.95 714.616 532.912 714.533C532.917 714.559 532.965 714.677 533.008 714.785C532.984 714.723 532.998 714.739 533.051 714.846L533.056 714.841Z" fill="#EFB04B"/>
<path d="M533.075 714.934C533.061 714.903 533.037 714.842 533.013 714.781C533.027 714.811 533.042 714.857 533.075 714.934Z" fill="#EFB04B"/>
<path d="M533.239 715.172C533.22 715.131 533.167 715.018 533.143 714.976L533.234 715.172H533.239Z" fill="#EFB04B"/>
<path d="M533.239 715.179C533.239 715.179 533.229 715.167 533.229 715.162C533.229 715.162 533.234 715.167 533.245 715.179H533.239Z" fill="#EFB04B"/>
<path d="M533.242 715.172C533.258 715.201 533.253 715.195 533.242 715.172Z" fill="#EFB04B"/>
<path d="M533.377 715.393C533.425 715.506 533.468 715.629 533.554 715.794C533.497 715.655 533.449 715.563 533.377 715.393Z" fill="#EFB04B"/>
<path d="M533.358 715.414L533.387 715.455C533.362 715.404 533.329 715.326 533.305 715.27L533.358 715.414Z" fill="#EFB04B"/>
<path d="M533.382 715.481L533.358 715.414L533.349 715.399L533.382 715.481Z" fill="#EFB04B"/>
<path d="M533.171 715.115C533.205 715.202 533.205 715.212 533.209 715.228C533.233 715.263 533.243 715.284 533.248 715.279C533.219 715.217 533.171 715.105 533.171 715.115Z" fill="#EFB04B"/>
<path d="M533.214 715.162C533.214 715.162 533.214 715.167 533.214 715.173C533.224 715.189 533.224 715.195 533.214 715.162Z" fill="#EFB04B"/>
<path d="M533.171 715.244C533.171 715.244 533.181 715.271 533.19 715.281C533.186 715.271 533.181 715.26 533.176 715.244H533.171Z" fill="#EFB04B"/>
<path d="M533.266 715.316C533.285 715.351 533.266 715.305 533.242 715.239C533.247 715.259 533.252 715.275 533.252 715.275C533.266 715.3 533.271 715.321 533.271 715.311L533.266 715.316Z" fill="#EFB04B"/>
<path d="M533.103 715.033C533.122 715.074 533.141 715.105 533.155 715.14C533.127 715.079 533.079 714.982 533.103 715.033Z" fill="#EFB04B"/>
<path d="M533.191 715.122C533.191 715.122 533.191 715.117 533.191 715.111C533.171 715.068 533.181 715.09 533.191 715.122Z" fill="#EFB04B"/>
<path d="M533.189 715.12C533.199 715.151 533.223 715.197 533.242 715.243C533.237 715.228 533.228 715.202 533.218 715.177C533.213 715.161 533.199 715.141 533.194 715.12H533.189Z" fill="#EFB04B"/>
<path d="M533.736 716.521C533.654 716.336 533.583 716.166 533.683 716.356C533.626 716.217 533.348 715.615 533.189 715.28C533.228 715.363 533.261 715.435 533.3 715.548C533.348 715.646 533.424 715.775 533.491 715.944C533.525 716.042 533.453 715.883 533.405 715.79C533.511 716.017 533.544 716.13 533.698 716.465L533.654 716.341C533.678 716.392 533.712 716.48 533.736 716.526V716.521Z" fill="#EFB04B"/>
<path d="M533.209 715.289L533.2 715.263C533.181 715.232 533.147 715.161 533.075 715.023C533.109 715.115 533.142 715.181 533.166 715.242L533.19 715.258L533.2 715.283L533.209 715.289Z" fill="#EFB04B"/>
<path d="M533.214 715.259C533.3 715.46 533.334 715.547 533.434 715.763C533.434 715.742 533.367 715.593 533.329 715.506C533.338 715.563 533.281 715.393 533.219 715.285C533.204 715.249 533.204 715.239 533.204 715.228C533.19 715.208 533.175 715.177 533.156 715.141C533.156 715.141 533.156 715.151 533.161 715.151C533.171 715.177 533.18 715.192 533.171 715.177C533.185 715.203 533.195 715.228 533.204 715.254C533.18 715.213 533.18 715.203 533.171 715.177C533.171 715.167 533.161 715.156 533.156 715.146L533.19 715.264C533.204 715.29 533.209 715.285 533.204 715.254L533.214 715.259Z" fill="#EFB04B"/>
<path d="M533.743 716.224C533.743 716.224 533.728 716.192 533.723 716.176C533.733 716.203 533.743 716.219 533.743 716.224Z" fill="#EFB04B"/>
<path d="M533.679 716.108C533.67 716.078 533.631 716 533.646 716.021C533.675 716.078 533.689 716.119 533.718 716.18C533.694 716.129 533.66 716.031 533.607 715.939L533.617 715.964C533.579 715.898 533.459 715.656 533.449 715.625C533.531 715.805 533.593 715.928 533.675 716.103L533.679 716.108Z" fill="#EFB04B"/>
<path d="M533.469 715.733L533.502 715.836L533.589 716.004L533.541 715.902C533.565 715.938 533.507 715.815 533.469 715.733Z" fill="#EFB04B"/>
<path d="M533.122 715.145L533.031 714.935L533.156 715.238L533.122 715.145Z" fill="#EFB04B"/>
<path d="M533.118 715.182L533.036 714.997L533.084 715.11L533.118 715.182Z" fill="#EFB04B"/>
<path d="M533.285 717.906L533.305 717.96C533.305 717.96 533.29 717.922 533.285 717.906Z" fill="#EFB04B"/>
<path d="M533.315 717.906L533.276 717.814C533.295 717.865 533.315 717.901 533.315 717.906Z" fill="#EFB04B"/>
<path d="M532.753 715.397C532.672 715.228 532.543 714.967 532.638 715.172L532.729 715.372C532.715 715.336 532.729 715.356 532.753 715.397Z" fill="#EFB04B"/>
<path d="M533.036 716.732C533.036 716.732 533.056 716.773 533.065 716.794C533.036 716.727 533.007 716.66 532.983 716.598C533.003 716.64 533.017 716.686 533.036 716.732Z" fill="#EFB04B"/>
<path d="M533.409 717.566L533.343 717.443C533.367 717.489 533.386 717.53 533.409 717.566Z" fill="#EFB04B"/>
<path d="M533.242 718.19L533.333 718.395C533.333 718.395 533.29 718.287 533.242 718.19Z" fill="#EFB04B"/>
<path d="M532.998 715.337C532.96 715.26 532.94 715.229 532.931 715.224C532.988 715.337 533.07 715.507 532.998 715.337Z" fill="#EFB04B"/>
<path d="M532.326 715.769C532.34 715.805 532.359 715.846 532.378 715.892C532.364 715.856 532.35 715.82 532.326 715.769Z" fill="#EFB04B"/>
<path d="M532.917 715.228C532.917 715.228 532.931 715.259 532.941 715.274C532.926 715.238 532.921 715.213 532.931 715.223C532.888 715.141 532.86 715.09 532.917 715.228Z" fill="#EFB04B"/>
<path d="M532.673 718.288C532.673 718.288 532.668 718.272 532.658 718.262C532.673 718.288 532.673 718.294 532.673 718.288Z" fill="#EFB04B"/>
<path d="M531.608 716.336C531.608 716.336 531.608 716.32 531.608 716.315C531.598 716.3 531.598 716.305 531.608 716.336Z" fill="#EFB04B"/>
<path d="M533.396 715.914C533.396 715.914 533.419 715.965 533.438 716.011C533.415 715.965 533.405 715.934 533.396 715.914Z" fill="#EFB04B"/>
<path d="M533.454 716.495C533.474 716.538 533.469 716.527 533.454 716.495Z" fill="#EFB04B"/>
<path d="M533.065 715.213C533.065 715.213 533.041 715.167 533.031 715.157C533.041 715.172 533.051 715.193 533.065 715.213Z" fill="#EFB04B"/>
<path d="M533.022 715.121L533.032 715.137C533.017 715.1 533.007 715.079 533.022 715.121Z" fill="#EFB04B"/>
<path d="M533.018 715.136C533.018 715.136 533.022 715.136 533.032 715.157C533.027 715.141 533.018 715.131 533.018 715.126C533.018 715.126 533.018 715.136 533.018 715.141V715.136Z" fill="#EFB04B"/>
<path d="M532.695 717.608C532.695 717.608 532.69 717.597 532.686 717.587C532.719 717.675 532.714 717.659 532.695 717.608Z" fill="#EFB04B"/>
<path d="M533.611 717.532C533.611 717.532 533.611 717.527 533.611 717.521C533.611 717.521 533.611 717.521 533.611 717.515L533.622 717.532H533.611Z" fill="#EFB04B"/>
<path d="M533.67 717.684C533.559 717.432 533.579 717.463 533.607 717.514L533.339 716.938L533.67 717.689V717.684Z" fill="#EFB04B"/>
<path d="M533.253 717.994L533.344 718.169C533.469 718.473 533.416 718.375 533.536 718.622C533.253 717.994 533.536 718.54 533.253 717.911L533.32 718.04C533.32 718.04 533.334 718.071 533.33 718.066C533.478 718.359 533.133 717.608 533.186 717.69C533.215 717.736 533.258 717.824 533.286 717.901L533.224 717.742C533.224 717.742 533.282 717.86 533.272 717.85V717.793V717.814C533.229 717.716 533.167 717.556 533.138 717.494C533.181 717.582 533.167 717.561 533.205 717.639L533.143 717.484C533.219 717.644 533.286 717.808 533.267 717.788C533.56 718.411 533.205 717.628 533.387 717.984L533.416 718.066C533.584 718.421 533.531 718.287 533.641 718.504C533.588 718.39 533.368 717.953 533.306 717.793C533.33 717.839 533.344 717.86 533.291 717.731C533.392 717.953 533.373 717.896 533.373 717.881L533.507 718.179C533.473 718.092 533.406 717.937 533.349 717.803C533.368 717.829 533.473 718.056 533.564 718.251C533.598 718.293 533.387 717.886 533.378 717.824C533.44 717.932 533.392 717.808 533.325 717.623C533.378 717.721 533.406 717.803 533.445 717.891L533.344 717.649C533.344 717.649 533.382 717.726 533.397 717.762C533.358 717.669 533.262 717.469 533.234 717.381C533.09 717.052 533.469 717.85 533.31 717.474C533.349 717.556 533.392 717.654 533.445 717.772C533.349 717.52 533.378 717.587 533.239 717.257L533.334 717.448C533.224 717.232 533.114 716.964 533.028 716.743C532.975 716.634 532.932 716.542 532.908 716.501L532.85 716.336C532.874 716.382 532.917 716.485 532.975 716.609C532.965 716.583 532.956 716.557 532.946 716.537C532.999 716.645 533.076 716.815 533.147 716.985C533.119 716.928 533.09 716.866 533.061 716.804C533.138 716.985 533.229 717.185 533.306 717.36C533.291 717.324 533.282 717.294 533.272 717.278C533.291 717.33 533.31 717.371 533.325 717.402C533.339 717.433 533.31 717.366 533.277 717.288L533.43 717.618L533.373 717.484L533.483 717.68C533.344 717.34 533.133 716.846 533.09 716.701C533.195 716.943 533.267 717.098 533.397 717.386C533.253 717.088 533.44 717.525 533.402 717.469C533.421 717.5 533.483 717.633 533.502 717.685L533.397 717.402C533.502 717.639 533.478 717.577 533.531 717.669C533.315 717.206 533.406 717.355 533.349 717.206C533.421 717.36 533.493 717.52 533.464 717.489C533.632 717.834 533.229 716.938 533.373 717.232C533.373 717.232 533.358 717.211 533.397 717.294C533.339 717.154 533.397 717.257 533.459 717.391C533.497 717.443 533.502 717.376 533.33 716.979C533.354 717.031 533.545 717.453 533.579 717.536L533.004 716.197C533.157 716.537 533.531 717.335 533.603 717.536C533.627 717.582 533.656 717.633 533.612 717.515C533.588 717.469 533.387 717.031 533.373 716.995C533.55 717.366 533.469 717.191 533.627 717.51C533.588 717.438 533.354 716.907 533.368 716.923C533.402 717 533.608 717.448 533.627 717.505L533.406 716.979C533.445 717.077 533.608 717.422 533.675 717.566C533.627 717.463 533.689 717.566 533.675 717.515L533.612 717.397C533.665 717.469 533.296 716.655 533.325 716.676C533.373 716.784 533.622 717.34 533.66 717.402C533.545 717.134 533.095 716.109 533.013 715.898L533.085 716.047L533.018 715.867C533.195 716.274 533.56 717.124 533.699 717.458C533.761 717.577 533.78 717.639 533.785 717.618C533.852 717.757 533.881 717.839 533.881 717.845L533.943 717.927C533.799 717.618 533.819 717.608 533.699 717.35L533.823 717.685C533.68 717.376 533.435 716.794 533.473 716.84C533.531 716.964 533.723 717.397 533.771 717.5C533.723 717.391 533.689 717.288 533.727 717.36L533.795 717.53C533.857 717.644 533.622 717.113 533.766 717.402C533.78 717.422 533.958 717.798 533.876 717.613C533.708 717.263 533.21 716.161 533.095 715.893C533.109 715.919 533.267 716.222 533.349 716.398C533.483 716.676 533.641 717.067 533.756 717.304C533.718 717.216 533.675 717.113 533.66 717.077C533.699 717.149 533.78 717.34 533.771 717.299C533.627 716.985 533.799 717.319 533.656 717.031C533.622 716.938 533.694 717.093 533.694 717.072C533.598 716.871 533.387 716.372 533.354 716.279C533.392 716.361 533.44 716.464 533.459 716.511C533.488 716.531 533.56 716.67 533.574 716.665C533.608 716.743 533.66 716.83 533.718 716.969C533.694 716.912 533.646 716.804 533.651 716.794C533.785 717.062 533.66 716.84 533.814 717.165C533.732 716.979 533.708 716.907 533.665 716.789C533.536 716.506 533.627 716.743 533.67 716.861C533.493 716.47 533.32 716.058 533.253 715.867C533.219 715.764 533.373 716.114 533.349 716.063C533.401 716.119 533.056 715.373 533.205 715.641C533.325 715.888 533.43 716.135 533.512 716.315C533.545 716.413 533.425 716.166 533.425 716.176L533.488 716.289C533.521 716.372 533.545 716.439 533.507 716.372C533.612 716.593 533.564 716.398 533.675 716.593C533.641 716.506 533.608 716.418 533.56 716.32L533.569 716.356C533.473 716.161 533.454 716.073 533.406 715.986C533.349 715.841 533.258 715.615 533.32 715.723L533.449 716.006C533.411 715.924 533.368 715.841 533.402 715.929C533.349 715.8 533.593 716.305 533.425 715.929L533.33 715.738C533.272 715.594 533.143 715.285 533.195 715.373C533.066 715.095 533.21 715.404 533.052 715.079C533.243 715.486 533.023 715.079 533.224 715.496C533.047 715.12 533.138 715.342 532.984 715.023C533.028 715.115 533.071 715.198 533.042 715.157C533.056 715.182 533.071 715.218 533.076 715.239C533.076 715.239 533.076 715.239 533.076 715.234C533.076 715.234 533.076 715.239 533.08 715.244C533.09 715.26 533.085 715.26 533.08 715.244C533.099 715.285 533.123 715.332 533.147 715.383C533.243 715.599 533.224 715.599 533.272 715.713C533.248 715.671 533.224 715.605 533.176 715.507L533.243 715.677C533.147 715.471 533.076 715.337 533.028 715.208H533.013C532.956 715.09 532.927 715.048 532.96 715.136C532.937 715.095 533.052 715.373 532.984 715.208L533.028 715.347L533.004 715.296C532.975 715.275 533.128 715.656 532.941 715.29C532.96 715.347 532.984 715.414 532.951 715.357L532.869 715.177C532.893 715.244 532.769 715.007 532.85 715.198C532.625 714.719 532.774 715.11 532.721 715.028L532.826 715.265C532.826 715.265 532.836 715.326 532.869 715.424L532.965 715.63C533.032 715.805 532.879 715.496 532.874 715.522C532.841 715.44 532.85 715.46 532.874 715.507C532.644 715.048 532.994 715.867 532.826 715.532C532.855 715.61 532.841 715.584 532.817 715.532C532.817 715.532 532.817 715.532 532.817 715.522C532.798 715.486 532.778 715.445 532.764 715.414C532.788 715.465 532.807 715.507 532.817 715.522C532.817 715.527 532.821 715.558 532.841 715.61L532.74 715.388C532.74 715.388 532.74 715.388 532.74 715.393C532.697 715.311 532.783 715.502 532.865 715.666C532.879 715.702 532.898 715.749 532.922 715.805C532.754 715.445 532.965 715.934 532.788 715.553C532.869 715.744 532.831 715.702 533.008 716.099C532.984 716.047 532.975 716.022 532.975 716.022C532.951 715.98 532.927 715.939 532.975 716.047L532.845 715.764L533.008 716.15C532.922 715.98 532.874 715.883 532.783 715.661C532.922 716.006 532.831 715.795 532.965 716.135L532.884 715.95C532.884 715.95 532.989 716.207 532.917 716.058C532.75 715.713 532.845 716.037 532.673 715.723C532.922 716.259 532.553 715.486 532.74 715.908C532.682 715.78 532.644 715.713 532.596 715.599C532.639 715.733 532.486 715.409 532.635 715.764C532.577 715.635 532.553 715.574 532.515 715.502C532.524 715.527 532.563 715.615 532.524 715.538C532.491 715.46 532.476 715.429 532.452 715.373C532.452 715.399 532.625 715.795 532.793 716.166C532.706 715.996 532.716 716.022 532.821 716.264C532.764 716.145 532.702 716.022 532.692 715.97C532.678 715.955 532.582 715.805 532.716 716.104C532.682 716.032 532.702 716.083 532.716 716.119C532.697 716.109 532.682 716.083 532.687 716.114L532.711 716.161C532.869 716.521 532.74 716.243 532.75 716.289L532.735 716.253C532.601 716.006 532.783 716.382 532.63 716.099L532.73 716.32C532.946 716.799 532.587 716.047 532.658 716.238L532.721 716.361C532.788 716.526 532.409 715.723 532.376 715.666C532.356 715.625 532.347 715.599 532.337 715.568C532.193 715.296 532.467 715.862 532.486 715.934C532.414 715.78 532.309 715.532 532.285 715.507C532.222 715.383 532.495 716.027 532.347 715.733C532.404 715.852 532.462 715.97 532.495 716.068C532.505 716.114 532.265 715.62 532.433 716.006C532.419 715.975 532.404 715.944 532.39 715.913C532.428 716.016 532.443 716.089 532.534 716.295C532.179 715.532 532.663 716.686 532.342 715.98V716.027L532.309 715.955C532.275 715.913 532.347 716.089 532.419 716.258C532.395 716.212 532.366 716.145 532.352 716.109C532.27 715.975 532.28 716.006 532.424 716.367L532.318 716.14C532.376 716.274 532.131 715.795 532.232 716.073C532.222 716.047 532.198 716.001 532.189 715.97C532.289 716.248 531.853 715.357 532.222 716.197L532.304 716.408C532.352 716.464 532.467 716.773 532.534 716.907C532.548 716.959 532.404 716.665 532.39 716.619L532.409 716.66C532.213 716.222 532.318 716.516 532.184 716.222C532.16 716.264 532.021 716.037 531.978 716.037L532.136 716.372L532.117 716.356C532.078 716.279 531.992 716.094 532.007 716.104C531.915 715.913 532.064 716.274 532.098 716.346C532.021 716.217 531.925 715.95 531.915 715.944V715.975L531.939 716.016C531.997 716.156 532.064 716.305 532.045 716.295C532.007 716.228 531.949 716.089 531.939 716.073C531.93 716.047 531.92 716.037 531.93 716.063L531.901 716.042L532.026 716.305C532.078 716.439 532.007 716.3 532.15 716.598C531.93 716.135 532.026 716.459 531.954 716.315C532.035 716.516 532.026 716.516 532.002 716.495C532.031 716.552 532.17 716.851 532.141 716.82C531.863 716.197 532.002 716.557 531.791 716.114C531.93 716.408 531.8 716.202 531.997 716.614C531.968 716.567 531.891 716.382 531.82 716.238C531.911 716.485 531.709 716.104 531.724 716.197C531.762 716.279 531.82 716.403 531.872 716.526L531.676 716.125C531.69 716.166 531.887 716.598 531.748 716.32C531.781 716.387 531.829 716.49 531.839 716.516C531.613 716.14 531.896 716.887 531.518 716.166C531.594 716.32 531.599 716.336 531.594 716.346C531.613 716.382 531.685 716.547 531.738 716.655L531.58 716.356C531.714 716.665 531.57 716.387 531.7 716.681L531.681 716.624C531.829 716.974 532.04 717.386 532.241 717.829C532.074 717.433 532.529 718.401 532.289 717.829C532.333 717.917 532.352 717.973 532.4 718.076C532.318 717.886 532.304 717.845 532.352 717.922L532.371 717.968C532.371 717.911 532.467 718.092 532.548 718.205L532.448 717.989C532.467 718.014 532.5 718.081 532.524 718.138C532.38 717.803 532.5 718.128 532.342 717.757C532.553 718.2 532.385 717.742 532.62 718.246C532.63 718.246 532.5 717.994 532.51 717.994L532.572 718.128L532.495 717.948C532.515 717.973 532.596 718.143 532.649 718.262C532.639 718.246 532.658 718.298 532.663 718.308C532.745 718.468 532.658 718.241 532.682 718.293L532.635 718.21C532.601 718.071 532.706 718.236 532.606 717.942L532.558 717.839C532.486 717.639 532.625 717.948 532.601 717.85L532.611 717.875C532.567 717.772 532.548 717.716 532.558 717.726C532.606 717.85 532.673 717.958 532.73 718.092C532.654 717.875 532.668 717.927 532.505 717.536L532.587 717.705C532.519 717.546 532.481 717.469 532.472 717.417C532.529 717.566 532.596 717.675 532.678 717.875C532.869 718.241 532.534 717.479 532.793 718.025C532.587 717.546 532.658 717.767 532.615 717.664C532.539 717.51 532.462 717.304 532.491 717.35C532.5 717.355 532.778 717.953 532.788 717.937C532.788 717.937 532.802 717.973 532.797 717.968C532.86 718.087 532.735 717.798 532.831 717.989C532.706 717.7 532.85 717.999 532.682 717.633L532.706 717.726C532.673 717.628 532.486 717.196 532.591 717.397C532.625 717.469 532.663 717.572 532.687 717.628C532.74 717.736 532.663 717.551 532.716 717.659C532.879 718.025 532.735 717.747 532.855 718.03C532.932 718.184 532.75 717.757 532.927 718.154C532.706 717.644 532.97 718.21 532.807 717.819L532.908 718.04C532.893 718.004 532.85 717.901 532.855 717.901L532.98 718.19C532.879 717.942 533.095 718.396 533.042 718.256C533.028 718.272 532.917 717.994 532.836 717.839C532.726 717.536 533.109 718.406 533.085 718.287C533.095 718.318 533.013 718.164 532.97 718.056C532.994 718.097 533.037 718.179 533.095 718.293C533.09 718.241 532.989 718.066 532.937 717.927C533.061 718.19 532.893 717.814 532.865 717.726L532.965 717.948C533.047 718.081 532.759 717.479 532.855 717.644L532.989 717.958L532.96 717.875L533.076 718.128C532.999 717.932 533.023 717.984 533.066 718.051C532.994 717.896 532.884 717.644 532.889 717.633C532.956 717.762 532.98 717.85 532.98 717.808C533.042 717.948 533.119 718.128 533.018 717.922C533.052 717.994 533.08 718.061 533.109 718.133C533.186 718.282 533.138 718.159 533.143 718.154C533.138 718.148 533.128 718.133 533.114 718.102L532.989 717.783C533.028 717.865 533.056 717.932 533.085 717.999C533.076 717.973 533.032 717.87 533.028 717.85C533.109 718.03 533.195 718.22 533.224 718.308L533.147 718.097C533.186 718.174 533.253 718.308 533.282 718.375C533.339 718.478 533.143 718.009 533.219 718.148C533.205 718.112 533.191 718.076 533.181 718.051C533.21 718.087 533.32 718.303 533.219 718.051L533.373 718.37C533.349 718.293 533.176 717.963 533.138 717.834C533.104 717.726 533.267 718.107 533.315 718.2C533.248 718.035 533.104 717.695 533.239 717.953C533.262 718.014 533.239 717.968 533.248 717.994H533.253ZM533.31 717.788C533.33 717.834 533.392 717.984 533.33 717.85C533.215 717.592 533.272 717.716 533.31 717.788ZM533.253 717.155C533.286 717.232 533.267 717.196 533.224 717.113C533.219 717.093 533.224 717.103 533.253 717.155ZM533.066 715.326C533.066 715.326 533.066 715.332 533.066 715.337C533.023 715.254 533.037 715.285 533.066 715.326ZM533.119 715.419C533.104 715.388 533.09 715.357 533.076 715.326C533.099 715.383 533.099 715.388 533.09 715.373C533.119 715.429 533.138 715.471 533.119 715.419ZM531.978 716.125L532.007 716.181C532.031 716.248 532.007 716.192 531.978 716.125Z" fill="#EFB04B"/>
<path d="M533.367 717.468C533.348 717.432 533.329 717.391 533.31 717.35C533.324 717.386 533.343 717.432 533.367 717.468Z" fill="#EFB04B"/>
<path d="M533.229 718.154C533.233 718.17 533.238 718.18 533.248 718.196L533.233 718.159L533.229 718.154Z" fill="#EFB04B"/>
<path d="M533.808 717.401C533.789 717.37 533.77 717.329 533.751 717.288C533.775 717.345 533.799 717.386 533.808 717.401Z" fill="#EFB04B"/>
<path d="M533.008 715.007L533.027 715.069C533.027 715.069 533.051 715.104 533.065 715.14C533.041 715.089 533.008 715.012 533.008 715.007Z" fill="#EFB04B"/>
<path d="M533.693 716.356C533.683 716.33 533.693 716.356 533.683 716.325L533.636 716.222C533.636 716.222 533.669 716.315 533.693 716.356Z" fill="#EFB04B"/>
<path d="M533.347 715.743C533.433 715.928 533.409 715.866 533.4 715.825C533.28 715.564 533.318 715.651 533.352 715.743H533.347Z" fill="#EFB04B"/>
<path d="M533.396 715.821C533.396 715.821 533.396 715.805 533.396 715.816C533.347 715.707 533.386 715.795 533.396 715.821Z" fill="#EFB04B"/>
<path d="M533.079 715.284C533.103 715.33 532.974 715.043 533.007 715.12C532.902 714.88 533.122 715.417 533.079 715.284Z" fill="#EFB04B"/>
<path d="M533.636 716.36L533.525 716.13L533.607 716.319L533.636 716.36Z" fill="#EFB04B"/>
<path d="M533.516 716.212L533.554 716.273C533.535 716.232 533.526 716.212 533.521 716.191C533.512 716.186 533.488 716.145 533.521 716.212H533.516Z" fill="#EFB04B"/>
<path d="M533.521 716.193C533.521 716.193 533.521 716.193 533.511 716.15C533.511 716.15 533.511 716.161 533.521 716.193Z" fill="#EFB04B"/>
<path d="M533.654 716.439L533.631 716.392L533.616 716.377L533.654 716.439Z" fill="#EFB04B"/>
<path d="M533.41 716.212L533.429 716.284C533.463 716.367 533.487 716.413 533.478 716.377C533.453 716.32 533.444 716.289 533.405 716.212H533.41Z" fill="#EFB04B"/>
<path d="M533.727 716.834C533.703 716.788 533.679 716.737 533.646 716.66L533.775 716.947L533.727 716.834Z" fill="#EFB04B"/>
<path d="M533.731 716.912C533.765 716.994 533.823 717.148 533.827 717.123C533.794 717.046 533.77 716.974 533.731 716.912Z" fill="#EFB04B"/>
<path d="M533.439 716.617V716.612L533.224 716.14L533.439 716.617Z" fill="#EFB04B"/>
<path d="M533.837 717.802C533.899 717.91 533.707 717.51 533.779 717.648C533.731 717.535 533.722 717.535 533.679 717.438C533.727 717.556 533.693 717.494 533.837 717.802Z" fill="#EFB04B"/>
<path d="M533.679 717.443C533.679 717.443 533.665 717.402 533.65 717.371C533.66 717.402 533.67 717.422 533.679 717.443Z" fill="#EFB04B"/>
<path d="M531.469 716.093L531.416 716.001L531.493 716.154L531.469 716.093Z" fill="#EFB04B"/>
<path d="M531.613 716.448L531.474 716.15L531.593 716.422C531.593 716.422 531.579 716.381 531.613 716.448Z" fill="#EFB04B"/>
<path d="M533.603 718.384L533.57 718.312C533.531 718.236 533.531 718.231 533.521 718.22L533.603 718.384Z" fill="#EFB04B"/>
<path d="M533.41 718.203L533.415 718.208L533.29 717.942L533.41 718.203Z" fill="#EFB04B"/>
<path d="M533.491 718.591C533.491 718.591 533.477 718.539 533.482 718.55C533.496 718.601 533.333 718.257 533.491 718.591Z" fill="#EFB04B"/>
<path d="M545.299 719.94C545.299 719.94 545.429 720.079 545.453 720.105C545.424 720.069 545.26 719.899 545.299 719.94Z" fill="#EFB04B"/>
<path d="M544.983 719.589L545.041 719.651L544.901 719.498L544.983 719.589Z" fill="#EFB04B"/>
<path d="M544.992 719.585C544.748 719.328 545.03 719.631 544.939 719.538L544.882 719.482L545.074 719.692C545.045 719.656 544.915 719.518 544.987 719.59L544.992 719.585Z" fill="#EFB04B"/>
<path d="M545.52 720.142C545.423 720.038 545.438 720.054 545.491 720.111C545.501 720.121 545.505 720.126 545.515 720.137C545.515 720.137 545.515 720.137 545.52 720.142Z" fill="#EFB04B"/>
<path d="M545.462 720.074L545.543 720.166C545.601 720.228 545.611 720.238 545.654 720.279C545.611 720.228 545.553 720.172 545.462 720.074Z" fill="#EFB04B"/>
<path d="M545.289 719.884L545.323 719.926C545.323 719.926 545.358 719.962 545.289 719.884Z" fill="#EFB04B"/>
<path d="M545.396 720.002L545.324 719.92C545.285 719.879 545.204 719.796 545.352 719.951C545.28 719.873 545.352 719.951 545.4 720.002H545.396Z" fill="#EFB04B"/>
<path d="M545.362 719.966C545.309 719.91 545.275 719.873 545.193 719.786C545.227 719.822 545.396 720.007 545.362 719.966Z" fill="#EFB04B"/>
<path d="M544.742 719.312L544.671 719.235L544.752 719.322C544.714 719.281 544.819 719.388 544.742 719.312Z" fill="#EFB04B"/>
<path d="M545.596 720.202C545.543 720.146 545.457 720.053 545.395 719.987L545.452 720.048C545.486 720.084 545.519 720.12 545.596 720.202Z" fill="#EFB04B"/>
<path d="M545.39 719.981L545.304 719.884C545.304 719.884 545.332 719.92 545.39 719.981Z" fill="#EFB04B"/>
<path d="M545.021 719.595L545.204 719.795L545.017 719.59L545.021 719.595Z" fill="#EFB04B"/>
<path d="M545.606 720.203L545.726 720.332L545.543 720.136L545.606 720.203Z" fill="#EFB04B"/>
<path d="M545.587 720.177C545.683 720.285 545.755 720.357 545.817 720.418C545.798 720.398 545.716 720.305 545.64 720.223C545.683 720.269 545.668 720.259 545.587 720.172V720.177Z" fill="#EFB04B"/>
<path d="M545.529 720.105C545.529 720.105 545.596 720.177 545.639 720.223C545.615 720.197 545.586 720.161 545.529 720.105Z" fill="#EFB04B"/>
<path d="M545.333 719.915C545.367 719.945 545.449 720.032 545.482 720.068L545.338 719.915H545.333Z" fill="#EFB04B"/>
<path d="M545.329 719.909L545.339 719.921C545.339 719.921 545.334 719.921 545.323 719.909H545.329Z" fill="#EFB04B"/>
<path d="M545.335 719.911C545.318 719.894 545.313 719.888 545.335 719.911Z" fill="#EFB04B"/>
<path d="M545.156 719.728C545.074 719.641 544.988 719.549 544.863 719.415C544.964 719.523 545.031 719.595 545.156 719.728Z" fill="#EFB04B"/>
<path d="M545.15 719.719L545.116 719.683C545.155 719.724 545.212 719.786 545.25 719.827L545.15 719.719Z" fill="#EFB04B"/>
<path d="M545.103 719.667L545.151 719.719L545.16 719.73L545.103 719.667Z" fill="#EFB04B"/>
<path d="M545.389 719.965C545.327 719.899 545.323 719.894 545.313 719.878C545.285 719.848 545.27 719.832 545.266 719.832C545.308 719.883 545.389 719.97 545.389 719.96V719.965Z" fill="#EFB04B"/>
<path d="M545.349 719.927C545.349 719.927 545.344 719.922 545.339 719.916C545.323 719.899 545.323 719.899 545.349 719.927Z" fill="#EFB04B"/>
<path d="M545.323 719.874C545.323 719.874 545.304 719.853 545.294 719.848C545.304 719.858 545.308 719.864 545.318 719.874H545.323Z" fill="#EFB04B"/>
<path d="M545.242 719.807C545.213 719.776 545.247 719.817 545.295 719.863C545.28 719.848 545.271 719.837 545.271 719.832C545.252 719.812 545.237 719.796 545.242 719.801V719.807Z" fill="#EFB04B"/>
<path d="M545.462 720.033C545.433 720.002 545.405 719.971 545.381 719.951C545.429 720.002 545.5 720.074 545.462 720.033Z" fill="#EFB04B"/>
<path d="M545.381 719.956L545.386 719.961C545.422 719.996 545.401 719.979 545.381 719.956Z" fill="#EFB04B"/>
<path d="M545.38 719.955C545.38 719.955 545.323 719.894 545.294 719.858C545.303 719.868 545.318 719.889 545.342 719.909C545.351 719.919 545.366 719.935 545.38 719.95V719.955Z" fill="#EFB04B"/>
<path d="M544.394 718.869C544.528 719.013 544.652 719.147 544.504 718.993C544.604 719.101 545.045 719.575 545.295 719.837C545.237 719.776 545.18 719.714 545.103 719.631C545.031 719.554 544.93 719.451 544.811 719.317C544.743 719.24 544.859 719.369 544.93 719.441C544.763 719.261 544.691 719.178 544.441 718.916L544.528 719.008C544.489 718.967 544.427 718.9 544.394 718.864V718.869Z" fill="#EFB04B"/>
<path d="M545.28 719.832L545.295 719.853C545.295 719.853 545.371 719.935 545.477 720.047C545.41 719.976 545.362 719.924 545.319 719.873L545.299 719.858L545.28 719.837V719.832Z" fill="#EFB04B"/>
<path d="M545.294 719.851C545.15 719.692 545.088 719.626 544.93 719.456C544.939 719.467 545.05 719.59 545.112 719.656C545.078 719.615 545.193 719.744 545.275 719.831C545.299 719.856 545.308 719.867 545.313 719.872C545.332 719.892 545.352 719.913 545.38 719.944C545.38 719.944 545.375 719.938 545.371 719.933C545.352 719.913 545.342 719.903 545.352 719.913C545.332 719.892 545.313 719.872 545.299 719.851C545.328 719.882 545.337 719.892 545.352 719.913C545.356 719.918 545.366 719.928 545.375 719.938L545.299 719.851H545.294Z" fill="#EFB04B"/>
<path d="M544.551 719.08C544.551 719.08 544.575 719.107 544.585 719.118C544.565 719.096 544.556 719.086 544.551 719.08Z" fill="#EFB04B"/>
<path d="M544.638 719.173C544.638 719.173 544.714 719.26 544.7 719.24C544.657 719.193 544.628 719.163 544.58 719.111C544.618 719.152 544.686 719.224 544.757 719.301L544.738 719.281C544.791 719.332 544.973 719.527 544.992 719.547C544.863 719.409 544.767 719.306 544.638 719.168V719.173Z" fill="#EFB04B"/>
<path d="M544.93 719.471L544.858 719.394L544.729 719.261L544.805 719.343C544.776 719.312 544.868 719.409 544.925 719.476L544.93 719.471Z" fill="#EFB04B"/>
<path d="M545.395 719.95L545.549 720.114L545.333 719.879L545.395 719.95Z" fill="#EFB04B"/>
<path d="M545.381 719.925L545.515 720.073L545.434 719.981L545.381 719.925Z" fill="#EFB04B"/>
<path d="M543.863 717.986L543.822 717.942C543.822 717.942 543.847 717.969 543.863 717.986Z" fill="#EFB04B"/>
<path d="M543.846 717.979L543.912 718.05C543.874 718.009 543.85 717.984 543.846 717.979Z" fill="#EFB04B"/>
<path d="M545.429 719.843C545.553 719.976 545.75 720.181 545.601 720.022L545.453 719.863C545.477 719.894 545.462 719.873 545.429 719.843Z" fill="#EFB04B"/>
<path d="M544.59 718.853C544.59 718.853 544.561 718.823 544.547 718.808C544.595 718.864 544.643 718.909 544.686 718.955C544.657 718.925 544.624 718.889 544.59 718.853Z" fill="#EFB04B"/>
<path d="M543.985 718.2L544.081 718.302C544.047 718.266 544.014 718.236 543.985 718.2Z" fill="#EFB04B"/>
<path d="M543.727 717.791L543.578 717.633C543.578 717.633 543.655 717.715 543.727 717.791Z" fill="#EFB04B"/>
<path d="M545.352 719.842C545.41 719.904 545.434 719.93 545.443 719.935C545.357 719.848 545.232 719.709 545.352 719.842Z" fill="#EFB04B"/>
<path d="M545.419 719.662C545.395 719.631 545.362 719.6 545.328 719.565C545.352 719.59 545.381 719.621 545.419 719.662Z" fill="#EFB04B"/>
<path d="M545.443 719.93C545.443 719.93 545.419 719.904 545.409 719.894C545.433 719.92 545.452 719.945 545.443 719.935C545.543 720.042 545.505 720.002 545.443 719.935V719.93Z" fill="#EFB04B"/>
<path d="M543.928 717.834C543.928 717.834 543.938 717.845 543.948 717.856C543.928 717.834 543.928 717.834 543.928 717.834Z" fill="#EFB04B"/>
<path d="M545.438 719.405C545.438 719.405 545.449 719.416 545.449 719.422C545.459 719.434 545.459 719.434 545.438 719.405Z" fill="#EFB04B"/>
<path d="M544.868 719.363C544.868 719.363 544.829 719.322 544.796 719.286C544.829 719.322 544.853 719.348 544.868 719.363Z" fill="#EFB04B"/>
<path d="M544.534 718.944C544.508 718.915 544.503 718.909 544.534 718.944Z" fill="#EFB04B"/>
<path d="M545.386 719.915C545.386 719.915 545.421 719.952 545.431 719.963C545.421 719.952 545.406 719.936 545.386 719.915Z" fill="#EFB04B"/>
<path d="M545.457 719.987C545.457 719.987 545.447 719.977 545.442 719.971C545.466 719.997 545.481 720.013 545.457 719.987Z" fill="#EFB04B"/>
<path d="M545.448 719.977C545.448 719.977 545.443 719.977 545.434 719.961C545.443 719.972 545.453 719.982 545.458 719.988C545.458 719.988 545.453 719.982 545.448 719.977Z" fill="#EFB04B"/>
<path d="M544.279 718.309C544.279 718.309 544.289 718.32 544.294 718.325C544.229 718.256 544.239 718.267 544.279 718.309Z" fill="#EFB04B"/>
<path d="M543.914 718.19L543.919 718.196L543.93 718.202L543.914 718.19Z" fill="#EFB04B"/>
<path d="M543.809 718.071C543.991 718.266 543.967 718.246 543.928 718.205L544.355 718.657L543.809 718.071Z" fill="#EFB04B"/>
<path d="M543.827 717.927L543.693 717.788C543.477 717.551 543.554 717.633 543.367 717.433C543.827 717.927 543.41 717.489 543.871 717.984L543.775 717.881C543.775 717.881 543.751 717.855 543.755 717.86C543.535 717.623 544.086 718.221 544.019 718.148C543.981 718.112 543.914 718.04 543.861 717.978L543.971 718.102C543.971 718.102 543.88 718.009 543.89 718.015L543.923 718.056L543.909 718.04C543.981 718.118 544.091 718.241 544.139 718.293C544.072 718.22 544.091 718.241 544.034 718.179L544.144 718.303C544.024 718.174 543.909 718.051 543.928 718.066C543.468 717.572 544.043 718.19 543.77 717.906L543.712 717.845C543.449 717.567 543.545 717.67 543.382 717.494C543.468 717.587 543.794 717.932 543.909 718.056C543.875 718.02 543.856 718.004 543.947 718.102C543.784 717.927 543.823 717.968 543.832 717.984L543.616 717.752C543.679 717.819 543.789 717.937 543.885 718.045C543.861 718.025 543.693 717.845 543.554 717.69C543.516 717.654 543.823 717.978 543.861 718.025C543.775 717.937 543.861 718.035 543.99 718.174C543.914 718.097 543.856 718.03 543.794 717.963L543.966 718.148C543.966 718.148 543.909 718.087 543.88 718.056C543.947 718.128 544.096 718.287 544.153 718.354C544.393 718.612 543.803 717.984 544.072 718.277C544.01 718.21 543.938 718.133 543.856 718.045C544.034 718.241 543.986 718.184 544.22 718.447L544.077 718.298C544.24 718.473 544.431 718.679 544.59 718.854C544.666 718.936 544.738 719.014 544.772 719.044L544.887 719.173C544.853 719.137 544.777 719.055 544.685 718.957C544.705 718.977 544.719 718.993 544.738 719.014C544.657 718.926 544.532 718.792 544.412 718.663C544.455 718.71 544.503 718.756 544.546 718.808C544.417 718.663 544.268 718.509 544.144 718.37C544.168 718.396 544.192 718.421 544.201 718.432C544.168 718.396 544.134 718.36 544.11 718.334C544.086 718.308 544.134 718.36 544.192 718.421L543.947 718.164L544.043 718.267L543.89 718.107C544.129 718.37 544.489 718.756 544.585 718.869C544.407 718.679 544.297 718.56 544.086 718.334C544.312 718.571 543.995 718.231 544.043 718.277C544.019 718.251 543.918 718.143 543.885 718.107L544.086 718.329C543.914 718.143 543.957 718.19 543.885 718.118C544.225 718.483 544.11 718.365 544.211 718.478C544.096 718.354 543.981 718.231 544.01 718.257C543.751 717.984 544.407 718.689 544.187 718.457C544.187 718.457 544.201 718.473 544.144 718.411C544.244 718.519 544.163 718.437 544.062 718.329C544.019 718.287 544.053 718.329 544.34 718.643C544.302 718.602 543.995 718.267 543.933 718.205L544.896 719.25C544.647 718.983 544.057 718.354 543.918 718.2C543.885 718.164 543.842 718.118 543.928 718.215C543.962 718.251 544.288 718.596 544.307 718.622C544.029 718.329 544.158 718.463 543.923 718.215C543.976 718.272 544.364 718.689 544.35 718.679C544.292 718.617 543.966 718.267 543.928 718.226L544.307 718.638C544.24 718.565 543.986 718.293 543.875 718.174C543.952 718.257 543.866 718.169 543.904 718.21L543.995 718.303C543.933 718.246 544.527 718.88 544.508 718.864C544.431 718.777 544.024 718.344 543.976 718.293C544.173 718.504 544.911 719.302 545.059 719.467L544.949 719.348L545.074 719.487C544.781 719.168 544.168 718.504 543.928 718.241C543.837 718.148 543.794 718.102 543.803 718.112C543.698 717.999 543.645 717.942 543.64 717.932L543.569 717.865C543.799 718.112 543.794 718.112 543.986 718.318L543.751 718.061C543.976 718.303 544.393 718.756 544.355 718.715C544.264 718.617 543.947 718.277 543.875 718.195C543.952 718.277 544.024 718.36 543.966 718.298L543.847 718.164C543.76 718.071 544.149 718.488 543.928 718.257C543.914 718.241 543.631 717.942 543.77 718.087C544.029 718.365 544.834 719.23 545.031 719.441C545.011 719.42 544.781 719.178 544.652 719.039C544.446 718.823 544.168 718.514 543.99 718.329C544.053 718.396 544.129 718.478 544.153 718.504C544.101 718.447 543.962 718.298 543.986 718.329C544.216 718.576 543.962 718.308 544.182 718.54C544.249 718.612 544.134 718.488 544.144 718.504C544.292 718.663 544.652 719.05 544.714 719.122C544.657 719.06 544.58 718.977 544.542 718.941C544.518 718.921 544.412 718.813 544.407 718.813C544.35 718.751 544.283 718.679 544.182 718.576C544.22 718.622 544.302 718.705 544.307 718.71C544.105 718.499 544.278 718.674 544.038 718.416C544.173 718.56 544.22 718.617 544.307 718.71C544.513 718.931 544.35 718.751 544.268 718.658C544.556 718.967 544.853 719.292 544.983 719.436C545.05 719.513 544.796 719.24 544.839 719.281C544.786 719.23 545.337 719.822 545.126 719.601C544.944 719.405 544.762 719.209 544.633 719.07C544.566 718.993 544.753 719.194 544.743 719.183L544.657 719.091C544.594 719.024 544.551 718.972 544.604 719.029C544.441 718.854 544.566 719.003 544.412 718.844C544.475 718.911 544.537 718.977 544.609 719.055L544.585 719.024C544.733 719.178 544.786 719.245 544.858 719.317C544.959 719.431 545.122 719.606 545.035 719.518L544.829 719.297C544.892 719.364 544.954 719.431 544.892 719.359C544.983 719.456 544.609 719.06 544.877 719.353L545.021 719.508C545.126 719.621 545.342 719.858 545.275 719.791C545.481 720.013 545.251 719.765 545.491 720.023C545.189 719.704 545.505 720.033 545.194 719.698C545.472 719.997 545.313 719.822 545.553 720.079C545.486 720.007 545.424 719.94 545.457 719.976C545.438 719.956 545.414 719.925 545.395 719.91C545.395 719.91 545.395 719.91 545.4 719.915C545.4 719.915 545.395 719.91 545.39 719.904C545.381 719.894 545.376 719.889 545.39 719.904C545.361 719.873 545.323 719.832 545.285 719.791C545.126 719.621 545.136 719.626 545.055 719.539C545.088 719.575 545.131 719.621 545.208 719.704L545.088 719.57C545.242 719.734 545.342 719.837 545.428 719.935H545.438C545.524 720.033 545.558 720.069 545.496 719.997C545.529 720.033 545.328 719.812 545.448 719.94L545.357 719.837L545.395 719.879C545.395 719.879 545.146 719.601 545.424 719.894C545.385 719.853 545.342 719.801 545.385 719.848L545.52 719.987C545.476 719.935 545.654 720.126 545.52 719.976C545.874 720.358 545.601 720.054 545.668 720.121L545.496 719.935C545.496 719.935 545.457 719.889 545.39 719.817L545.237 719.652C545.112 719.518 545.347 719.765 545.333 719.745C545.39 719.807 545.376 719.791 545.337 719.755C545.683 720.121 545.093 719.482 545.347 719.745C545.313 719.704 545.294 719.683 545.347 719.745C545.347 719.745 545.347 719.745 545.357 719.755C545.385 719.781 545.414 719.817 545.438 719.843C545.4 719.801 545.371 719.77 545.357 719.755C545.357 719.755 545.337 719.729 545.299 719.688L545.462 719.863C545.462 719.863 545.462 719.863 545.462 719.858C545.524 719.92 545.385 719.776 545.261 719.642C545.232 719.611 545.203 719.58 545.165 719.534C545.428 719.817 545.079 719.436 545.361 719.74C545.222 719.59 545.261 719.626 544.973 719.317C545.011 719.359 545.031 719.379 545.031 719.379C545.064 719.415 545.098 719.446 545.016 719.359L545.222 719.58L544.944 719.276C545.074 719.41 545.146 719.487 545.304 719.662C545.059 719.395 545.213 719.559 544.973 719.297L545.107 719.441C545.107 719.441 544.925 719.24 545.035 719.359C545.294 719.631 545.079 719.389 545.318 719.637C544.92 719.214 545.496 719.827 545.194 719.498C545.289 719.595 545.342 719.652 545.419 719.74C545.328 719.637 545.572 719.894 545.313 719.616C545.409 719.719 545.452 719.765 545.505 719.822C545.486 719.801 545.424 719.734 545.481 719.791C545.539 719.853 545.558 719.873 545.601 719.92C545.587 719.899 545.299 719.59 545.031 719.302C545.16 719.436 545.141 719.42 544.963 719.225C545.055 719.317 545.146 719.42 545.174 719.451C545.189 719.467 545.309 719.585 545.093 719.353C545.15 719.41 545.112 719.369 545.083 719.343C545.098 719.353 545.117 719.374 545.098 719.353L545.064 719.317C544.805 719.034 545.007 719.256 544.978 719.219L545.007 719.25C545.198 719.451 544.916 719.153 545.136 719.379L544.973 719.204C544.623 718.828 545.184 719.42 545.05 719.276L544.959 719.178C544.839 719.05 545.438 719.688 545.481 719.734C545.51 719.765 545.529 719.786 545.553 719.812C545.764 720.028 545.342 719.585 545.294 719.528C545.409 719.652 545.587 719.843 545.611 719.863C545.706 719.961 545.242 719.456 545.462 719.693C545.371 719.601 545.285 719.503 545.218 719.431C545.189 719.395 545.558 719.786 545.28 719.487C545.304 719.513 545.328 719.539 545.352 719.559C545.28 719.482 545.237 719.425 545.083 719.266C545.644 719.868 544.815 718.967 545.333 719.523L545.309 719.492L545.361 719.549C545.4 719.585 545.275 719.451 545.15 719.317C545.184 719.353 545.232 719.405 545.261 719.436C545.366 719.544 545.347 719.523 545.093 719.24L545.261 719.42C545.165 719.312 545.529 719.698 545.337 719.487C545.357 719.508 545.39 719.544 545.414 719.57C545.222 719.353 545.889 720.064 545.275 719.405L545.126 719.24C545.079 719.194 544.863 718.957 544.757 718.849C544.724 718.808 544.944 719.044 544.973 719.08L544.944 719.05C545.261 719.395 545.059 719.168 545.28 719.4C545.27 719.379 545.452 719.559 545.472 719.57L545.222 719.302L545.237 719.317C545.294 719.379 545.433 719.523 545.419 719.513C545.558 719.662 545.304 719.384 545.251 719.328C545.352 719.431 545.539 719.642 545.548 719.647L545.529 719.626L545.5 719.595C545.4 719.487 545.294 719.369 545.309 719.384C545.361 719.436 545.462 719.549 545.472 719.559C545.491 719.58 545.496 719.585 545.481 719.565L545.505 719.585L545.309 719.374C545.213 719.271 545.323 719.384 545.098 719.147C545.443 719.513 545.227 719.271 545.337 719.384C545.198 719.23 545.198 719.23 545.218 719.245C545.174 719.204 544.954 718.967 544.983 718.993C545.438 719.482 545.184 719.204 545.51 719.549C545.294 719.317 545.462 719.487 545.15 719.158C545.189 719.194 545.318 719.338 545.428 719.456C545.256 719.266 545.548 719.575 545.496 719.503C545.438 719.441 545.342 719.343 545.256 719.245L545.558 719.565C545.529 719.534 545.213 719.194 545.424 719.415C545.371 719.364 545.299 719.281 545.28 719.261C545.577 719.564 545.055 718.988 545.611 719.57C545.496 719.446 545.481 719.436 545.481 719.431C545.452 719.4 545.333 719.271 545.251 719.183L545.476 719.42C545.251 719.178 545.467 719.4 545.251 719.168L545.289 719.209C545.035 718.936 544.724 718.607 544.403 718.257C544.69 718.565 543.971 717.803 544.383 718.246C544.316 718.174 544.278 718.133 544.206 718.051C544.345 718.2 544.374 718.231 544.312 718.169L544.278 718.133C544.307 718.174 544.168 718.03 544.072 717.932L544.235 718.102C544.235 718.102 544.163 718.025 544.12 717.984C544.364 718.246 544.134 717.994 544.403 718.287C544.077 717.937 544.393 718.287 544.019 717.891C544.019 717.891 544.206 718.092 544.201 718.092L544.101 717.984L544.23 718.123C544.23 718.123 544.081 717.968 543.995 717.875C544.005 717.886 543.971 717.85 543.966 717.839C543.847 717.716 544.005 717.886 543.966 717.845L544.029 717.912C544.12 718.015 543.981 717.881 544.182 718.102L544.259 718.184C544.398 718.339 544.173 718.097 544.235 718.169L544.216 718.148C544.292 718.231 544.326 718.272 544.316 718.262C544.23 718.164 544.144 718.076 544.043 717.973C544.192 718.138 544.158 718.102 544.441 718.406L544.316 718.272C544.431 718.396 544.489 718.457 544.522 718.493C544.417 718.375 544.331 718.287 544.187 718.133C543.909 717.839 544.46 718.437 544.057 718.004C544.403 718.38 544.254 718.21 544.326 718.287C544.441 718.411 544.585 718.566 544.546 718.529C544.537 718.524 544.101 718.056 544.105 718.061L544.081 718.035C543.99 717.942 544.201 718.164 544.053 718.015C544.264 718.241 544.038 718.004 544.307 718.293L544.249 718.226C544.316 718.303 544.633 718.643 544.475 718.478C544.422 718.421 544.35 718.344 544.312 718.298C544.23 718.215 544.364 718.354 544.283 718.267C544.014 717.978 544.225 718.2 544.024 717.978C543.909 717.855 544.216 718.19 543.923 717.875C544.292 718.272 543.875 717.829 544.153 718.133L543.99 717.958C544.014 717.984 544.091 718.066 544.086 718.066L543.88 717.839C544.057 718.03 543.722 717.675 543.818 717.783C543.818 717.772 544.014 717.989 544.129 718.118C544.34 718.354 543.708 717.67 543.779 717.757C543.755 717.731 543.88 717.86 543.952 717.937C543.918 717.901 543.856 717.839 543.77 717.747C543.799 717.788 543.938 717.922 544.034 718.03C543.837 717.819 544.11 718.118 544.173 718.184L544.01 718.009C543.904 717.901 544.35 718.375 544.22 718.241L543.995 717.994L544.053 718.061L543.866 717.86C544 718.009 543.966 717.973 543.914 717.917C544.029 718.04 544.211 718.236 544.216 718.241C544.12 718.138 544.062 718.071 544.081 718.102C543.981 717.994 543.851 717.855 544.005 718.015C543.952 717.958 543.904 717.906 543.851 717.85C543.741 717.731 543.823 717.824 543.823 717.829C543.827 717.834 543.837 717.845 543.861 717.87L544.086 718.118C544.024 718.051 543.976 717.999 543.928 717.948C543.947 717.968 544.019 718.051 544.034 718.066C543.899 717.922 543.765 717.778 543.703 717.706L543.847 717.865C543.789 717.803 543.688 717.695 543.636 717.644C543.554 717.561 543.89 717.927 543.784 717.814C543.808 717.839 543.832 717.87 543.851 717.891C543.818 717.86 543.655 717.685 543.837 717.886L543.597 717.633C543.65 717.695 543.899 717.953 543.986 718.056C544.057 718.138 543.779 717.839 543.712 717.767C543.832 717.896 544.077 718.164 543.88 717.958C543.837 717.912 543.871 717.948 543.856 717.927H543.827ZM543.914 718.066C543.88 718.03 543.775 717.917 543.871 718.02C544.057 718.221 543.966 718.128 543.914 718.066ZM544.273 718.519C544.22 718.463 544.244 718.488 544.307 718.555C544.321 718.571 544.312 718.566 544.273 718.519ZM545.328 719.837C545.328 719.837 545.328 719.837 545.318 719.827C545.381 719.894 545.357 719.868 545.328 719.837ZM545.256 719.76C545.256 719.76 545.299 719.812 545.323 719.832C545.28 719.786 545.28 719.786 545.289 719.796C545.246 719.75 545.218 719.719 545.251 719.76H545.256ZM545.385 719.482L545.342 719.436C545.294 719.384 545.342 719.431 545.385 719.482Z" fill="#EFB04B"/>
<path d="M544.053 718.277C544.081 718.308 544.11 718.339 544.143 718.374C544.115 718.344 544.086 718.313 544.053 718.277Z" fill="#EFB04B"/>
<path d="M543.75 717.825C543.741 717.814 543.731 717.804 543.722 717.793L543.75 717.825Z" fill="#EFB04B"/>
<path d="M543.896 718.241C543.896 718.241 543.948 718.297 543.981 718.328C543.943 718.287 543.91 718.251 543.896 718.241Z" fill="#EFB04B"/>
<path d="M545.524 720.068L545.481 720.022C545.481 720.022 545.453 719.992 545.429 719.966C545.467 720.007 545.524 720.063 545.524 720.068Z" fill="#EFB04B"/>
<path d="M544.498 718.993C544.498 718.993 544.498 718.993 544.522 719.018L544.598 719.1C544.598 719.1 544.531 719.029 544.503 718.993H544.498Z" fill="#EFB04B"/>
<path d="M544.978 719.487C544.838 719.338 544.887 719.389 544.911 719.42C545.103 719.626 545.041 719.559 544.978 719.487Z" fill="#EFB04B"/>
<path d="M544.916 719.425C544.996 719.512 544.931 719.442 544.916 719.425Z" fill="#EFB04B"/>
<path d="M545.342 719.863C545.309 719.827 545.521 720.054 545.463 719.992C545.636 720.182 545.251 719.76 545.342 719.863Z" fill="#EFB04B"/>
<path d="M544.522 719.003L544.696 719.183L544.556 719.039L544.522 719.003Z" fill="#EFB04B"/>
<path d="M544.656 719.127L544.608 719.075C544.637 719.106 544.652 719.122 544.666 719.137C544.671 719.142 544.709 719.178 544.656 719.122V719.127Z" fill="#EFB04B"/>
<path d="M544.667 719.142C544.667 719.142 544.667 719.142 544.696 719.174C544.696 719.174 544.691 719.163 544.667 719.142Z" fill="#EFB04B"/>
<path d="M544.475 718.947L544.509 718.984L544.524 719L544.475 718.947Z" fill="#EFB04B"/>
<path d="M544.699 719.147L544.652 719.095C544.595 719.034 544.557 718.993 544.58 719.019C544.618 719.065 544.642 719.085 544.699 719.147Z" fill="#EFB04B"/>
<path d="M544.23 718.653C544.263 718.688 544.302 718.729 544.359 718.791L544.148 718.565L544.23 718.653Z" fill="#EFB04B"/>
<path d="M544.188 718.595C544.13 718.534 544.019 718.416 544.034 718.432C544.091 718.493 544.139 718.549 544.188 718.595Z" fill="#EFB04B"/>
<path d="M544.475 718.859L544.479 718.864L544.825 719.233L544.475 718.859Z" fill="#EFB04B"/>
<path d="M543.669 717.953C543.583 717.866 543.88 718.184 543.775 718.071C543.856 718.158 543.861 718.158 543.928 718.235C543.842 718.143 543.895 718.194 543.664 717.953H543.669Z" fill="#EFB04B"/>
<path d="M543.933 718.236C543.933 718.236 543.962 718.267 543.986 718.293C543.967 718.267 543.947 718.251 543.933 718.236Z" fill="#EFB04B"/>
<path d="M545.625 719.6L545.701 719.672L545.582 719.549L545.625 719.6Z" fill="#EFB04B"/>
<path d="M545.371 719.322L545.592 719.558L545.395 719.343C545.395 719.343 545.424 719.374 545.371 719.322Z" fill="#EFB04B"/>
<path d="M543.463 717.592L543.515 717.648C543.572 717.71 543.577 717.715 543.587 717.725L543.463 717.592Z" fill="#EFB04B"/>
<path d="M543.645 717.752L543.641 717.747L543.842 717.962L543.645 717.752Z" fill="#EFB04B"/>
<path d="M543.405 717.469C543.405 717.469 543.439 717.509 543.429 717.499C543.396 717.458 543.648 717.735 543.405 717.469Z" fill="#EFB04B"/>
<g opacity="0.2" style="mix-blend-mode:color-burn">
<path d="M460.345 697.71C460.345 697.066 460.379 696.428 460.426 695.8C455.988 698.616 453.006 703.807 453.006 709.744C453.006 718.684 459.751 725.929 468.072 725.929C472.746 725.929 476.926 723.643 479.687 720.054C468.878 719.214 460.345 709.533 460.345 697.705V697.71Z" fill="#492771"/>
<path d="M460.345 697.71C460.345 697.066 460.379 696.428 460.426 695.8C455.988 698.616 453.006 703.807 453.006 709.744C453.006 718.684 459.751 725.929 468.072 725.929C472.746 725.929 476.926 723.643 479.687 720.054C468.878 719.214 460.345 709.533 460.345 697.705V697.71Z" stroke="#492770" stroke-miterlimit="10"/>
</g>
<g opacity="0.2" style="mix-blend-mode:color-burn">
<path d="M655.865 698.174C655.865 697.53 655.831 696.892 655.783 696.263C660.222 699.08 663.204 704.271 663.204 710.208C663.204 719.147 656.459 726.393 648.138 726.393C643.464 726.393 639.284 724.106 636.522 720.517C647.332 719.678 655.865 709.997 655.865 698.169V698.174Z" fill="#492771"/>
<path d="M655.865 698.174C655.865 697.53 655.831 696.892 655.783 696.263C660.222 699.08 663.204 704.271 663.204 710.208C663.204 719.147 656.459 726.393 648.138 726.393C643.464 726.393 639.284 724.106 636.522 720.517C647.332 719.678 655.865 709.997 655.865 698.169V698.174Z" stroke="#492770" stroke-miterlimit="10"/>
</g>
<path d="M544.858 604.382C544.902 612.219 550.827 618.563 558.137 618.563C565.447 618.563 571.372 612.224 571.415 604.382H544.858Z" fill="#EFB04B" stroke="#EDC34C" stroke-miterlimit="10"/>
<path d="M544.858 628.373C544.902 636.21 550.827 642.555 558.137 642.555C565.447 642.555 571.372 636.216 571.415 628.373H544.858Z" fill="#EFB04B" stroke="#EDC34C" stroke-miterlimit="10"/>
<path d="M547.624 663.106C547.658 669.311 552.351 674.332 558.137 674.332C563.923 674.332 568.616 669.311 568.649 663.106H547.624Z" fill="#EFB04B" stroke="#EDC34C" stroke-miterlimit="10"/>
<path d="M505.401 628.373C505.445 636.21 511.369 642.555 518.68 642.555C525.99 642.555 531.915 636.216 531.958 628.373H505.401Z" fill="#EFB04B" stroke="#EDC34C" stroke-miterlimit="10"/>
<path d="M516.427 653.847C516.46 660.052 521.153 665.073 526.939 665.073C532.725 665.073 537.418 660.052 537.452 653.847H516.427Z" fill="#EFB04B" stroke="#EDC34C" stroke-miterlimit="10"/>
<path d="M584.703 628.373C584.746 636.21 590.671 642.555 597.982 642.555C605.292 642.555 611.217 636.216 611.26 628.373H584.703Z" fill="#EFB04B" stroke="#EDC34C" stroke-miterlimit="10"/>
<path d="M579.21 653.847C579.244 660.052 583.937 665.073 589.722 665.073C595.508 665.073 600.201 660.052 600.235 653.847H579.21Z" fill="#EFB04B" stroke="#EDC34C" stroke-miterlimit="10"/>
<rect x="279" y="722" width="600" height="17" rx="8.5" fill="#333333"/>
</svg>
